solid OpenSCAD_Model
  facet normal -1 0 0
    outer loop
      vertex 0 11.4499 5.44504
      vertex 0 0 31.5
      vertex 0 19 0
    endloop
  endfacet
  facet normal -1 0 0
    outer loop
      vertex 0 8.63223 25.3019
      vertex 0 0 31.5
      vertex 0 19 31.5
    endloop
  endfacet
  facet normal -1 0 0
    outer loop
      vertex 0 0 0
      vertex 0 0 31.5
      vertex 0 7.55014 5.44504
    endloop
  endfacet
  facet normal -1 0 0
    outer loop
      vertex 0 0 0
      vertex 0 7.55014 5.44504
      vertex 0 7.93634 3.75302
    endloop
  endfacet
  facet normal -1 0 0
    outer loop
      vertex 0 0 0
      vertex 0 7.93634 3.75302
      vertex 0 9.5 3
    endloop
  endfacet
  facet normal -1 0 0
    outer loop
      vertex 0 0 0
      vertex 0 9.5 3
      vertex 0 19 0
    endloop
  endfacet
  facet normal -1 0 0
    outer loop
      vertex 0 11.4499 5.44504
      vertex 0 19 0
      vertex 0 11.0637 3.75302
    endloop
  endfacet
  facet normal -1 0 0
    outer loop
      vertex 0 10.3678 6.80194
      vertex 0 0 31.5
      vertex 0 11.4499 5.44504
    endloop
  endfacet
  facet normal -1 0 0
    outer loop
      vertex 0 9.5 21.5
      vertex 0 19 0
      vertex 0 7.93634 22.253
    endloop
  endfacet
  facet normal -1 0 0
    outer loop
      vertex 0 8.63223 6.80194
      vertex 0 0 31.5
      vertex 0 10.3678 6.80194
    endloop
  endfacet
  facet normal -1 0 0
    outer loop
      vertex 0 7.55014 5.44504
      vertex 0 0 31.5
      vertex 0 8.63223 6.80194
    endloop
  endfacet
  facet normal -1 0 0
    outer loop
      vertex 0 7.93634 22.253
      vertex 0 0 31.5
      vertex 0 7.55014 23.945
    endloop
  endfacet
  facet normal -1 0 0
    outer loop
      vertex 0 19 0
      vertex 0 0 31.5
      vertex 0 7.93634 22.253
    endloop
  endfacet
  facet normal -1 0 0
    outer loop
      vertex 0 11.4499 23.945
      vertex 0 19 31.5
      vertex 0 11.0637 22.253
    endloop
  endfacet
  facet normal -1 0 0
    outer loop
      vertex 0 19 0
      vertex 0 9.5 21.5
      vertex 0 11.0637 22.253
    endloop
  endfacet
  facet normal -1 0 0
    outer loop
      vertex 0 19 0
      vertex 0 11.0637 22.253
      vertex 0 19 31.5
    endloop
  endfacet
  facet normal -1 0 0
    outer loop
      vertex 0 8.63223 25.3019
      vertex 0 19 31.5
      vertex 0 10.3678 25.3019
    endloop
  endfacet
  facet normal -1 0 0
    outer loop
      vertex 0 11.4499 23.945
      vertex 0 10.3678 25.3019
      vertex 0 19 31.5
    endloop
  endfacet
  facet normal -1 0 0
    outer loop
      vertex 0 7.55014 23.945
      vertex 0 0 31.5
      vertex 0 8.63223 25.3019
    endloop
  endfacet
  facet normal -1 0 0
    outer loop
      vertex 0 11.0637 3.75302
      vertex 0 19 0
      vertex 0 9.5 3
    endloop
  endfacet
  facet normal 0 -1 0
    outer loop
      vertex 33.4271 0 10.1468
      vertex 0 0 0
      vertex 65 0 0
    endloop
  endfacet
  facet normal 0 -1 0
    outer loop
      vertex 34.9271 0 14.7634
      vertex 35.5 0 13
      vertex 65 0 0
    endloop
  endfacet
  facet normal 0 -1 0
    outer loop
      vertex 33.4271 0 28.3532
      vertex 34.9271 0 27.2634
      vertex 65 0 31.5
    endloop
  endfacet
  facet normal 0 -1 0
    outer loop
      vertex 0 0 31.5
      vertex 0 0 0
      vertex 30.0729 0 11.2366
    endloop
  endfacet
  facet normal 0 -1 0
    outer loop
      vertex 0 0 31.5
      vertex 30.0729 0 11.2366
      vertex 29.5 0 13
    endloop
  endfacet
  facet normal 0 -1 0
    outer loop
      vertex 0 0 31.5
      vertex 29.5 0 13
      vertex 30.0729 0 14.7634
    endloop
  endfacet
  facet normal 0 -1 0
    outer loop
      vertex 34.9271 0 11.2366
      vertex 33.4271 0 10.1468
      vertex 65 0 0
    endloop
  endfacet
  facet normal 0 -1 0
    outer loop
      vertex 0 0 31.5
      vertex 30.0729 0 14.7634
      vertex 31.5729 0 15.8532
    endloop
  endfacet
  facet normal 0 -1 0
    outer loop
      vertex 65 0 31.5
      vertex 33.4271 0 15.8532
      vertex 65 0 0
    endloop
  endfacet
  facet normal 0 -1 0
    outer loop
      vertex 30.0729 0 23.7366
      vertex 0 0 31.5
      vertex 33.4271 0 15.8532
    endloop
  endfacet
  facet normal 0 -1 0
    outer loop
      vertex 33.4271 0 15.8532
      vertex 34.9271 0 14.7634
      vertex 65 0 0
    endloop
  endfacet
  facet normal 0 -1 0
    outer loop
      vertex 31.5729 0 10.1468
      vertex 0 0 0
      vertex 33.4271 0 10.1468
    endloop
  endfacet
  facet normal 0 -1 0
    outer loop
      vertex 30.0729 0 11.2366
      vertex 0 0 0
      vertex 31.5729 0 10.1468
    endloop
  endfacet
  facet normal 0 -1 0
    outer loop
      vertex 31.5729 0 22.6468
      vertex 30.0729 0 23.7366
      vertex 33.4271 0 15.8532
    endloop
  endfacet
  facet normal 0 -1 0
    outer loop
      vertex 29.5 0 25.5
      vertex 0 0 31.5
      vertex 30.0729 0 23.7366
    endloop
  endfacet
  facet normal 0 -1 0
    outer loop
      vertex 30.0729 0 27.2634
      vertex 0 0 31.5
      vertex 29.5 0 25.5
    endloop
  endfacet
  facet normal 0 -1 0
    outer loop
      vertex 31.5729 0 28.3532
      vertex 0 0 31.5
      vertex 30.0729 0 27.2634
    endloop
  endfacet
  facet normal 0 -1 0
    outer loop
      vertex 65 0 31.5
      vertex 0 0 31.5
      vertex 31.5729 0 28.3532
    endloop
  endfacet
  facet normal 0 -1 0
    outer loop
      vertex 34.9271 0 27.2634
      vertex 35.5 0 25.5
      vertex 65 0 31.5
    endloop
  endfacet
  facet normal 0 -1 0
    outer loop
      vertex 65 0 31.5
      vertex 31.5729 0 28.3532
      vertex 33.4271 0 28.3532
    endloop
  endfacet
  facet normal 0 -1 0
    outer loop
      vertex 35.5 0 25.5
      vertex 34.9271 0 23.7366
      vertex 65 0 31.5
    endloop
  endfacet
  facet normal 0 -1 0
    outer loop
      vertex 65 0 31.5
      vertex 34.9271 0 23.7366
      vertex 33.4271 0 15.8532
    endloop
  endfacet
  facet normal 0 -1 0
    outer loop
      vertex 34.9271 0 23.7366
      vertex 33.4271 0 22.6468
      vertex 33.4271 0 15.8532
    endloop
  endfacet
  facet normal 0 -1 0
    outer loop
      vertex 33.4271 0 22.6468
      vertex 31.5729 0 22.6468
      vertex 33.4271 0 15.8532
    endloop
  endfacet
  facet normal 0 -1 0
    outer loop
      vertex 35.5 0 13
      vertex 34.9271 0 11.2366
      vertex 65 0 0
    endloop
  endfacet
  facet normal 0 -1 0
    outer loop
      vertex 31.5729 0 15.8532
      vertex 33.4271 0 15.8532
      vertex 0 0 31.5
    endloop
  endfacet
  facet normal 0 0 -1
    outer loop
      vertex 0 0 0
      vertex 0 19 0
      vertex 65 0 0
    endloop
  endfacet
  facet normal 0 0 -1
    outer loop
      vertex 65 0 0
      vertex 0 19 0
      vertex 65 19 0
    endloop
  endfacet
  facet normal 0 1 0
    outer loop
      vertex 33.4271 19 28.3532
      vertex 0 19 31.5
      vertex 65 19 31.5
    endloop
  endfacet
  facet normal 0 1 0
    outer loop
      vertex 0 19 0
      vertex 0 19 31.5
      vertex 29.5 19 13
    endloop
  endfacet
  facet normal 0 1 0
    outer loop
      vertex 30.0729 19 14.7634
      vertex 0 19 31.5
      vertex 31.5729 19 15.8532
    endloop
  endfacet
  facet normal 0 1 0
    outer loop
      vertex 0 19 0
      vertex 29.5 19 13
      vertex 30.0729 19 11.2366
    endloop
  endfacet
  facet normal 0 1 0
    outer loop
      vertex 0 19 0
      vertex 30.0729 19 11.2366
      vertex 31.5729 19 10.1468
    endloop
  endfacet
  facet normal 0 1 0
    outer loop
      vertex 0 19 0
      vertex 31.5729 19 10.1468
      vertex 65 19 0
    endloop
  endfacet
  facet normal 0 1 0
    outer loop
      vertex 31.5729 19 10.1468
      vertex 33.4271 19 10.1468
      vertex 65 19 0
    endloop
  endfacet
  facet normal 0 1 0
    outer loop
      vertex 34.9271 19 11.2366
      vertex 65 19 0
      vertex 33.4271 19 10.1468
    endloop
  endfacet
  facet normal 0 1 0
    outer loop
      vertex 34.9271 19 14.7634
      vertex 65 19 0
      vertex 35.5 19 13
    endloop
  endfacet
  facet normal 0 1 0
    outer loop
      vertex 31.5729 19 22.6468
      vertex 33.4271 19 15.8532
      vertex 30.0729 19 23.7366
    endloop
  endfacet
  facet normal 0 1 0
    outer loop
      vertex 34.9271 19 11.2366
      vertex 35.5 19 13
      vertex 65 19 0
    endloop
  endfacet
  facet normal 0 1 0
    outer loop
      vertex 31.5729 19 15.8532
      vertex 0 19 31.5
      vertex 33.4271 19 15.8532
    endloop
  endfacet
  facet normal 0 1 0
    outer loop
      vertex 65 19 0
      vertex 34.9271 19 14.7634
      vertex 65 19 31.5
    endloop
  endfacet
  facet normal 0 1 0
    outer loop
      vertex 34.9271 19 14.7634
      vertex 33.4271 19 15.8532
      vertex 65 19 31.5
    endloop
  endfacet
  facet normal 0 1 0
    outer loop
      vertex 30.0729 19 23.7366
      vertex 0 19 31.5
      vertex 29.5 19 25.5
    endloop
  endfacet
  facet normal 0 1 0
    outer loop
      vertex 33.4271 19 15.8532
      vertex 0 19 31.5
      vertex 30.0729 19 23.7366
    endloop
  endfacet
  facet normal 0 1 0
    outer loop
      vertex 34.9271 19 23.7366
      vertex 65 19 31.5
      vertex 33.4271 19 22.6468
    endloop
  endfacet
  facet normal 0 1 0
    outer loop
      vertex 33.4271 19 15.8532
      vertex 31.5729 19 22.6468
      vertex 33.4271 19 22.6468
    endloop
  endfacet
  facet normal 0 1 0
    outer loop
      vertex 33.4271 19 15.8532
      vertex 33.4271 19 22.6468
      vertex 65 19 31.5
    endloop
  endfacet
  facet normal 0 1 0
    outer loop
      vertex 34.9271 19 27.2634
      vertex 65 19 31.5
      vertex 35.5 19 25.5
    endloop
  endfacet
  facet normal 0 1 0
    outer loop
      vertex 34.9271 19 23.7366
      vertex 35.5 19 25.5
      vertex 65 19 31.5
    endloop
  endfacet
  facet normal 0 1 0
    outer loop
      vertex 30.0729 19 27.2634
      vertex 0 19 31.5
      vertex 31.5729 19 28.3532
    endloop
  endfacet
  facet normal 0 1 0
    outer loop
      vertex 31.5729 19 28.3532
      vertex 0 19 31.5
      vertex 33.4271 19 28.3532
    endloop
  endfacet
  facet normal 0 1 0
    outer loop
      vertex 34.9271 19 27.2634
      vertex 33.4271 19 28.3532
      vertex 65 19 31.5
    endloop
  endfacet
  facet normal 0 1 0
    outer loop
      vertex 29.5 19 25.5
      vertex 0 19 31.5
      vertex 30.0729 19 27.2634
    endloop
  endfacet
  facet normal 0 1 0
    outer loop
      vertex 29.5 19 13
      vertex 0 19 31.5
      vertex 30.0729 19 14.7634
    endloop
  endfacet
  facet normal 0 0 1
    outer loop
      vertex 33.9729 3.6836 31.5
      vertex 0 0 31.5
      vertex 65 0 31.5
    endloop
  endfacet
  facet normal 0 0 1
    outer loop
      vertex 27.2232 6.64432 31.5
      vertex 4.55496 11.4499 31.5
      vertex 6.24698 11.0637 31.5
    endloop
  endfacet
  facet normal 0 0 1
    outer loop
      vertex 0 19 31.5
      vertex 0 0 31.5
      vertex 3.19806 8.63223 31.5
    endloop
  endfacet
  facet normal 0 0 1
    outer loop
      vertex 0 19 31.5
      vertex 3.19806 8.63223 31.5
      vertex 3.19806 10.3678 31.5
    endloop
  endfacet
  facet normal 0 0 1
    outer loop
      vertex 0 19 31.5
      vertex 3.19806 10.3678 31.5
      vertex 4.55496 11.4499 31.5
    endloop
  endfacet
  facet normal 0 0 1
    outer loop
      vertex 26.5818 10.4876 31.5
      vertex 27.2232 12.3557 31.5
      vertex 0 19 31.5
    endloop
  endfacet
  facet normal 0 0 1
    outer loop
      vertex 30.0898 4.00536 31.5
      vertex 28.4363 5.08566 31.5
      vertex 6.24698 7.93634 31.5
    endloop
  endfacet
  facet normal 0 0 1
    outer loop
      vertex 4.55496 7.55014 31.5
      vertex 0 0 31.5
      vertex 6.24698 7.93634 31.5
    endloop
  endfacet
  facet normal 0 0 1
    outer loop
      vertex 3.19806 8.63223 31.5
      vertex 0 0 31.5
      vertex 4.55496 7.55014 31.5
    endloop
  endfacet
  facet normal 0 0 1
    outer loop
      vertex 0 19 31.5
      vertex 4.55496 11.4499 31.5
      vertex 26.5818 8.51243 31.5
    endloop
  endfacet
  facet normal 0 0 1
    outer loop
      vertex 37.2348 5.81472 31.5
      vertex 35.7817 4.477 31.5
      vertex 65 0 31.5
    endloop
  endfacet
  facet normal 0 0 1
    outer loop
      vertex 0 19 31.5
      vertex 26.5818 8.51243 31.5
      vertex 26.5818 10.4876 31.5
    endloop
  endfacet
  facet normal 0 0 1
    outer loop
      vertex 28.4363 13.9143 31.5
      vertex 0 19 31.5
      vertex 27.2232 12.3557 31.5
    endloop
  endfacet
  facet normal 0 0 1
    outer loop
      vertex 30.0898 14.9946 31.5
      vertex 0 19 31.5
      vertex 28.4363 13.9143 31.5
    endloop
  endfacet
  facet normal 0 0 1
    outer loop
      vertex 32.0045 15.4795 31.5
      vertex 0 19 31.5
      vertex 30.0898 14.9946 31.5
    endloop
  endfacet
  facet normal 0 0 1
    outer loop
      vertex 33.9729 15.3164 31.5
      vertex 35.7817 14.523 31.5
      vertex 65 19 31.5
    endloop
  endfacet
  facet normal 0 0 1
    outer loop
      vertex 65 19 31.5
      vertex 0 19 31.5
      vertex 32.0045 15.4795 31.5
    endloop
  endfacet
  facet normal 0 0 1
    outer loop
      vertex 35.7817 14.523 31.5
      vertex 37.2348 13.1853 31.5
      vertex 65 19 31.5
    endloop
  endfacet
  facet normal 0 0 1
    outer loop
      vertex 38.5 9.5 31.5
      vertex 38.1749 7.5518 31.5
      vertex 65 0 31.5
    endloop
  endfacet
  facet normal 0 0 1
    outer loop
      vertex 58.1981 8.63223 31.5
      vertex 37.2348 13.1853 31.5
      vertex 65 0 31.5
    endloop
  endfacet
  facet normal 0 0 1
    outer loop
      vertex 37.2348 13.1853 31.5
      vertex 38.1749 11.4482 31.5
      vertex 65 0 31.5
    endloop
  endfacet
  facet normal 0 0 1
    outer loop
      vertex 38.1749 11.4482 31.5
      vertex 38.5 9.5 31.5
      vertex 65 0 31.5
    endloop
  endfacet
  facet normal 0 0 1
    outer loop
      vertex 32.0045 15.4795 31.5
      vertex 33.9729 15.3164 31.5
      vertex 65 19 31.5
    endloop
  endfacet
  facet normal 0 0 1
    outer loop
      vertex 38.1749 7.5518 31.5
      vertex 37.2348 5.81472 31.5
      vertex 65 0 31.5
    endloop
  endfacet
  facet normal 0 0 1
    outer loop
      vertex 27.2232 6.64432 31.5
      vertex 26.5818 8.51243 31.5
      vertex 4.55496 11.4499 31.5
    endloop
  endfacet
  facet normal 0 0 1
    outer loop
      vertex 32.0045 3.52049 31.5
      vertex 0 0 31.5
      vertex 33.9729 3.6836 31.5
    endloop
  endfacet
  facet normal 0 0 1
    outer loop
      vertex 6.24698 7.93634 31.5
      vertex 0 0 31.5
      vertex 32.0045 3.52049 31.5
    endloop
  endfacet
  facet normal 0 0 1
    outer loop
      vertex 28.4363 5.08566 31.5
      vertex 27.2232 6.64432 31.5
      vertex 7 9.5 31.5
    endloop
  endfacet
  facet normal 0 0 1
    outer loop
      vertex 6.24698 7.93634 31.5
      vertex 32.0045 3.52049 31.5
      vertex 30.0898 4.00536 31.5
    endloop
  endfacet
  facet normal 0 0 1
    outer loop
      vertex 35.7817 4.477 31.5
      vertex 33.9729 3.6836 31.5
      vertex 65 0 31.5
    endloop
  endfacet
  facet normal 0 0 1
    outer loop
      vertex 59.555 11.4499 31.5
      vertex 61.247 11.0637 31.5
      vertex 65 19 31.5
    endloop
  endfacet
  facet normal 0 0 1
    outer loop
      vertex 59.555 7.55014 31.5
      vertex 58.1981 8.63223 31.5
      vertex 65 0 31.5
    endloop
  endfacet
  facet normal 0 0 1
    outer loop
      vertex 58.1981 10.3678 31.5
      vertex 37.2348 13.1853 31.5
      vertex 58.1981 8.63223 31.5
    endloop
  endfacet
  facet normal 0 0 1
    outer loop
      vertex 65 19 31.5
      vertex 37.2348 13.1853 31.5
      vertex 58.1981 10.3678 31.5
    endloop
  endfacet
  facet normal 0 0 1
    outer loop
      vertex 62 9.5 31.5
      vertex 61.247 7.93634 31.5
      vertex 65 0 31.5
    endloop
  endfacet
  facet normal 0 0 1
    outer loop
      vertex 65 19 31.5
      vertex 58.1981 10.3678 31.5
      vertex 59.555 11.4499 31.5
    endloop
  endfacet
  facet normal 0 0 1
    outer loop
      vertex 65 19 31.5
      vertex 62 9.5 31.5
      vertex 65 0 31.5
    endloop
  endfacet
  facet normal 0 0 1
    outer loop
      vertex 65 19 31.5
      vertex 61.247 11.0637 31.5
      vertex 62 9.5 31.5
    endloop
  endfacet
  facet normal 0 0 1
    outer loop
      vertex 61.247 7.93634 31.5
      vertex 59.555 7.55014 31.5
      vertex 65 0 31.5
    endloop
  endfacet
  facet normal 0 0 1
    outer loop
      vertex 6.24698 11.0637 31.5
      vertex 7 9.5 31.5
      vertex 27.2232 6.64432 31.5
    endloop
  endfacet
  facet normal 0 0 1
    outer loop
      vertex 7 9.5 31.5
      vertex 6.24698 7.93634 31.5
      vertex 28.4363 5.08566 31.5
    endloop
  endfacet
  facet normal 1.38443e-16 0.781831 -0.62349
    outer loop
      vertex 9.9 8.63223 6.80194
      vertex 9.9 7.55014 5.44504
      vertex 0 8.63223 6.80194
    endloop
  endfacet
  facet normal 1.38443e-16 0.781831 -0.62349
    outer loop
      vertex 0 8.63223 6.80194
      vertex 9.9 7.55014 5.44504
      vertex 0 7.55014 5.44504
    endloop
  endfacet
  facet normal -4.94096e-17 0.974928 0.222521
    outer loop
      vertex 9.9 7.93634 3.75302
      vertex 0 7.93634 3.75302
      vertex 9.9 7.55014 5.44504
    endloop
  endfacet
  facet normal -4.94096e-17 0.974928 0.222521
    outer loop
      vertex 9.9 7.55014 5.44504
      vertex 0 7.93634 3.75302
      vertex 0 7.55014 5.44504
    endloop
  endfacet
  facet normal 2.22045e-16 0 -1
    outer loop
      vertex 9.9 10.3678 6.80194
      vertex 9.9 8.63223 6.80194
      vertex 0 10.3678 6.80194
    endloop
  endfacet
  facet normal 2.22045e-16 0 -1
    outer loop
      vertex 0 10.3678 6.80194
      vertex 9.9 8.63223 6.80194
      vertex 0 8.63223 6.80194
    endloop
  endfacet
  facet normal 1.38443e-16 -0.781831 -0.62349
    outer loop
      vertex 0 11.4499 5.44504
      vertex 9.9 11.4499 5.44504
      vertex 9.9 10.3678 6.80194
    endloop
  endfacet
  facet normal 1.38443e-16 -0.781831 -0.62349
    outer loop
      vertex 0 10.3678 6.80194
      vertex 0 11.4499 5.44504
      vertex 9.9 10.3678 6.80194
    endloop
  endfacet
  facet normal -4.94096e-17 -0.974928 0.222521
    outer loop
      vertex 9.9 11.0637 3.75302
      vertex 9.9 11.4499 5.44504
      vertex 0 11.4499 5.44504
    endloop
  endfacet
  facet normal -4.94096e-17 -0.974928 0.222521
    outer loop
      vertex 0 11.0637 3.75302
      vertex 9.9 11.0637 3.75302
      vertex 0 11.4499 5.44504
    endloop
  endfacet
  facet normal -2.00055e-16 -0.433884 0.900969
    outer loop
      vertex 9.9 9.5 3
      vertex 9.9 11.0637 3.75302
      vertex 0 11.0637 3.75302
    endloop
  endfacet
  facet normal -2.00055e-16 -0.433884 0.900969
    outer loop
      vertex 0 9.5 3
      vertex 9.9 9.5 3
      vertex 0 11.0637 3.75302
    endloop
  endfacet
  facet normal -2.00055e-16 0.433884 0.900969
    outer loop
      vertex 9.9 7.93634 3.75302
      vertex 9.9 9.5 3
      vertex 0 9.5 3
    endloop
  endfacet
  facet normal -2.00055e-16 0.433884 0.900969
    outer loop
      vertex 0 7.93634 3.75302
      vertex 9.9 7.93634 3.75302
      vertex 0 9.5 3
    endloop
  endfacet
  facet normal 1.38443e-16 0.781831 -0.62349
    outer loop
      vertex 3.19806 8.63223 25.3019
      vertex 4.55496 7.55014 23.945
      vertex 0 8.63223 25.3019
    endloop
  endfacet
  facet normal 1.38443e-16 0.781831 -0.62349
    outer loop
      vertex 0 8.63223 25.3019
      vertex 4.55496 7.55014 23.945
      vertex 0 7.55014 23.945
    endloop
  endfacet
  facet normal -4.94096e-17 0.974928 0.222521
    outer loop
      vertex 4.07069 7.93634 22.253
      vertex 0 7.93634 22.253
      vertex 4.55496 7.55014 23.945
    endloop
  endfacet
  facet normal -4.94096e-17 0.974928 0.222521
    outer loop
      vertex 4.55496 7.55014 23.945
      vertex 0 7.93634 22.253
      vertex 0 7.55014 23.945
    endloop
  endfacet
  facet normal 2.22045e-16 0 -1
    outer loop
      vertex 3.19806 10.3678 25.3019
      vertex 3.19806 8.63223 25.3019
      vertex 0 10.3678 25.3019
    endloop
  endfacet
  facet normal 2.22045e-16 0 -1
    outer loop
      vertex 0 10.3678 25.3019
      vertex 3.19806 8.63223 25.3019
      vertex 0 8.63223 25.3019
    endloop
  endfacet
  facet normal 1.38443e-16 -0.781831 -0.62349
    outer loop
      vertex 0 11.4499 23.945
      vertex 4.55496 11.4499 23.945
      vertex 3.19806 10.3678 25.3019
    endloop
  endfacet
  facet normal 1.38443e-16 -0.781831 -0.62349
    outer loop
      vertex 0 10.3678 25.3019
      vertex 0 11.4499 23.945
      vertex 3.19806 10.3678 25.3019
    endloop
  endfacet
  facet normal -4.94096e-17 -0.974928 0.222521
    outer loop
      vertex 4.07069 11.0637 22.253
      vertex 4.55496 11.4499 23.945
      vertex 0 11.4499 23.945
    endloop
  endfacet
  facet normal -4.94096e-17 -0.974928 0.222521
    outer loop
      vertex 0 11.0637 22.253
      vertex 4.07069 11.0637 22.253
      vertex 0 11.4499 23.945
    endloop
  endfacet
  facet normal -2.00055e-16 -0.433884 0.900969
    outer loop
      vertex 3.19806 9.5 21.5
      vertex 3.19806 10.3678 21.9179
      vertex 0 11.0637 22.253
    endloop
  endfacet
  facet normal -2.00055e-16 -0.433884 0.900969
    outer loop
      vertex 0 11.0637 22.253
      vertex 3.19806 10.3678 21.9179
      vertex 4.07069 11.0637 22.253
    endloop
  endfacet
  facet normal -2.00055e-16 -0.433884 0.900969
    outer loop
      vertex 3.19806 9.5 21.5
      vertex 0 11.0637 22.253
      vertex 0 9.5 21.5
    endloop
  endfacet
  facet normal -2.00055e-16 0.433884 0.900969
    outer loop
      vertex 4.07069 7.93634 22.253
      vertex 3.19806 8.63223 21.9179
      vertex 0 9.5 21.5
    endloop
  endfacet
  facet normal -2.00055e-16 0.433884 0.900969
    outer loop
      vertex 0 9.5 21.5
      vertex 3.19806 8.63223 21.9179
      vertex 3.19806 9.5 21.5
    endloop
  endfacet
  facet normal -2.00055e-16 0.433884 0.900969
    outer loop
      vertex 4.07069 7.93634 22.253
      vertex 0 9.5 21.5
      vertex 0 7.93634 22.253
    endloop
  endfacet
  facet normal 1 0 0
    outer loop
      vertex 65 10.3678 3.19806
      vertex 65 0 0
      vertex 65 19 0
    endloop
  endfacet
  facet normal 1 0 0
    outer loop
      vertex 65 7.55014 23.055
      vertex 65 0 31.5
      vertex 65 19 0
    endloop
  endfacet
  facet normal 1 0 0
    outer loop
      vertex 65 9.5 25.5
      vertex 65 11.0637 24.747
      vertex 65 19 31.5
    endloop
  endfacet
  facet normal 1 0 0
    outer loop
      vertex 65 0 31.5
      vertex 65 0 0
      vertex 65 7.55014 4.55496
    endloop
  endfacet
  facet normal 1 0 0
    outer loop
      vertex 65 0 31.5
      vertex 65 7.55014 4.55496
      vertex 65 7.93634 6.24698
    endloop
  endfacet
  facet normal 1 0 0
    outer loop
      vertex 65 0 31.5
      vertex 65 7.93634 6.24698
      vertex 65 9.5 7
    endloop
  endfacet
  facet normal 1 0 0
    outer loop
      vertex 65 0 31.5
      vertex 65 11.0637 6.24698
      vertex 65 19 0
    endloop
  endfacet
  facet normal 1 0 0
    outer loop
      vertex 65 0 31.5
      vertex 65 9.5 7
      vertex 65 11.0637 6.24698
    endloop
  endfacet
  facet normal 1 0 0
    outer loop
      vertex 65 8.63223 3.19806
      vertex 65 0 0
      vertex 65 10.3678 3.19806
    endloop
  endfacet
  facet normal 1 0 0
    outer loop
      vertex 65 7.55014 4.55496
      vertex 65 0 0
      vertex 65 8.63223 3.19806
    endloop
  endfacet
  facet normal 1 0 0
    outer loop
      vertex 65 8.63223 21.6981
      vertex 65 7.55014 23.055
      vertex 65 19 0
    endloop
  endfacet
  facet normal 1 0 0
    outer loop
      vertex 65 7.93634 24.747
      vertex 65 0 31.5
      vertex 65 7.55014 23.055
    endloop
  endfacet
  facet normal 1 0 0
    outer loop
      vertex 65 19 31.5
      vertex 65 0 31.5
      vertex 65 7.93634 24.747
    endloop
  endfacet
  facet normal 1 0 0
    outer loop
      vertex 65 19 31.5
      vertex 65 7.93634 24.747
      vertex 65 9.5 25.5
    endloop
  endfacet
  facet normal 1 0 0
    outer loop
      vertex 65 19 31.5
      vertex 65 11.0637 24.747
      vertex 65 19 0
    endloop
  endfacet
  facet normal 1 0 0
    outer loop
      vertex 65 11.0637 24.747
      vertex 65 11.4499 23.055
      vertex 65 19 0
    endloop
  endfacet
  facet normal 1 0 0
    outer loop
      vertex 65 11.4499 23.055
      vertex 65 10.3678 21.6981
      vertex 65 19 0
    endloop
  endfacet
  facet normal 1 0 0
    outer loop
      vertex 65 10.3678 21.6981
      vertex 65 8.63223 21.6981
      vertex 65 19 0
    endloop
  endfacet
  facet normal 1 0 0
    outer loop
      vertex 65 11.0637 6.24698
      vertex 65 11.4499 4.55496
      vertex 65 19 0
    endloop
  endfacet
  facet normal 1 0 0
    outer loop
      vertex 65 11.4499 4.55496
      vertex 65 10.3678 3.19806
      vertex 65 19 0
    endloop
  endfacet
  facet normal 0.951057 -6.86155e-17 0.309017
    outer loop
      vertex 30.0729 0 11.2366
      vertex 30.0729 4.01639 11.2366
      vertex 29.5 4.39071 13
    endloop
  endfacet
  facet normal 0.951057 -6.86155e-17 0.309017
    outer loop
      vertex 29.5 0 13
      vertex 30.0729 0 11.2366
      vertex 29.5 4.39071 13
    endloop
  endfacet
  facet normal 0.587785 -1.79638e-16 0.809017
    outer loop
      vertex 31.5729 0 10.1468
      vertex 31.5729 3.62978 10.1468
      vertex 30.0898 4.00536 11.2244
    endloop
  endfacet
  facet normal 0.587785 -1.79638e-16 0.809017
    outer loop
      vertex 30.0729 4.01639 11.2366
      vertex 31.5729 0 10.1468
      vertex 30.0898 4.00536 11.2244
    endloop
  endfacet
  facet normal 0.587785 -1.79638e-16 0.809017
    outer loop
      vertex 30.0729 4.01639 11.2366
      vertex 30.0729 0 11.2366
      vertex 31.5729 0 10.1468
    endloop
  endfacet
  facet normal 0 -2.22045e-16 1
    outer loop
      vertex 33.4271 0 10.1468
      vertex 33.4271 3.63837 10.1468
      vertex 32.0045 3.52049 10.1468
    endloop
  endfacet
  facet normal 0 -2.22045e-16 1
    outer loop
      vertex 31.5729 3.62978 10.1468
      vertex 33.4271 0 10.1468
      vertex 32.0045 3.52049 10.1468
    endloop
  endfacet
  facet normal 0 -2.22045e-16 1
    outer loop
      vertex 31.5729 3.62978 10.1468
      vertex 31.5729 0 10.1468
      vertex 33.4271 0 10.1468
    endloop
  endfacet
  facet normal -0.587785 -1.79638e-16 0.809017
    outer loop
      vertex 34.9271 0 11.2366
      vertex 34.9271 4.10212 11.2366
      vertex 33.9729 3.6836 10.5434
    endloop
  endfacet
  facet normal -0.587785 -1.79638e-16 0.809017
    outer loop
      vertex 33.4271 3.63837 10.1468
      vertex 34.9271 0 11.2366
      vertex 33.9729 3.6836 10.5434
    endloop
  endfacet
  facet normal -0.587785 -1.79638e-16 0.809017
    outer loop
      vertex 33.4271 3.63837 10.1468
      vertex 33.4271 0 10.1468
      vertex 34.9271 0 11.2366
    endloop
  endfacet
  facet normal -0.951057 -6.86155e-17 0.309017
    outer loop
      vertex 35.5 4.35344 13
      vertex 34.9271 4.10212 11.2366
      vertex 35.5 0 13
    endloop
  endfacet
  facet normal -0.951057 -6.86155e-17 0.309017
    outer loop
      vertex 35.5 0 13
      vertex 34.9271 4.10212 11.2366
      vertex 34.9271 0 11.2366
    endloop
  endfacet
  facet normal -0.951057 6.86155e-17 -0.309017
    outer loop
      vertex 35.5 4.35344 13
      vertex 35.5 0 13
      vertex 34.9271 4.10212 14.7634
    endloop
  endfacet
  facet normal -0.951057 6.86155e-17 -0.309017
    outer loop
      vertex 34.9271 4.10212 14.7634
      vertex 35.5 0 13
      vertex 34.9271 0 14.7634
    endloop
  endfacet
  facet normal -0.587785 1.79638e-16 -0.809017
    outer loop
      vertex 33.9729 3.6836 15.4566
      vertex 34.9271 4.10212 14.7634
      vertex 34.9271 0 14.7634
    endloop
  endfacet
  facet normal -0.587785 1.79638e-16 -0.809017
    outer loop
      vertex 33.9729 3.6836 15.4566
      vertex 34.9271 0 14.7634
      vertex 33.4271 3.63837 15.8532
    endloop
  endfacet
  facet normal -0.587785 1.79638e-16 -0.809017
    outer loop
      vertex 34.9271 0 14.7634
      vertex 33.4271 0 15.8532
      vertex 33.4271 3.63837 15.8532
    endloop
  endfacet
  facet normal 0 2.22045e-16 -1
    outer loop
      vertex 32.0045 3.52049 15.8532
      vertex 33.4271 3.63837 15.8532
      vertex 33.4271 0 15.8532
    endloop
  endfacet
  facet normal 0 2.22045e-16 -1
    outer loop
      vertex 32.0045 3.52049 15.8532
      vertex 33.4271 0 15.8532
      vertex 31.5729 3.62978 15.8532
    endloop
  endfacet
  facet normal 0 2.22045e-16 -1
    outer loop
      vertex 33.4271 0 15.8532
      vertex 31.5729 0 15.8532
      vertex 31.5729 3.62978 15.8532
    endloop
  endfacet
  facet normal 0.587785 1.79638e-16 -0.809017
    outer loop
      vertex 30.0898 4.00536 14.7756
      vertex 31.5729 3.62978 15.8532
      vertex 31.5729 0 15.8532
    endloop
  endfacet
  facet normal 0.587785 1.79638e-16 -0.809017
    outer loop
      vertex 30.0898 4.00536 14.7756
      vertex 31.5729 0 15.8532
      vertex 30.0729 4.01639 14.7634
    endloop
  endfacet
  facet normal 0.587785 1.79638e-16 -0.809017
    outer loop
      vertex 31.5729 0 15.8532
      vertex 30.0729 0 14.7634
      vertex 30.0729 4.01639 14.7634
    endloop
  endfacet
  facet normal 0.951057 6.86155e-17 -0.309017
    outer loop
      vertex 29.5 4.39071 13
      vertex 30.0729 4.01639 14.7634
      vertex 30.0729 0 14.7634
    endloop
  endfacet
  facet normal 0.951057 6.86155e-17 -0.309017
    outer loop
      vertex 29.5 0 13
      vertex 29.5 4.39071 13
      vertex 30.0729 0 14.7634
    endloop
  endfacet
  facet normal 0.951057 -6.86155e-17 0.309017
    outer loop
      vertex 30.0729 0 23.7366
      vertex 30.0729 4.01639 23.7366
      vertex 29.5 4.39071 25.5
    endloop
  endfacet
  facet normal 0.951057 -6.86155e-17 0.309017
    outer loop
      vertex 29.5 0 25.5
      vertex 30.0729 0 23.7366
      vertex 29.5 4.39071 25.5
    endloop
  endfacet
  facet normal 0.587785 -1.79638e-16 0.809017
    outer loop
      vertex 31.5729 0 22.6468
      vertex 31.5729 3.62978 22.6468
      vertex 30.0898 4.00536 23.7244
    endloop
  endfacet
  facet normal 0.587785 -1.79638e-16 0.809017
    outer loop
      vertex 30.0729 4.01639 23.7366
      vertex 31.5729 0 22.6468
      vertex 30.0898 4.00536 23.7244
    endloop
  endfacet
  facet normal 0.587785 -1.79638e-16 0.809017
    outer loop
      vertex 30.0729 4.01639 23.7366
      vertex 30.0729 0 23.7366
      vertex 31.5729 0 22.6468
    endloop
  endfacet
  facet normal 0 -2.22045e-16 1
    outer loop
      vertex 33.4271 0 22.6468
      vertex 33.4271 3.63837 22.6468
      vertex 32.0045 3.52049 22.6468
    endloop
  endfacet
  facet normal 0 -2.22045e-16 1
    outer loop
      vertex 31.5729 3.62978 22.6468
      vertex 33.4271 0 22.6468
      vertex 32.0045 3.52049 22.6468
    endloop
  endfacet
  facet normal 0 -2.22045e-16 1
    outer loop
      vertex 31.5729 3.62978 22.6468
      vertex 31.5729 0 22.6468
      vertex 33.4271 0 22.6468
    endloop
  endfacet
  facet normal -0.587785 -1.79638e-16 0.809017
    outer loop
      vertex 34.9271 0 23.7366
      vertex 34.9271 4.10212 23.7366
      vertex 33.9729 3.6836 23.0434
    endloop
  endfacet
  facet normal -0.587785 -1.79638e-16 0.809017
    outer loop
      vertex 33.4271 3.63837 22.6468
      vertex 34.9271 0 23.7366
      vertex 33.9729 3.6836 23.0434
    endloop
  endfacet
  facet normal -0.587785 -1.79638e-16 0.809017
    outer loop
      vertex 33.4271 3.63837 22.6468
      vertex 33.4271 0 22.6468
      vertex 34.9271 0 23.7366
    endloop
  endfacet
  facet normal -0.951057 -6.86155e-17 0.309017
    outer loop
      vertex 35.5 4.35344 25.5
      vertex 34.9271 4.10212 23.7366
      vertex 35.5 0 25.5
    endloop
  endfacet
  facet normal -0.951057 -6.86155e-17 0.309017
    outer loop
      vertex 35.5 0 25.5
      vertex 34.9271 4.10212 23.7366
      vertex 34.9271 0 23.7366
    endloop
  endfacet
  facet normal -0.951057 6.86155e-17 -0.309017
    outer loop
      vertex 35.5 4.35344 25.5
      vertex 35.5 0 25.5
      vertex 34.9271 4.10212 27.2634
    endloop
  endfacet
  facet normal -0.951057 6.86155e-17 -0.309017
    outer loop
      vertex 34.9271 4.10212 27.2634
      vertex 35.5 0 25.5
      vertex 34.9271 0 27.2634
    endloop
  endfacet
  facet normal -0.587785 1.79638e-16 -0.809017
    outer loop
      vertex 33.9729 3.6836 27.9566
      vertex 34.9271 4.10212 27.2634
      vertex 34.9271 0 27.2634
    endloop
  endfacet
  facet normal -0.587785 1.79638e-16 -0.809017
    outer loop
      vertex 33.9729 3.6836 27.9566
      vertex 34.9271 0 27.2634
      vertex 33.4271 3.63837 28.3532
    endloop
  endfacet
  facet normal -0.587785 1.79638e-16 -0.809017
    outer loop
      vertex 34.9271 0 27.2634
      vertex 33.4271 0 28.3532
      vertex 33.4271 3.63837 28.3532
    endloop
  endfacet
  facet normal 0 2.22045e-16 -1
    outer loop
      vertex 32.0045 3.52049 28.3532
      vertex 33.4271 3.63837 28.3532
      vertex 33.4271 0 28.3532
    endloop
  endfacet
  facet normal 0 2.22045e-16 -1
    outer loop
      vertex 32.0045 3.52049 28.3532
      vertex 33.4271 0 28.3532
      vertex 31.5729 3.62978 28.3532
    endloop
  endfacet
  facet normal 0 2.22045e-16 -1
    outer loop
      vertex 33.4271 0 28.3532
      vertex 31.5729 0 28.3532
      vertex 31.5729 3.62978 28.3532
    endloop
  endfacet
  facet normal 0.587785 1.79638e-16 -0.809017
    outer loop
      vertex 30.0898 4.00536 27.2756
      vertex 31.5729 3.62978 28.3532
      vertex 31.5729 0 28.3532
    endloop
  endfacet
  facet normal 0.587785 1.79638e-16 -0.809017
    outer loop
      vertex 30.0898 4.00536 27.2756
      vertex 31.5729 0 28.3532
      vertex 30.0729 4.01639 27.2634
    endloop
  endfacet
  facet normal 0.587785 1.79638e-16 -0.809017
    outer loop
      vertex 31.5729 0 28.3532
      vertex 30.0729 0 27.2634
      vertex 30.0729 4.01639 27.2634
    endloop
  endfacet
  facet normal 0.951057 6.86155e-17 -0.309017
    outer loop
      vertex 29.5 4.39071 25.5
      vertex 30.0729 4.01639 27.2634
      vertex 30.0729 0 27.2634
    endloop
  endfacet
  facet normal 0.951057 6.86155e-17 -0.309017
    outer loop
      vertex 29.5 0 25.5
      vertex 29.5 4.39071 25.5
      vertex 30.0729 0 27.2634
    endloop
  endfacet
  facet normal 0.951057 -6.86155e-17 0.309017
    outer loop
      vertex 30.0729 14.9836 11.2366
      vertex 30.0729 19 11.2366
      vertex 29.5 19 13
    endloop
  endfacet
  facet normal 0.951057 -6.86155e-17 0.309017
    outer loop
      vertex 29.5 14.6093 13
      vertex 30.0729 14.9836 11.2366
      vertex 29.5 19 13
    endloop
  endfacet
  facet normal 0.951057 6.86155e-17 -0.309017
    outer loop
      vertex 29.5 19 13
      vertex 30.0729 19 14.7634
      vertex 30.0729 14.9836 14.7634
    endloop
  endfacet
  facet normal 0.951057 6.86155e-17 -0.309017
    outer loop
      vertex 29.5 14.6093 13
      vertex 29.5 19 13
      vertex 30.0729 14.9836 14.7634
    endloop
  endfacet
  facet normal 0.587785 1.79638e-16 -0.809017
    outer loop
      vertex 31.5729 19 15.8532
      vertex 31.5729 15.3702 15.8532
      vertex 30.0729 19 14.7634
    endloop
  endfacet
  facet normal 0.587785 1.79638e-16 -0.809017
    outer loop
      vertex 30.0729 19 14.7634
      vertex 31.5729 15.3702 15.8532
      vertex 30.0898 14.9946 14.7756
    endloop
  endfacet
  facet normal 0.587785 1.79638e-16 -0.809017
    outer loop
      vertex 30.0729 19 14.7634
      vertex 30.0898 14.9946 14.7756
      vertex 30.0729 14.9836 14.7634
    endloop
  endfacet
  facet normal 0 2.22045e-16 -1
    outer loop
      vertex 33.4271 19 15.8532
      vertex 33.4271 15.3616 15.8532
      vertex 31.5729 19 15.8532
    endloop
  endfacet
  facet normal 0 2.22045e-16 -1
    outer loop
      vertex 31.5729 19 15.8532
      vertex 33.4271 15.3616 15.8532
      vertex 32.0045 15.4795 15.8532
    endloop
  endfacet
  facet normal 0 2.22045e-16 -1
    outer loop
      vertex 31.5729 19 15.8532
      vertex 32.0045 15.4795 15.8532
      vertex 31.5729 15.3702 15.8532
    endloop
  endfacet
  facet normal -0.587785 1.79638e-16 -0.809017
    outer loop
      vertex 34.9271 19 14.7634
      vertex 34.9271 14.8979 14.7634
      vertex 33.4271 19 15.8532
    endloop
  endfacet
  facet normal -0.587785 1.79638e-16 -0.809017
    outer loop
      vertex 33.4271 19 15.8532
      vertex 34.9271 14.8979 14.7634
      vertex 33.9729 15.3164 15.4566
    endloop
  endfacet
  facet normal -0.587785 1.79638e-16 -0.809017
    outer loop
      vertex 33.4271 19 15.8532
      vertex 33.9729 15.3164 15.4566
      vertex 33.4271 15.3616 15.8532
    endloop
  endfacet
  facet normal -0.951057 6.86155e-17 -0.309017
    outer loop
      vertex 35.5 19 13
      vertex 35.5 14.6466 13
      vertex 34.9271 19 14.7634
    endloop
  endfacet
  facet normal -0.951057 6.86155e-17 -0.309017
    outer loop
      vertex 34.9271 19 14.7634
      vertex 35.5 14.6466 13
      vertex 34.9271 14.8979 14.7634
    endloop
  endfacet
  facet normal -0.951057 -6.86155e-17 0.309017
    outer loop
      vertex 35.5 19 13
      vertex 34.9271 19 11.2366
      vertex 35.5 14.6466 13
    endloop
  endfacet
  facet normal -0.951057 -6.86155e-17 0.309017
    outer loop
      vertex 35.5 14.6466 13
      vertex 34.9271 19 11.2366
      vertex 34.9271 14.8979 11.2366
    endloop
  endfacet
  facet normal -0.587785 -1.79638e-16 0.809017
    outer loop
      vertex 33.9729 15.3164 10.5434
      vertex 34.9271 14.8979 11.2366
      vertex 34.9271 19 11.2366
    endloop
  endfacet
  facet normal -0.587785 -1.79638e-16 0.809017
    outer loop
      vertex 33.4271 15.3616 10.1468
      vertex 33.9729 15.3164 10.5434
      vertex 33.4271 19 10.1468
    endloop
  endfacet
  facet normal -0.587785 -1.79638e-16 0.809017
    outer loop
      vertex 33.4271 19 10.1468
      vertex 33.9729 15.3164 10.5434
      vertex 34.9271 19 11.2366
    endloop
  endfacet
  facet normal 0 -2.22045e-16 1
    outer loop
      vertex 32.0045 15.4795 10.1468
      vertex 33.4271 15.3616 10.1468
      vertex 33.4271 19 10.1468
    endloop
  endfacet
  facet normal 0 -2.22045e-16 1
    outer loop
      vertex 31.5729 15.3702 10.1468
      vertex 32.0045 15.4795 10.1468
      vertex 31.5729 19 10.1468
    endloop
  endfacet
  facet normal 0 -2.22045e-16 1
    outer loop
      vertex 31.5729 19 10.1468
      vertex 32.0045 15.4795 10.1468
      vertex 33.4271 19 10.1468
    endloop
  endfacet
  facet normal 0.587785 -1.79638e-16 0.809017
    outer loop
      vertex 30.0898 14.9946 11.2244
      vertex 31.5729 15.3702 10.1468
      vertex 31.5729 19 10.1468
    endloop
  endfacet
  facet normal 0.587785 -1.79638e-16 0.809017
    outer loop
      vertex 30.0729 14.9836 11.2366
      vertex 30.0898 14.9946 11.2244
      vertex 30.0729 19 11.2366
    endloop
  endfacet
  facet normal 0.587785 -1.79638e-16 0.809017
    outer loop
      vertex 30.0729 19 11.2366
      vertex 30.0898 14.9946 11.2244
      vertex 31.5729 19 10.1468
    endloop
  endfacet
  facet normal 0.951057 -6.86155e-17 0.309017
    outer loop
      vertex 30.0729 14.9836 23.7366
      vertex 30.0729 19 23.7366
      vertex 29.5 19 25.5
    endloop
  endfacet
  facet normal 0.951057 -6.86155e-17 0.309017
    outer loop
      vertex 29.5 14.6093 25.5
      vertex 30.0729 14.9836 23.7366
      vertex 29.5 19 25.5
    endloop
  endfacet
  facet normal 0.951057 6.86155e-17 -0.309017
    outer loop
      vertex 29.5 19 25.5
      vertex 30.0729 19 27.2634
      vertex 30.0729 14.9836 27.2634
    endloop
  endfacet
  facet normal 0.951057 6.86155e-17 -0.309017
    outer loop
      vertex 29.5 14.6093 25.5
      vertex 29.5 19 25.5
      vertex 30.0729 14.9836 27.2634
    endloop
  endfacet
  facet normal 0.587785 1.79638e-16 -0.809017
    outer loop
      vertex 31.5729 19 28.3532
      vertex 31.5729 15.3702 28.3532
      vertex 30.0729 19 27.2634
    endloop
  endfacet
  facet normal 0.587785 1.79638e-16 -0.809017
    outer loop
      vertex 30.0729 19 27.2634
      vertex 31.5729 15.3702 28.3532
      vertex 30.0898 14.9946 27.2756
    endloop
  endfacet
  facet normal 0.587785 1.79638e-16 -0.809017
    outer loop
      vertex 30.0729 19 27.2634
      vertex 30.0898 14.9946 27.2756
      vertex 30.0729 14.9836 27.2634
    endloop
  endfacet
  facet normal 0 2.22045e-16 -1
    outer loop
      vertex 33.4271 19 28.3532
      vertex 33.4271 15.3616 28.3532
      vertex 31.5729 19 28.3532
    endloop
  endfacet
  facet normal 0 2.22045e-16 -1
    outer loop
      vertex 31.5729 19 28.3532
      vertex 33.4271 15.3616 28.3532
      vertex 32.0045 15.4795 28.3532
    endloop
  endfacet
  facet normal 0 2.22045e-16 -1
    outer loop
      vertex 31.5729 19 28.3532
      vertex 32.0045 15.4795 28.3532
      vertex 31.5729 15.3702 28.3532
    endloop
  endfacet
  facet normal -0.587785 1.79638e-16 -0.809017
    outer loop
      vertex 34.9271 19 27.2634
      vertex 34.9271 14.8979 27.2634
      vertex 33.4271 19 28.3532
    endloop
  endfacet
  facet normal -0.587785 1.79638e-16 -0.809017
    outer loop
      vertex 33.4271 19 28.3532
      vertex 34.9271 14.8979 27.2634
      vertex 33.9729 15.3164 27.9566
    endloop
  endfacet
  facet normal -0.587785 1.79638e-16 -0.809017
    outer loop
      vertex 33.4271 19 28.3532
      vertex 33.9729 15.3164 27.9566
      vertex 33.4271 15.3616 28.3532
    endloop
  endfacet
  facet normal -0.951057 6.86155e-17 -0.309017
    outer loop
      vertex 35.5 19 25.5
      vertex 35.5 14.6466 25.5
      vertex 34.9271 19 27.2634
    endloop
  endfacet
  facet normal -0.951057 6.86155e-17 -0.309017
    outer loop
      vertex 34.9271 19 27.2634
      vertex 35.5 14.6466 25.5
      vertex 34.9271 14.8979 27.2634
    endloop
  endfacet
  facet normal -0.951057 -6.86155e-17 0.309017
    outer loop
      vertex 35.5 19 25.5
      vertex 34.9271 19 23.7366
      vertex 35.5 14.6466 25.5
    endloop
  endfacet
  facet normal -0.951057 -6.86155e-17 0.309017
    outer loop
      vertex 35.5 14.6466 25.5
      vertex 34.9271 19 23.7366
      vertex 34.9271 14.8979 23.7366
    endloop
  endfacet
  facet normal -0.587785 -1.79638e-16 0.809017
    outer loop
      vertex 33.9729 15.3164 23.0434
      vertex 34.9271 14.8979 23.7366
      vertex 34.9271 19 23.7366
    endloop
  endfacet
  facet normal -0.587785 -1.79638e-16 0.809017
    outer loop
      vertex 33.4271 15.3616 22.6468
      vertex 33.9729 15.3164 23.0434
      vertex 33.4271 19 22.6468
    endloop
  endfacet
  facet normal -0.587785 -1.79638e-16 0.809017
    outer loop
      vertex 33.4271 19 22.6468
      vertex 33.9729 15.3164 23.0434
      vertex 34.9271 19 23.7366
    endloop
  endfacet
  facet normal 0 -2.22045e-16 1
    outer loop
      vertex 32.0045 15.4795 22.6468
      vertex 33.4271 15.3616 22.6468
      vertex 33.4271 19 22.6468
    endloop
  endfacet
  facet normal 0 -2.22045e-16 1
    outer loop
      vertex 31.5729 15.3702 22.6468
      vertex 32.0045 15.4795 22.6468
      vertex 31.5729 19 22.6468
    endloop
  endfacet
  facet normal 0 -2.22045e-16 1
    outer loop
      vertex 31.5729 19 22.6468
      vertex 32.0045 15.4795 22.6468
      vertex 33.4271 19 22.6468
    endloop
  endfacet
  facet normal 0.587785 -1.79638e-16 0.809017
    outer loop
      vertex 30.0898 14.9946 23.7244
      vertex 31.5729 15.3702 22.6468
      vertex 31.5729 19 22.6468
    endloop
  endfacet
  facet normal 0.587785 -1.79638e-16 0.809017
    outer loop
      vertex 30.0729 14.9836 23.7366
      vertex 30.0898 14.9946 23.7244
      vertex 30.0729 19 23.7366
    endloop
  endfacet
  facet normal 0.587785 -1.79638e-16 0.809017
    outer loop
      vertex 30.0729 19 23.7366
      vertex 30.0898 14.9946 23.7244
      vertex 31.5729 19 22.6468
    endloop
  endfacet
  facet normal 1 0 0
    outer loop
      vertex 3.19806 10.3678 25.3019
      vertex 3.19806 10.3678 31.5
      vertex 3.19806 8.63223 31.5
    endloop
  endfacet
  facet normal 1 0 0
    outer loop
      vertex 3.19806 8.63223 25.3019
      vertex 3.19806 10.3678 25.3019
      vertex 3.19806 8.63223 31.5
    endloop
  endfacet
  facet normal 0.62349 0.781831 0
    outer loop
      vertex 4.55496 7.55014 31.5
      vertex 4.55496 7.55014 23.945
      vertex 3.19806 8.63223 31.5
    endloop
  endfacet
  facet normal 0.62349 0.781831 0
    outer loop
      vertex 3.19806 8.63223 31.5
      vertex 4.55496 7.55014 23.945
      vertex 3.19806 8.63223 25.3019
    endloop
  endfacet
  facet normal -0.222521 0.974928 0
    outer loop
      vertex 6.24698 7.93634 31.5
      vertex 6.24698 7.93634 24.4293
      vertex 4.55496 7.55014 31.5
    endloop
  endfacet
  facet normal -0.222521 0.974928 0
    outer loop
      vertex 4.55496 7.55014 31.5
      vertex 6.24698 7.93634 24.4293
      vertex 4.55496 7.55014 23.945
    endloop
  endfacet
  facet normal -0.900969 0.433884 0
    outer loop
      vertex 7 9.5 31.5
      vertex 7 9.5 25.3019
      vertex 6.24698 7.93634 31.5
    endloop
  endfacet
  facet normal -0.900969 0.433884 0
    outer loop
      vertex 6.24698 7.93634 31.5
      vertex 7 9.5 25.3019
      vertex 6.58211 8.63223 25.3019
    endloop
  endfacet
  facet normal -0.900969 0.433884 0
    outer loop
      vertex 6.24698 7.93634 31.5
      vertex 6.58211 8.63223 25.3019
      vertex 6.24698 7.93634 24.4293
    endloop
  endfacet
  facet normal -0.900969 -0.433884 0
    outer loop
      vertex 7 9.5 25.3019
      vertex 7 9.5 31.5
      vertex 6.58211 10.3678 25.3019
    endloop
  endfacet
  facet normal -0.900969 -0.433884 0
    outer loop
      vertex 6.58211 10.3678 25.3019
      vertex 7 9.5 31.5
      vertex 6.24698 11.0637 31.5
    endloop
  endfacet
  facet normal -0.900969 -0.433884 0
    outer loop
      vertex 6.58211 10.3678 25.3019
      vertex 6.24698 11.0637 31.5
      vertex 6.24698 11.0637 24.4293
    endloop
  endfacet
  facet normal -0.222521 -0.974928 0
    outer loop
      vertex 6.24698 11.0637 24.4293
      vertex 6.24698 11.0637 31.5
      vertex 4.55496 11.4499 31.5
    endloop
  endfacet
  facet normal -0.222521 -0.974928 0
    outer loop
      vertex 4.55496 11.4499 23.945
      vertex 6.24698 11.0637 24.4293
      vertex 4.55496 11.4499 31.5
    endloop
  endfacet
  facet normal 0.62349 -0.781831 0
    outer loop
      vertex 4.55496 11.4499 23.945
      vertex 4.55496 11.4499 31.5
      vertex 3.19806 10.3678 31.5
    endloop
  endfacet
  facet normal 0.62349 -0.781831 0
    outer loop
      vertex 3.19806 10.3678 25.3019
      vertex 4.55496 11.4499 23.945
      vertex 3.19806 10.3678 31.5
    endloop
  endfacet
  facet normal 1 0 0
    outer loop
      vertex 26.5818 10.4876 7.5
      vertex 26.5818 10.4876 31.5
      vertex 26.5818 8.51243 31.5
    endloop
  endfacet
  facet normal 1 0 0
    outer loop
      vertex 26.5818 8.51243 7.5
      vertex 26.5818 10.4876 7.5
      vertex 26.5818 8.51243 31.5
    endloop
  endfacet
  facet normal 0.945817 0.324699 0
    outer loop
      vertex 26.5818 8.51243 31.5
      vertex 27.2232 6.64432 31.5
      vertex 27.2232 6.64432 7.5
    endloop
  endfacet
  facet normal 0.945817 0.324699 0
    outer loop
      vertex 26.5818 8.51243 7.5
      vertex 26.5818 8.51243 31.5
      vertex 27.2232 6.64432 7.5
    endloop
  endfacet
  facet normal 0.78914 0.614213 0
    outer loop
      vertex 27.2232 6.64432 31.5
      vertex 28.4363 5.08566 31.5
      vertex 28.4363 5.08566 7.5
    endloop
  endfacet
  facet normal 0.78914 0.614213 0
    outer loop
      vertex 27.2232 6.64432 7.5
      vertex 27.2232 6.64432 31.5
      vertex 28.4363 5.08566 7.5
    endloop
  endfacet
  facet normal 0.546949 0.837166 0
    outer loop
      vertex 30.0898 4.00536 31.5
      vertex 30.0898 4.00536 27.2756
      vertex 28.4363 5.08566 31.5
    endloop
  endfacet
  facet normal 0.546949 0.837166 0
    outer loop
      vertex 28.4363 5.08566 31.5
      vertex 30.0898 4.00536 27.2756
      vertex 30.0729 4.01639 27.2634
    endloop
  endfacet
  facet normal 0.546949 0.837166 0
    outer loop
      vertex 28.4363 5.08566 31.5
      vertex 30.0729 4.01639 27.2634
      vertex 29.5 4.39071 25.5
    endloop
  endfacet
  facet normal 0.546949 0.837166 0
    outer loop
      vertex 29.5 4.39071 25.5
      vertex 30.0898 4.00536 14.7756
      vertex 28.4363 5.08566 31.5
    endloop
  endfacet
  facet normal 0.546949 0.837166 0
    outer loop
      vertex 30.0729 4.01639 23.7366
      vertex 30.0898 4.00536 23.7244
      vertex 30.0898 4.00536 14.7756
    endloop
  endfacet
  facet normal 0.546949 0.837166 0
    outer loop
      vertex 30.0729 4.01639 23.7366
      vertex 30.0898 4.00536 14.7756
      vertex 29.5 4.39071 25.5
    endloop
  endfacet
  facet normal 0.546949 0.837166 0
    outer loop
      vertex 28.4363 5.08566 31.5
      vertex 30.0898 4.00536 14.7756
      vertex 30.0729 4.01639 14.7634
    endloop
  endfacet
  facet normal 0.546949 0.837166 0
    outer loop
      vertex 28.4363 5.08566 31.5
      vertex 30.0729 4.01639 14.7634
      vertex 29.5 4.39071 13
    endloop
  endfacet
  facet normal 0.546949 0.837166 0
    outer loop
      vertex 30.0729 4.01639 11.2366
      vertex 30.0898 4.00536 11.2244
      vertex 30.0898 4.00536 7.5
    endloop
  endfacet
  facet normal 0.546949 0.837166 0
    outer loop
      vertex 30.0729 4.01639 11.2366
      vertex 30.0898 4.00536 7.5
      vertex 29.5 4.39071 13
    endloop
  endfacet
  facet normal 0.546949 0.837166 0
    outer loop
      vertex 29.5 4.39071 13
      vertex 30.0898 4.00536 7.5
      vertex 28.4363 5.08566 7.5
    endloop
  endfacet
  facet normal 0.546949 0.837166 0
    outer loop
      vertex 29.5 4.39071 13
      vertex 28.4363 5.08566 7.5
      vertex 28.4363 5.08566 31.5
    endloop
  endfacet
  facet normal 0.245485 0.9694 0
    outer loop
      vertex 32.0045 3.52049 31.5
      vertex 32.0045 3.52049 28.3532
      vertex 30.0898 4.00536 31.5
    endloop
  endfacet
  facet normal 0.245485 0.9694 0
    outer loop
      vertex 30.0898 4.00536 31.5
      vertex 32.0045 3.52049 28.3532
      vertex 31.5729 3.62978 28.3532
    endloop
  endfacet
  facet normal 0.245485 0.9694 0
    outer loop
      vertex 30.0898 4.00536 31.5
      vertex 31.5729 3.62978 28.3532
      vertex 30.0898 4.00536 27.2756
    endloop
  endfacet
  facet normal -0.0825792 0.996585 0
    outer loop
      vertex 33.9729 3.6836 31.5
      vertex 33.9729 3.6836 27.9566
      vertex 32.0045 3.52049 31.5
    endloop
  endfacet
  facet normal -0.0825792 0.996585 0
    outer loop
      vertex 32.0045 3.52049 31.5
      vertex 33.9729 3.6836 27.9566
      vertex 33.4271 3.63837 28.3532
    endloop
  endfacet
  facet normal -0.0825792 0.996585 0
    outer loop
      vertex 32.0045 3.52049 31.5
      vertex 33.4271 3.63837 28.3532
      vertex 32.0045 3.52049 28.3532
    endloop
  endfacet
  facet normal -0.401696 0.915773 0
    outer loop
      vertex 34.9271 4.10212 11.2366
      vertex 35.7817 4.477 7.5
      vertex 33.9729 3.6836 10.5434
    endloop
  endfacet
  facet normal -0.401696 0.915773 0
    outer loop
      vertex 34.9271 4.10212 23.7366
      vertex 35.5 4.35344 13
      vertex 33.9729 3.6836 23.0434
    endloop
  endfacet
  facet normal -0.401696 0.915773 0
    outer loop
      vertex 33.9729 3.6836 23.0434
      vertex 34.9271 4.10212 14.7634
      vertex 33.9729 3.6836 15.4566
    endloop
  endfacet
  facet normal -0.401696 0.915773 0
    outer loop
      vertex 35.5 4.35344 13
      vertex 34.9271 4.10212 14.7634
      vertex 33.9729 3.6836 23.0434
    endloop
  endfacet
  facet normal -0.401696 0.915773 0
    outer loop
      vertex 35.7817 4.477 7.5
      vertex 35.5 4.35344 13
      vertex 35.7817 4.477 31.5
    endloop
  endfacet
  facet normal -0.401696 0.915773 0
    outer loop
      vertex 35.5 4.35344 13
      vertex 34.9271 4.10212 23.7366
      vertex 35.5 4.35344 25.5
    endloop
  endfacet
  facet normal -0.401696 0.915773 0
    outer loop
      vertex 35.7817 4.477 31.5
      vertex 35.5 4.35344 25.5
      vertex 33.9729 3.6836 31.5
    endloop
  endfacet
  facet normal -0.401696 0.915773 0
    outer loop
      vertex 33.9729 3.6836 31.5
      vertex 34.9271 4.10212 27.2634
      vertex 33.9729 3.6836 27.9566
    endloop
  endfacet
  facet normal -0.401696 0.915773 0
    outer loop
      vertex 35.5 4.35344 25.5
      vertex 34.9271 4.10212 27.2634
      vertex 33.9729 3.6836 31.5
    endloop
  endfacet
  facet normal -0.401696 0.915773 0
    outer loop
      vertex 35.5 4.35344 13
      vertex 35.5 4.35344 25.5
      vertex 35.7817 4.477 31.5
    endloop
  endfacet
  facet normal -0.401696 0.915773 0
    outer loop
      vertex 34.9271 4.10212 11.2366
      vertex 35.5 4.35344 13
      vertex 35.7817 4.477 7.5
    endloop
  endfacet
  facet normal -0.401696 0.915773 0
    outer loop
      vertex 35.7817 4.477 7.5
      vertex 33.9729 3.6836 7.5
      vertex 33.9729 3.6836 10.5434
    endloop
  endfacet
  facet normal -0.677282 0.735724 0
    outer loop
      vertex 37.2348 5.81472 31.5
      vertex 37.2348 5.81472 7.5
      vertex 35.7817 4.477 31.5
    endloop
  endfacet
  facet normal -0.677282 0.735724 0
    outer loop
      vertex 35.7817 4.477 31.5
      vertex 37.2348 5.81472 7.5
      vertex 35.7817 4.477 7.5
    endloop
  endfacet
  facet normal -0.879474 0.475947 0
    outer loop
      vertex 38.1749 7.5518 31.5
      vertex 38.1749 7.5518 7.5
      vertex 37.2348 5.81472 31.5
    endloop
  endfacet
  facet normal -0.879474 0.475947 0
    outer loop
      vertex 37.2348 5.81472 31.5
      vertex 38.1749 7.5518 7.5
      vertex 37.2348 5.81472 7.5
    endloop
  endfacet
  facet normal -0.986361 0.164595 0
    outer loop
      vertex 38.5 9.5 31.5
      vertex 38.5 9.5 7.5
      vertex 38.1749 7.5518 31.5
    endloop
  endfacet
  facet normal -0.986361 0.164595 0
    outer loop
      vertex 38.1749 7.5518 31.5
      vertex 38.5 9.5 7.5
      vertex 38.1749 7.5518 7.5
    endloop
  endfacet
  facet normal -0.986361 -0.164595 0
    outer loop
      vertex 38.5 9.5 31.5
      vertex 38.1749 11.4482 31.5
      vertex 38.5 9.5 7.5
    endloop
  endfacet
  facet normal -0.986361 -0.164595 0
    outer loop
      vertex 38.5 9.5 7.5
      vertex 38.1749 11.4482 31.5
      vertex 38.1749 11.4482 7.5
    endloop
  endfacet
  facet normal -0.879474 -0.475947 0
    outer loop
      vertex 38.1749 11.4482 31.5
      vertex 37.2348 13.1853 31.5
      vertex 38.1749 11.4482 7.5
    endloop
  endfacet
  facet normal -0.879474 -0.475947 0
    outer loop
      vertex 38.1749 11.4482 7.5
      vertex 37.2348 13.1853 31.5
      vertex 37.2348 13.1853 7.5
    endloop
  endfacet
  facet normal -0.677282 -0.735724 0
    outer loop
      vertex 37.2348 13.1853 7.5
      vertex 37.2348 13.1853 31.5
      vertex 35.7817 14.523 31.5
    endloop
  endfacet
  facet normal -0.677282 -0.735724 0
    outer loop
      vertex 35.7817 14.523 7.5
      vertex 37.2348 13.1853 7.5
      vertex 35.7817 14.523 31.5
    endloop
  endfacet
  facet normal -0.401696 -0.915773 0
    outer loop
      vertex 34.9271 14.8979 27.2634
      vertex 35.7817 14.523 31.5
      vertex 33.9729 15.3164 31.5
    endloop
  endfacet
  facet normal -0.401696 -0.915773 0
    outer loop
      vertex 35.5 14.6466 25.5
      vertex 34.9271 14.8979 23.7366
      vertex 35.5 14.6466 13
    endloop
  endfacet
  facet normal -0.401696 -0.915773 0
    outer loop
      vertex 35.5 14.6466 25.5
      vertex 35.7817 14.523 31.5
      vertex 34.9271 14.8979 27.2634
    endloop
  endfacet
  facet normal -0.401696 -0.915773 0
    outer loop
      vertex 34.9271 14.8979 14.7634
      vertex 35.5 14.6466 13
      vertex 34.9271 14.8979 23.7366
    endloop
  endfacet
  facet normal -0.401696 -0.915773 0
    outer loop
      vertex 35.7817 14.523 7.5
      vertex 35.7817 14.523 31.5
      vertex 35.5 14.6466 25.5
    endloop
  endfacet
  facet normal -0.401696 -0.915773 0
    outer loop
      vertex 35.5 14.6466 25.5
      vertex 35.5 14.6466 13
      vertex 35.7817 14.523 7.5
    endloop
  endfacet
  facet normal -0.401696 -0.915773 0
    outer loop
      vertex 35.5 14.6466 13
      vertex 34.9271 14.8979 11.2366
      vertex 35.7817 14.523 7.5
    endloop
  endfacet
  facet normal -0.401696 -0.915773 0
    outer loop
      vertex 33.9729 15.3164 15.4566
      vertex 34.9271 14.8979 14.7634
      vertex 33.9729 15.3164 23.0434
    endloop
  endfacet
  facet normal -0.401696 -0.915773 0
    outer loop
      vertex 33.9729 15.3164 10.5434
      vertex 35.7817 14.523 7.5
      vertex 34.9271 14.8979 11.2366
    endloop
  endfacet
  facet normal -0.401696 -0.915773 0
    outer loop
      vertex 33.9729 15.3164 7.5
      vertex 35.7817 14.523 7.5
      vertex 33.9729 15.3164 10.5434
    endloop
  endfacet
  facet normal -0.401696 -0.915773 0
    outer loop
      vertex 34.9271 14.8979 14.7634
      vertex 34.9271 14.8979 23.7366
      vertex 33.9729 15.3164 23.0434
    endloop
  endfacet
  facet normal -0.401696 -0.915773 0
    outer loop
      vertex 33.9729 15.3164 27.9566
      vertex 34.9271 14.8979 27.2634
      vertex 33.9729 15.3164 31.5
    endloop
  endfacet
  facet normal -0.0825792 -0.996585 0
    outer loop
      vertex 33.4271 15.3616 28.3532
      vertex 33.9729 15.3164 27.9566
      vertex 33.9729 15.3164 31.5
    endloop
  endfacet
  facet normal -0.0825792 -0.996585 0
    outer loop
      vertex 32.0045 15.4795 28.3532
      vertex 33.4271 15.3616 28.3532
      vertex 32.0045 15.4795 31.5
    endloop
  endfacet
  facet normal -0.0825792 -0.996585 0
    outer loop
      vertex 32.0045 15.4795 31.5
      vertex 33.4271 15.3616 28.3532
      vertex 33.9729 15.3164 31.5
    endloop
  endfacet
  facet normal 0.245485 -0.9694 0
    outer loop
      vertex 31.5729 15.3702 28.3532
      vertex 32.0045 15.4795 28.3532
      vertex 32.0045 15.4795 31.5
    endloop
  endfacet
  facet normal 0.245485 -0.9694 0
    outer loop
      vertex 30.0898 14.9946 27.2756
      vertex 31.5729 15.3702 28.3532
      vertex 30.0898 14.9946 31.5
    endloop
  endfacet
  facet normal 0.245485 -0.9694 0
    outer loop
      vertex 30.0898 14.9946 31.5
      vertex 31.5729 15.3702 28.3532
      vertex 32.0045 15.4795 31.5
    endloop
  endfacet
  facet normal 0.546949 -0.837166 0
    outer loop
      vertex 29.5 14.6093 13
      vertex 28.4363 13.9143 7.5
      vertex 30.0898 14.9946 7.5
    endloop
  endfacet
  facet normal 0.546949 -0.837166 0
    outer loop
      vertex 30.0898 14.9946 7.5
      vertex 30.0898 14.9946 11.2244
      vertex 30.0729 14.9836 11.2366
    endloop
  endfacet
  facet normal 0.546949 -0.837166 0
    outer loop
      vertex 30.0729 14.9836 14.7634
      vertex 30.0898 14.9946 23.7244
      vertex 29.5 14.6093 13
    endloop
  endfacet
  facet normal 0.546949 -0.837166 0
    outer loop
      vertex 29.5 14.6093 13
      vertex 30.0898 14.9946 7.5
      vertex 30.0729 14.9836 11.2366
    endloop
  endfacet
  facet normal 0.546949 -0.837166 0
    outer loop
      vertex 30.0729 14.9836 23.7366
      vertex 29.5 14.6093 25.5
      vertex 29.5 14.6093 13
    endloop
  endfacet
  facet normal 0.546949 -0.837166 0
    outer loop
      vertex 30.0898 14.9946 14.7756
      vertex 30.0898 14.9946 23.7244
      vertex 30.0729 14.9836 14.7634
    endloop
  endfacet
  facet normal 0.546949 -0.837166 0
    outer loop
      vertex 30.0898 14.9946 23.7244
      vertex 30.0729 14.9836 23.7366
      vertex 29.5 14.6093 13
    endloop
  endfacet
  facet normal 0.546949 -0.837166 0
    outer loop
      vertex 29.5 14.6093 25.5
      vertex 28.4363 13.9143 31.5
      vertex 29.5 14.6093 13
    endloop
  endfacet
  facet normal 0.546949 -0.837166 0
    outer loop
      vertex 30.0729 14.9836 27.2634
      vertex 30.0898 14.9946 31.5
      vertex 29.5 14.6093 25.5
    endloop
  endfacet
  facet normal 0.546949 -0.837166 0
    outer loop
      vertex 30.0898 14.9946 27.2756
      vertex 30.0898 14.9946 31.5
      vertex 30.0729 14.9836 27.2634
    endloop
  endfacet
  facet normal 0.546949 -0.837166 0
    outer loop
      vertex 30.0898 14.9946 31.5
      vertex 28.4363 13.9143 31.5
      vertex 29.5 14.6093 25.5
    endloop
  endfacet
  facet normal 0.546949 -0.837166 0
    outer loop
      vertex 28.4363 13.9143 31.5
      vertex 28.4363 13.9143 7.5
      vertex 29.5 14.6093 13
    endloop
  endfacet
  facet normal 0.78914 -0.614213 0
    outer loop
      vertex 28.4363 13.9143 7.5
      vertex 28.4363 13.9143 31.5
      vertex 27.2232 12.3557 31.5
    endloop
  endfacet
  facet normal 0.78914 -0.614213 0
    outer loop
      vertex 27.2232 12.3557 7.5
      vertex 28.4363 13.9143 7.5
      vertex 27.2232 12.3557 31.5
    endloop
  endfacet
  facet normal 0.945817 -0.324699 0
    outer loop
      vertex 27.2232 12.3557 7.5
      vertex 27.2232 12.3557 31.5
      vertex 26.5818 10.4876 31.5
    endloop
  endfacet
  facet normal 0.945817 -0.324699 0
    outer loop
      vertex 26.5818 10.4876 7.5
      vertex 27.2232 12.3557 7.5
      vertex 26.5818 10.4876 31.5
    endloop
  endfacet
  facet normal 1 0 0
    outer loop
      vertex 58.1981 9.5 25.5
      vertex 58.1981 10.3678 25.0821
      vertex 58.1981 10.3678 31.5
    endloop
  endfacet
  facet normal 1 0 0
    outer loop
      vertex 58.1981 8.63223 25.0821
      vertex 58.1981 9.5 25.5
      vertex 58.1981 8.63223 31.5
    endloop
  endfacet
  facet normal 1 0 0
    outer loop
      vertex 58.1981 8.63223 31.5
      vertex 58.1981 9.5 25.5
      vertex 58.1981 10.3678 31.5
    endloop
  endfacet
  facet normal 0.62349 0.781831 0
    outer loop
      vertex 59.555 7.55014 31.5
      vertex 59.555 7.55014 23.055
      vertex 58.1981 8.63223 31.5
    endloop
  endfacet
  facet normal 0.62349 0.781831 0
    outer loop
      vertex 58.1981 8.63223 31.5
      vertex 59.555 7.55014 23.055
      vertex 59.0707 7.93634 24.747
    endloop
  endfacet
  facet normal 0.62349 0.781831 0
    outer loop
      vertex 58.1981 8.63223 31.5
      vertex 59.0707 7.93634 24.747
      vertex 58.1981 8.63223 25.0821
    endloop
  endfacet
  facet normal -0.222521 0.974928 0
    outer loop
      vertex 61.247 7.93634 31.5
      vertex 61.247 7.93634 24.747
      vertex 59.555 7.55014 31.5
    endloop
  endfacet
  facet normal -0.222521 0.974928 0
    outer loop
      vertex 59.555 7.55014 31.5
      vertex 61.247 7.93634 24.747
      vertex 59.555 7.55014 23.055
    endloop
  endfacet
  facet normal -0.900969 0.433884 0
    outer loop
      vertex 62 9.5 31.5
      vertex 62 9.5 25.5
      vertex 61.247 7.93634 31.5
    endloop
  endfacet
  facet normal -0.900969 0.433884 0
    outer loop
      vertex 61.247 7.93634 31.5
      vertex 62 9.5 25.5
      vertex 61.247 7.93634 24.747
    endloop
  endfacet
  facet normal -0.900969 -0.433884 0
    outer loop
      vertex 62 9.5 31.5
      vertex 61.247 11.0637 31.5
      vertex 62 9.5 25.5
    endloop
  endfacet
  facet normal -0.900969 -0.433884 0
    outer loop
      vertex 62 9.5 25.5
      vertex 61.247 11.0637 31.5
      vertex 61.247 11.0637 24.747
    endloop
  endfacet
  facet normal -0.222521 -0.974928 0
    outer loop
      vertex 61.247 11.0637 24.747
      vertex 61.247 11.0637 31.5
      vertex 59.555 11.4499 31.5
    endloop
  endfacet
  facet normal -0.222521 -0.974928 0
    outer loop
      vertex 59.555 11.4499 23.055
      vertex 61.247 11.0637 24.747
      vertex 59.555 11.4499 31.5
    endloop
  endfacet
  facet normal 0.62349 -0.781831 0
    outer loop
      vertex 59.0707 11.0637 24.747
      vertex 59.555 11.4499 23.055
      vertex 59.555 11.4499 31.5
    endloop
  endfacet
  facet normal 0.62349 -0.781831 0
    outer loop
      vertex 58.1981 10.3678 25.0821
      vertex 59.0707 11.0637 24.747
      vertex 58.1981 10.3678 31.5
    endloop
  endfacet
  facet normal 0.62349 -0.781831 0
    outer loop
      vertex 58.1981 10.3678 31.5
      vertex 59.0707 11.0637 24.747
      vertex 59.555 11.4499 31.5
    endloop
  endfacet
  facet normal -1 0 -2.22045e-16
    outer loop
      vertex 9.9 11.4499 5.44504
      vertex 9.9 11.0637 3.75302
      vertex 9.9 10.3678 6.80194
    endloop
  endfacet
  facet normal -1 0 -2.22045e-16
    outer loop
      vertex 9.9 10.3678 6.80194
      vertex 9.9 11.0637 3.75302
      vertex 9.9 9.5 3
    endloop
  endfacet
  facet normal -1 0 -2.22045e-16
    outer loop
      vertex 9.9 10.3678 6.80194
      vertex 9.9 9.5 3
      vertex 9.9 7.93634 3.75302
    endloop
  endfacet
  facet normal -1 0 -2.22045e-16
    outer loop
      vertex 9.9 10.3678 6.80194
      vertex 9.9 7.93634 3.75302
      vertex 9.9 7.55014 5.44504
    endloop
  endfacet
  facet normal -1 0 -2.22045e-16
    outer loop
      vertex 9.9 10.3678 6.80194
      vertex 9.9 7.55014 5.44504
      vertex 9.9 8.63223 6.80194
    endloop
  endfacet
  facet normal 0.62349 0.781831 0
    outer loop
      vertex 4.07069 7.93634 22.253
      vertex 4.55496 7.55014 23.945
      vertex 4.55496 7.55014 21.5
    endloop
  endfacet
  facet normal 0.62349 0.781831 0
    outer loop
      vertex 4.07069 7.93634 22.253
      vertex 4.55496 7.55014 21.5
      vertex 3.19806 8.63223 21.9179
    endloop
  endfacet
  facet normal 0.62349 0.781831 0
    outer loop
      vertex 4.55496 7.55014 21.5
      vertex 3.19806 8.63223 21.5
      vertex 3.19806 8.63223 21.9179
    endloop
  endfacet
  facet normal -0.222521 0.974928 0
    outer loop
      vertex 6.24698 7.93634 22.253
      vertex 6.24698 7.93634 21.5
      vertex 4.55496 7.55014 23.945
    endloop
  endfacet
  facet normal -0.222521 0.974928 0
    outer loop
      vertex 4.55496 7.55014 23.945
      vertex 6.24698 7.93634 21.5
      vertex 4.55496 7.55014 21.5
    endloop
  endfacet
  facet normal -4.94096e-17 0.974928 0.222521
    outer loop
      vertex 9.9 7.93634 22.253
      vertex 6.24698 7.93634 22.253
      vertex 9.9 7.55014 23.945
    endloop
  endfacet
  facet normal -4.94096e-17 0.974928 0.222521
    outer loop
      vertex 9.9 7.55014 23.945
      vertex 6.24698 7.93634 22.253
      vertex 4.55496 7.55014 23.945
    endloop
  endfacet
  facet normal 1.38443e-16 0.781831 -0.62349
    outer loop
      vertex 6.58211 8.63223 25.3019
      vertex 9.9 8.63223 25.3019
      vertex 6.24698 7.93634 24.4293
    endloop
  endfacet
  facet normal 1.38443e-16 0.781831 -0.62349
    outer loop
      vertex 6.24698 7.93634 24.4293
      vertex 9.9 8.63223 25.3019
      vertex 9.9 7.55014 23.945
    endloop
  endfacet
  facet normal 1.38443e-16 0.781831 -0.62349
    outer loop
      vertex 6.24698 7.93634 24.4293
      vertex 9.9 7.55014 23.945
      vertex 4.55496 7.55014 23.945
    endloop
  endfacet
  facet normal 1.38443e-16 -0.781831 -0.62349
    outer loop
      vertex 9.9 11.4499 23.945
      vertex 9.9 10.3678 25.3019
      vertex 6.58211 10.3678 25.3019
    endloop
  endfacet
  facet normal 1.38443e-16 -0.781831 -0.62349
    outer loop
      vertex 4.55496 11.4499 23.945
      vertex 9.9 11.4499 23.945
      vertex 6.24698 11.0637 24.4293
    endloop
  endfacet
  facet normal 1.38443e-16 -0.781831 -0.62349
    outer loop
      vertex 6.24698 11.0637 24.4293
      vertex 9.9 11.4499 23.945
      vertex 6.58211 10.3678 25.3019
    endloop
  endfacet
  facet normal -4.94096e-17 -0.974928 0.222521
    outer loop
      vertex 6.24698 11.0637 22.253
      vertex 9.9 11.0637 22.253
      vertex 9.9 11.4499 23.945
    endloop
  endfacet
  facet normal -4.94096e-17 -0.974928 0.222521
    outer loop
      vertex 4.55496 11.4499 23.945
      vertex 6.24698 11.0637 22.253
      vertex 9.9 11.4499 23.945
    endloop
  endfacet
  facet normal -0.222521 -0.974928 0
    outer loop
      vertex 6.24698 11.0637 21.5
      vertex 6.24698 11.0637 22.253
      vertex 4.55496 11.4499 23.945
    endloop
  endfacet
  facet normal -0.222521 -0.974928 0
    outer loop
      vertex 4.55496 11.4499 21.5
      vertex 6.24698 11.0637 21.5
      vertex 4.55496 11.4499 23.945
    endloop
  endfacet
  facet normal 0.62349 -0.781831 0
    outer loop
      vertex 4.55496 11.4499 21.5
      vertex 4.55496 11.4499 23.945
      vertex 4.07069 11.0637 22.253
    endloop
  endfacet
  facet normal 0.62349 -0.781831 0
    outer loop
      vertex 3.19806 10.3678 21.9179
      vertex 4.55496 11.4499 21.5
      vertex 4.07069 11.0637 22.253
    endloop
  endfacet
  facet normal 0.62349 -0.781831 0
    outer loop
      vertex 3.19806 10.3678 21.9179
      vertex 3.19806 10.3678 21.5
      vertex 4.55496 11.4499 21.5
    endloop
  endfacet
  facet normal 1 0 0
    outer loop
      vertex 3.19806 10.3678 21.5
      vertex 3.19806 10.3678 21.9179
      vertex 3.19806 9.5 21.5
    endloop
  endfacet
  facet normal 1 0 0
    outer loop
      vertex 3.19806 8.63223 21.5
      vertex 3.19806 10.3678 21.5
      vertex 3.19806 9.5 21.5
    endloop
  endfacet
  facet normal 1 0 0
    outer loop
      vertex 3.19806 8.63223 21.9179
      vertex 3.19806 8.63223 21.5
      vertex 3.19806 9.5 21.5
    endloop
  endfacet
  facet normal -4.94096e-17 0.974928 -0.222521
    outer loop
      vertex 65 7.93634 6.24698
      vertex 65 7.55014 4.55496
      vertex 55.1 7.93634 6.24698
    endloop
  endfacet
  facet normal -4.94096e-17 0.974928 -0.222521
    outer loop
      vertex 55.1 7.93634 6.24698
      vertex 65 7.55014 4.55496
      vertex 55.1 7.55014 4.55496
    endloop
  endfacet
  facet normal 1.38443e-16 0.781831 0.62349
    outer loop
      vertex 65 7.55014 4.55496
      vertex 65 8.63223 3.19806
      vertex 55.1 7.55014 4.55496
    endloop
  endfacet
  facet normal 1.38443e-16 0.781831 0.62349
    outer loop
      vertex 55.1 7.55014 4.55496
      vertex 65 8.63223 3.19806
      vertex 55.1 8.63223 3.19806
    endloop
  endfacet
  facet normal 2.22045e-16 0 1
    outer loop
      vertex 65 8.63223 3.19806
      vertex 65 10.3678 3.19806
      vertex 55.1 10.3678 3.19806
    endloop
  endfacet
  facet normal 2.22045e-16 0 1
    outer loop
      vertex 55.1 8.63223 3.19806
      vertex 65 8.63223 3.19806
      vertex 55.1 10.3678 3.19806
    endloop
  endfacet
  facet normal 1.38443e-16 -0.781831 0.62349
    outer loop
      vertex 65 10.3678 3.19806
      vertex 65 11.4499 4.55496
      vertex 55.1 11.4499 4.55496
    endloop
  endfacet
  facet normal 1.38443e-16 -0.781831 0.62349
    outer loop
      vertex 55.1 10.3678 3.19806
      vertex 65 10.3678 3.19806
      vertex 55.1 11.4499 4.55496
    endloop
  endfacet
  facet normal -4.94096e-17 -0.974928 -0.222521
    outer loop
      vertex 65 11.4499 4.55496
      vertex 65 11.0637 6.24698
      vertex 55.1 11.0637 6.24698
    endloop
  endfacet
  facet normal -4.94096e-17 -0.974928 -0.222521
    outer loop
      vertex 55.1 11.4499 4.55496
      vertex 65 11.4499 4.55496
      vertex 55.1 11.0637 6.24698
    endloop
  endfacet
  facet normal -2.00055e-16 -0.433884 -0.900969
    outer loop
      vertex 65 9.5 7
      vertex 55.1 9.5 7
      vertex 65 11.0637 6.24698
    endloop
  endfacet
  facet normal -2.00055e-16 -0.433884 -0.900969
    outer loop
      vertex 65 11.0637 6.24698
      vertex 55.1 9.5 7
      vertex 55.1 11.0637 6.24698
    endloop
  endfacet
  facet normal -2.00055e-16 0.433884 -0.900969
    outer loop
      vertex 65 9.5 7
      vertex 65 7.93634 6.24698
      vertex 55.1 9.5 7
    endloop
  endfacet
  facet normal -2.00055e-16 0.433884 -0.900969
    outer loop
      vertex 55.1 9.5 7
      vertex 65 7.93634 6.24698
      vertex 55.1 7.93634 6.24698
    endloop
  endfacet
  facet normal -4.94096e-17 0.974928 -0.222521
    outer loop
      vertex 65 7.93634 24.747
      vertex 65 7.55014 23.055
      vertex 61.247 7.93634 24.747
    endloop
  endfacet
  facet normal -4.94096e-17 0.974928 -0.222521
    outer loop
      vertex 61.247 7.93634 24.747
      vertex 65 7.55014 23.055
      vertex 59.555 7.55014 23.055
    endloop
  endfacet
  facet normal 1.38443e-16 0.781831 0.62349
    outer loop
      vertex 65 8.63223 21.6981
      vertex 61.5821 8.63223 21.6981
      vertex 65 7.55014 23.055
    endloop
  endfacet
  facet normal 1.38443e-16 0.781831 0.62349
    outer loop
      vertex 65 7.55014 23.055
      vertex 61.5821 8.63223 21.6981
      vertex 61.247 7.93634 22.5707
    endloop
  endfacet
  facet normal 1.38443e-16 0.781831 0.62349
    outer loop
      vertex 65 7.55014 23.055
      vertex 61.247 7.93634 22.5707
      vertex 59.555 7.55014 23.055
    endloop
  endfacet
  facet normal 2.22045e-16 0 1
    outer loop
      vertex 65 8.63223 21.6981
      vertex 65 10.3678 21.6981
      vertex 61.5821 10.3678 21.6981
    endloop
  endfacet
  facet normal 2.22045e-16 0 1
    outer loop
      vertex 61.5821 8.63223 21.6981
      vertex 65 8.63223 21.6981
      vertex 62 9.5 21.6981
    endloop
  endfacet
  facet normal 2.22045e-16 0 1
    outer loop
      vertex 62 9.5 21.6981
      vertex 65 8.63223 21.6981
      vertex 61.5821 10.3678 21.6981
    endloop
  endfacet
  facet normal 1.38443e-16 -0.781831 0.62349
    outer loop
      vertex 61.247 11.0637 22.5707
      vertex 61.5821 10.3678 21.6981
      vertex 65 10.3678 21.6981
    endloop
  endfacet
  facet normal 1.38443e-16 -0.781831 0.62349
    outer loop
      vertex 59.555 11.4499 23.055
      vertex 61.247 11.0637 22.5707
      vertex 65 11.4499 23.055
    endloop
  endfacet
  facet normal 1.38443e-16 -0.781831 0.62349
    outer loop
      vertex 65 11.4499 23.055
      vertex 61.247 11.0637 22.5707
      vertex 65 10.3678 21.6981
    endloop
  endfacet
  facet normal -4.94096e-17 -0.974928 -0.222521
    outer loop
      vertex 65 11.4499 23.055
      vertex 65 11.0637 24.747
      vertex 61.247 11.0637 24.747
    endloop
  endfacet
  facet normal -4.94096e-17 -0.974928 -0.222521
    outer loop
      vertex 59.555 11.4499 23.055
      vertex 65 11.4499 23.055
      vertex 61.247 11.0637 24.747
    endloop
  endfacet
  facet normal -2.00055e-16 -0.433884 -0.900969
    outer loop
      vertex 65 9.5 25.5
      vertex 62 9.5 25.5
      vertex 65 11.0637 24.747
    endloop
  endfacet
  facet normal -2.00055e-16 -0.433884 -0.900969
    outer loop
      vertex 65 11.0637 24.747
      vertex 62 9.5 25.5
      vertex 61.247 11.0637 24.747
    endloop
  endfacet
  facet normal -2.00055e-16 0.433884 -0.900969
    outer loop
      vertex 65 9.5 25.5
      vertex 65 7.93634 24.747
      vertex 62 9.5 25.5
    endloop
  endfacet
  facet normal -2.00055e-16 0.433884 -0.900969
    outer loop
      vertex 62 9.5 25.5
      vertex 65 7.93634 24.747
      vertex 61.247 7.93634 24.747
    endloop
  endfacet
  facet normal 0.245485 0.9694 0
    outer loop
      vertex 31.5729 3.62978 10.1468
      vertex 32.0045 3.52049 10.1468
      vertex 32.0045 3.52049 7.5
    endloop
  endfacet
  facet normal 0.245485 0.9694 0
    outer loop
      vertex 31.5729 3.62978 10.1468
      vertex 32.0045 3.52049 7.5
      vertex 30.0898 4.00536 11.2244
    endloop
  endfacet
  facet normal 0.245485 0.9694 0
    outer loop
      vertex 32.0045 3.52049 7.5
      vertex 30.0898 4.00536 7.5
      vertex 30.0898 4.00536 11.2244
    endloop
  endfacet
  facet normal -0.0825792 0.996585 0
    outer loop
      vertex 33.4271 3.63837 10.1468
      vertex 33.9729 3.6836 10.5434
      vertex 33.9729 3.6836 7.5
    endloop
  endfacet
  facet normal -0.0825792 0.996585 0
    outer loop
      vertex 33.4271 3.63837 10.1468
      vertex 33.9729 3.6836 7.5
      vertex 32.0045 3.52049 10.1468
    endloop
  endfacet
  facet normal -0.0825792 0.996585 0
    outer loop
      vertex 33.9729 3.6836 7.5
      vertex 32.0045 3.52049 7.5
      vertex 32.0045 3.52049 10.1468
    endloop
  endfacet
  facet normal -0.0825792 0.996585 0
    outer loop
      vertex 33.4271 3.63837 22.6468
      vertex 33.9729 3.6836 23.0434
      vertex 33.9729 3.6836 15.4566
    endloop
  endfacet
  facet normal -0.0825792 0.996585 0
    outer loop
      vertex 33.4271 3.63837 22.6468
      vertex 33.9729 3.6836 15.4566
      vertex 32.0045 3.52049 22.6468
    endloop
  endfacet
  facet normal -0.0825792 0.996585 0
    outer loop
      vertex 33.9729 3.6836 15.4566
      vertex 33.4271 3.63837 15.8532
      vertex 32.0045 3.52049 22.6468
    endloop
  endfacet
  facet normal -0.0825792 0.996585 0
    outer loop
      vertex 33.4271 3.63837 15.8532
      vertex 32.0045 3.52049 15.8532
      vertex 32.0045 3.52049 22.6468
    endloop
  endfacet
  facet normal 0.245485 0.9694 0
    outer loop
      vertex 31.5729 3.62978 22.6468
      vertex 32.0045 3.52049 22.6468
      vertex 32.0045 3.52049 15.8532
    endloop
  endfacet
  facet normal 0.245485 0.9694 0
    outer loop
      vertex 31.5729 3.62978 22.6468
      vertex 32.0045 3.52049 15.8532
      vertex 30.0898 4.00536 23.7244
    endloop
  endfacet
  facet normal 0.245485 0.9694 0
    outer loop
      vertex 32.0045 3.52049 15.8532
      vertex 31.5729 3.62978 15.8532
      vertex 30.0898 4.00536 23.7244
    endloop
  endfacet
  facet normal 0.245485 0.9694 0
    outer loop
      vertex 31.5729 3.62978 15.8532
      vertex 30.0898 4.00536 14.7756
      vertex 30.0898 4.00536 23.7244
    endloop
  endfacet
  facet normal 0.245485 -0.9694 0
    outer loop
      vertex 31.5729 15.3702 15.8532
      vertex 32.0045 15.4795 15.8532
      vertex 32.0045 15.4795 22.6468
    endloop
  endfacet
  facet normal 0.245485 -0.9694 0
    outer loop
      vertex 30.0898 14.9946 23.7244
      vertex 31.5729 15.3702 15.8532
      vertex 31.5729 15.3702 22.6468
    endloop
  endfacet
  facet normal 0.245485 -0.9694 0
    outer loop
      vertex 31.5729 15.3702 22.6468
      vertex 31.5729 15.3702 15.8532
      vertex 32.0045 15.4795 22.6468
    endloop
  endfacet
  facet normal 0.245485 -0.9694 0
    outer loop
      vertex 30.0898 14.9946 14.7756
      vertex 31.5729 15.3702 15.8532
      vertex 30.0898 14.9946 23.7244
    endloop
  endfacet
  facet normal -0.0825792 -0.996585 0
    outer loop
      vertex 33.4271 15.3616 15.8532
      vertex 33.9729 15.3164 15.4566
      vertex 33.9729 15.3164 23.0434
    endloop
  endfacet
  facet normal -0.0825792 -0.996585 0
    outer loop
      vertex 32.0045 15.4795 22.6468
      vertex 33.4271 15.3616 15.8532
      vertex 33.4271 15.3616 22.6468
    endloop
  endfacet
  facet normal -0.0825792 -0.996585 0
    outer loop
      vertex 33.4271 15.3616 22.6468
      vertex 33.4271 15.3616 15.8532
      vertex 33.9729 15.3164 23.0434
    endloop
  endfacet
  facet normal -0.0825792 -0.996585 0
    outer loop
      vertex 32.0045 15.4795 15.8532
      vertex 33.4271 15.3616 15.8532
      vertex 32.0045 15.4795 22.6468
    endloop
  endfacet
  facet normal -0.0825792 -0.996585 0
    outer loop
      vertex 33.9729 15.3164 7.5
      vertex 33.9729 15.3164 10.5434
      vertex 33.4271 15.3616 10.1468
    endloop
  endfacet
  facet normal -0.0825792 -0.996585 0
    outer loop
      vertex 32.0045 15.4795 10.1468
      vertex 33.9729 15.3164 7.5
      vertex 33.4271 15.3616 10.1468
    endloop
  endfacet
  facet normal -0.0825792 -0.996585 0
    outer loop
      vertex 32.0045 15.4795 10.1468
      vertex 32.0045 15.4795 7.5
      vertex 33.9729 15.3164 7.5
    endloop
  endfacet
  facet normal 0.245485 -0.9694 0
    outer loop
      vertex 32.0045 15.4795 7.5
      vertex 32.0045 15.4795 10.1468
      vertex 31.5729 15.3702 10.1468
    endloop
  endfacet
  facet normal 0.245485 -0.9694 0
    outer loop
      vertex 30.0898 14.9946 11.2244
      vertex 32.0045 15.4795 7.5
      vertex 31.5729 15.3702 10.1468
    endloop
  endfacet
  facet normal 0.245485 -0.9694 0
    outer loop
      vertex 30.0898 14.9946 11.2244
      vertex 30.0898 14.9946 7.5
      vertex 32.0045 15.4795 7.5
    endloop
  endfacet
  facet normal 2.22045e-16 0 -1
    outer loop
      vertex 6.58211 10.3678 25.3019
      vertex 9.9 10.3678 25.3019
      vertex 7 9.5 25.3019
    endloop
  endfacet
  facet normal 2.22045e-16 0 -1
    outer loop
      vertex 7 9.5 25.3019
      vertex 9.9 10.3678 25.3019
      vertex 9.9 8.63223 25.3019
    endloop
  endfacet
  facet normal 2.22045e-16 0 -1
    outer loop
      vertex 7 9.5 25.3019
      vertex 9.9 8.63223 25.3019
      vertex 6.58211 8.63223 25.3019
    endloop
  endfacet
  facet normal 0 0 1
    outer loop
      vertex 27.2232 6.64432 7.5
      vertex 28.4363 5.08566 7.5
      vertex 30.0898 4.00536 7.5
    endloop
  endfacet
  facet normal 0 0 1
    outer loop
      vertex 33.9729 3.6836 7.5
      vertex 27.2232 6.64432 7.5
      vertex 32.0045 3.52049 7.5
    endloop
  endfacet
  facet normal 0 0 1
    outer loop
      vertex 32.0045 3.52049 7.5
      vertex 27.2232 6.64432 7.5
      vertex 30.0898 4.00536 7.5
    endloop
  endfacet
  facet normal 0 0 1
    outer loop
      vertex 35.7817 4.477 7.5
      vertex 27.2232 6.64432 7.5
      vertex 33.9729 3.6836 7.5
    endloop
  endfacet
  facet normal 0 0 1
    outer loop
      vertex 37.2348 5.81472 7.5
      vertex 27.2232 6.64432 7.5
      vertex 35.7817 4.477 7.5
    endloop
  endfacet
  facet normal 0 0 1
    outer loop
      vertex 38.1749 7.5518 7.5
      vertex 27.2232 6.64432 7.5
      vertex 37.2348 5.81472 7.5
    endloop
  endfacet
  facet normal 0 0 1
    outer loop
      vertex 38.5 9.5 7.5
      vertex 27.2232 6.64432 7.5
      vertex 38.1749 7.5518 7.5
    endloop
  endfacet
  facet normal 0 0 1
    outer loop
      vertex 38.1749 11.4482 7.5
      vertex 27.2232 6.64432 7.5
      vertex 38.5 9.5 7.5
    endloop
  endfacet
  facet normal 0 0 1
    outer loop
      vertex 37.2348 13.1853 7.5
      vertex 27.2232 6.64432 7.5
      vertex 38.1749 11.4482 7.5
    endloop
  endfacet
  facet normal 0 0 1
    outer loop
      vertex 35.7817 14.523 7.5
      vertex 27.2232 6.64432 7.5
      vertex 37.2348 13.1853 7.5
    endloop
  endfacet
  facet normal 0 0 1
    outer loop
      vertex 33.9729 15.3164 7.5
      vertex 27.2232 6.64432 7.5
      vertex 35.7817 14.523 7.5
    endloop
  endfacet
  facet normal 0 0 1
    outer loop
      vertex 32.0045 15.4795 7.5
      vertex 27.2232 6.64432 7.5
      vertex 33.9729 15.3164 7.5
    endloop
  endfacet
  facet normal 0 0 1
    outer loop
      vertex 30.0898 14.9946 7.5
      vertex 27.2232 6.64432 7.5
      vertex 32.0045 15.4795 7.5
    endloop
  endfacet
  facet normal 0 0 1
    outer loop
      vertex 28.4363 13.9143 7.5
      vertex 27.2232 6.64432 7.5
      vertex 30.0898 14.9946 7.5
    endloop
  endfacet
  facet normal 0 0 1
    outer loop
      vertex 27.2232 12.3557 7.5
      vertex 27.2232 6.64432 7.5
      vertex 28.4363 13.9143 7.5
    endloop
  endfacet
  facet normal 0 0 1
    outer loop
      vertex 26.5818 10.4876 7.5
      vertex 27.2232 6.64432 7.5
      vertex 27.2232 12.3557 7.5
    endloop
  endfacet
  facet normal 0 0 1
    outer loop
      vertex 26.5818 8.51243 7.5
      vertex 27.2232 6.64432 7.5
      vertex 26.5818 10.4876 7.5
    endloop
  endfacet
  facet normal -2.00055e-16 0.433884 -0.900969
    outer loop
      vertex 58.1981 9.5 25.5
      vertex 58.1981 8.63223 25.0821
      vertex 55.1 9.5 25.5
    endloop
  endfacet
  facet normal -2.00055e-16 0.433884 -0.900969
    outer loop
      vertex 55.1 9.5 25.5
      vertex 58.1981 8.63223 25.0821
      vertex 59.0707 7.93634 24.747
    endloop
  endfacet
  facet normal -2.00055e-16 0.433884 -0.900969
    outer loop
      vertex 55.1 9.5 25.5
      vertex 59.0707 7.93634 24.747
      vertex 55.1 7.93634 24.747
    endloop
  endfacet
  facet normal -2.00055e-16 -0.433884 -0.900969
    outer loop
      vertex 58.1981 10.3678 25.0821
      vertex 58.1981 9.5 25.5
      vertex 55.1 9.5 25.5
    endloop
  endfacet
  facet normal -2.00055e-16 -0.433884 -0.900969
    outer loop
      vertex 58.1981 10.3678 25.0821
      vertex 55.1 9.5 25.5
      vertex 59.0707 11.0637 24.747
    endloop
  endfacet
  facet normal -2.00055e-16 -0.433884 -0.900969
    outer loop
      vertex 55.1 9.5 25.5
      vertex 55.1 11.0637 24.747
      vertex 59.0707 11.0637 24.747
    endloop
  endfacet
  facet normal -4.94096e-17 0.974928 -0.222521
    outer loop
      vertex 59.0707 7.93634 24.747
      vertex 59.555 7.55014 23.055
      vertex 55.1 7.93634 24.747
    endloop
  endfacet
  facet normal -4.94096e-17 0.974928 -0.222521
    outer loop
      vertex 55.1 7.93634 24.747
      vertex 59.555 7.55014 23.055
      vertex 55.1 7.55014 23.055
    endloop
  endfacet
  facet normal 1.38443e-16 0.781831 0.62349
    outer loop
      vertex 59.555 7.55014 23.055
      vertex 58.1981 8.63223 21.6981
      vertex 55.1 7.55014 23.055
    endloop
  endfacet
  facet normal 1.38443e-16 0.781831 0.62349
    outer loop
      vertex 55.1 7.55014 23.055
      vertex 58.1981 8.63223 21.6981
      vertex 55.1 8.63223 21.6981
    endloop
  endfacet
  facet normal 0.62349 0.781831 0
    outer loop
      vertex 59.555 7.55014 23.055
      vertex 59.555 7.55014 21.5
      vertex 58.1981 8.63223 21.6981
    endloop
  endfacet
  facet normal 0.62349 0.781831 0
    outer loop
      vertex 58.1981 8.63223 21.6981
      vertex 59.555 7.55014 21.5
      vertex 58.1981 8.63223 21.5
    endloop
  endfacet
  facet normal -0.222521 0.974928 0
    outer loop
      vertex 61.247 7.93634 22.5707
      vertex 61.247 7.93634 21.5
      vertex 59.555 7.55014 23.055
    endloop
  endfacet
  facet normal -0.222521 0.974928 0
    outer loop
      vertex 59.555 7.55014 23.055
      vertex 61.247 7.93634 21.5
      vertex 59.555 7.55014 21.5
    endloop
  endfacet
  facet normal 1.38443e-16 -0.781831 0.62349
    outer loop
      vertex 58.1981 10.3678 21.6981
      vertex 59.555 11.4499 23.055
      vertex 55.1 11.4499 23.055
    endloop
  endfacet
  facet normal 1.38443e-16 -0.781831 0.62349
    outer loop
      vertex 55.1 10.3678 21.6981
      vertex 58.1981 10.3678 21.6981
      vertex 55.1 11.4499 23.055
    endloop
  endfacet
  facet normal -4.94096e-17 -0.974928 -0.222521
    outer loop
      vertex 59.555 11.4499 23.055
      vertex 59.0707 11.0637 24.747
      vertex 55.1 11.0637 24.747
    endloop
  endfacet
  facet normal -4.94096e-17 -0.974928 -0.222521
    outer loop
      vertex 55.1 11.4499 23.055
      vertex 59.555 11.4499 23.055
      vertex 55.1 11.0637 24.747
    endloop
  endfacet
  facet normal -0.222521 -0.974928 0
    outer loop
      vertex 61.247 11.0637 21.5
      vertex 61.247 11.0637 22.5707
      vertex 59.555 11.4499 23.055
    endloop
  endfacet
  facet normal -0.222521 -0.974928 0
    outer loop
      vertex 59.555 11.4499 21.5
      vertex 61.247 11.0637 21.5
      vertex 59.555 11.4499 23.055
    endloop
  endfacet
  facet normal 0.62349 -0.781831 0
    outer loop
      vertex 59.555 11.4499 21.5
      vertex 59.555 11.4499 23.055
      vertex 58.1981 10.3678 21.6981
    endloop
  endfacet
  facet normal 0.62349 -0.781831 0
    outer loop
      vertex 58.1981 10.3678 21.5
      vertex 59.555 11.4499 21.5
      vertex 58.1981 10.3678 21.6981
    endloop
  endfacet
  facet normal 0 0 1
    outer loop
      vertex 4.55496 7.55014 21.5
      vertex 6.24698 7.93634 21.5
      vertex 7 9.5 21.5
    endloop
  endfacet
  facet normal 0 0 1
    outer loop
      vertex 4.55496 11.4499 21.5
      vertex 4.55496 7.55014 21.5
      vertex 6.24698 11.0637 21.5
    endloop
  endfacet
  facet normal 0 0 1
    outer loop
      vertex 6.24698 11.0637 21.5
      vertex 4.55496 7.55014 21.5
      vertex 7 9.5 21.5
    endloop
  endfacet
  facet normal 0 0 1
    outer loop
      vertex 3.19806 10.3678 21.5
      vertex 4.55496 7.55014 21.5
      vertex 4.55496 11.4499 21.5
    endloop
  endfacet
  facet normal 0 0 1
    outer loop
      vertex 3.19806 8.63223 21.5
      vertex 4.55496 7.55014 21.5
      vertex 3.19806 10.3678 21.5
    endloop
  endfacet
  facet normal -0.900969 0.433884 0
    outer loop
      vertex 6.24698 7.93634 22.253
      vertex 7 9.5 21.5
      vertex 6.24698 7.93634 21.5
    endloop
  endfacet
  facet normal -2.00055e-16 0.433884 0.900969
    outer loop
      vertex 9.9 7.93634 22.253
      vertex 9.9 9.5 21.5
      vertex 7 9.5 21.5
    endloop
  endfacet
  facet normal -2.00055e-16 0.433884 0.900969
    outer loop
      vertex 6.24698 7.93634 22.253
      vertex 9.9 7.93634 22.253
      vertex 7 9.5 21.5
    endloop
  endfacet
  facet normal -1 0 -2.22045e-16
    outer loop
      vertex 9.9 11.4499 23.945
      vertex 9.9 11.0637 22.253
      vertex 9.9 10.3678 25.3019
    endloop
  endfacet
  facet normal -1 0 -2.22045e-16
    outer loop
      vertex 9.9 10.3678 25.3019
      vertex 9.9 11.0637 22.253
      vertex 9.9 9.5 21.5
    endloop
  endfacet
  facet normal -1 0 -2.22045e-16
    outer loop
      vertex 9.9 10.3678 25.3019
      vertex 9.9 9.5 21.5
      vertex 9.9 7.93634 22.253
    endloop
  endfacet
  facet normal -1 0 -2.22045e-16
    outer loop
      vertex 9.9 10.3678 25.3019
      vertex 9.9 7.93634 22.253
      vertex 9.9 7.55014 23.945
    endloop
  endfacet
  facet normal -1 0 -2.22045e-16
    outer loop
      vertex 9.9 10.3678 25.3019
      vertex 9.9 7.55014 23.945
      vertex 9.9 8.63223 25.3019
    endloop
  endfacet
  facet normal -2.00055e-16 -0.433884 0.900969
    outer loop
      vertex 7 9.5 21.5
      vertex 9.9 9.5 21.5
      vertex 9.9 11.0637 22.253
    endloop
  endfacet
  facet normal -2.00055e-16 -0.433884 0.900969
    outer loop
      vertex 6.24698 11.0637 22.253
      vertex 7 9.5 21.5
      vertex 9.9 11.0637 22.253
    endloop
  endfacet
  facet normal -0.900969 -0.433884 0
    outer loop
      vertex 7 9.5 21.5
      vertex 6.24698 11.0637 22.253
      vertex 6.24698 11.0637 21.5
    endloop
  endfacet
  facet normal 1 0 -2.22045e-16
    outer loop
      vertex 55.1 10.3678 3.19806
      vertex 55.1 11.4499 4.55496
      vertex 55.1 11.0637 6.24698
    endloop
  endfacet
  facet normal 1 0 -2.22045e-16
    outer loop
      vertex 55.1 7.93634 6.24698
      vertex 55.1 10.3678 3.19806
      vertex 55.1 9.5 7
    endloop
  endfacet
  facet normal 1 0 -2.22045e-16
    outer loop
      vertex 55.1 9.5 7
      vertex 55.1 10.3678 3.19806
      vertex 55.1 11.0637 6.24698
    endloop
  endfacet
  facet normal 1 0 -2.22045e-16
    outer loop
      vertex 55.1 7.55014 4.55496
      vertex 55.1 10.3678 3.19806
      vertex 55.1 7.93634 6.24698
    endloop
  endfacet
  facet normal 1 0 -2.22045e-16
    outer loop
      vertex 55.1 8.63223 3.19806
      vertex 55.1 10.3678 3.19806
      vertex 55.1 7.55014 4.55496
    endloop
  endfacet
  facet normal -0.900969 0.433884 0
    outer loop
      vertex 61.5821 8.63223 21.6981
      vertex 62 9.5 21.6981
      vertex 62 9.5 21.5
    endloop
  endfacet
  facet normal -0.900969 0.433884 0
    outer loop
      vertex 61.5821 8.63223 21.6981
      vertex 62 9.5 21.5
      vertex 61.247 7.93634 21.5
    endloop
  endfacet
  facet normal -0.900969 0.433884 0
    outer loop
      vertex 61.5821 8.63223 21.6981
      vertex 61.247 7.93634 21.5
      vertex 61.247 7.93634 22.5707
    endloop
  endfacet
  facet normal -0.900969 -0.433884 0
    outer loop
      vertex 62 9.5 21.6981
      vertex 61.5821 10.3678 21.6981
      vertex 62 9.5 21.5
    endloop
  endfacet
  facet normal -0.900969 -0.433884 0
    outer loop
      vertex 61.247 11.0637 21.5
      vertex 61.5821 10.3678 21.6981
      vertex 61.247 11.0637 22.5707
    endloop
  endfacet
  facet normal -0.900969 -0.433884 0
    outer loop
      vertex 62 9.5 21.5
      vertex 61.5821 10.3678 21.6981
      vertex 61.247 11.0637 21.5
    endloop
  endfacet
  facet normal 1 0 -2.22045e-16
    outer loop
      vertex 55.1 10.3678 21.6981
      vertex 55.1 11.4499 23.055
      vertex 55.1 11.0637 24.747
    endloop
  endfacet
  facet normal 1 0 -2.22045e-16
    outer loop
      vertex 55.1 7.93634 24.747
      vertex 55.1 10.3678 21.6981
      vertex 55.1 9.5 25.5
    endloop
  endfacet
  facet normal 1 0 -2.22045e-16
    outer loop
      vertex 55.1 9.5 25.5
      vertex 55.1 10.3678 21.6981
      vertex 55.1 11.0637 24.747
    endloop
  endfacet
  facet normal 1 0 -2.22045e-16
    outer loop
      vertex 55.1 7.55014 23.055
      vertex 55.1 10.3678 21.6981
      vertex 55.1 7.93634 24.747
    endloop
  endfacet
  facet normal 1 0 -2.22045e-16
    outer loop
      vertex 55.1 8.63223 21.6981
      vertex 55.1 10.3678 21.6981
      vertex 55.1 7.55014 23.055
    endloop
  endfacet
  facet normal 2.22045e-16 0 1
    outer loop
      vertex 58.1981 8.63223 21.6981
      vertex 58.1981 10.3678 21.6981
      vertex 55.1 10.3678 21.6981
    endloop
  endfacet
  facet normal 2.22045e-16 0 1
    outer loop
      vertex 55.1 8.63223 21.6981
      vertex 58.1981 8.63223 21.6981
      vertex 55.1 10.3678 21.6981
    endloop
  endfacet
  facet normal 1 0 0
    outer loop
      vertex 58.1981 10.3678 21.5
      vertex 58.1981 10.3678 21.6981
      vertex 58.1981 8.63223 21.6981
    endloop
  endfacet
  facet normal 1 0 0
    outer loop
      vertex 58.1981 8.63223 21.5
      vertex 58.1981 10.3678 21.5
      vertex 58.1981 8.63223 21.6981
    endloop
  endfacet
  facet normal 0 0 1
    outer loop
      vertex 59.555 7.55014 21.5
      vertex 61.247 7.93634 21.5
      vertex 62 9.5 21.5
    endloop
  endfacet
  facet normal 0 0 1
    outer loop
      vertex 59.555 11.4499 21.5
      vertex 59.555 7.55014 21.5
      vertex 61.247 11.0637 21.5
    endloop
  endfacet
  facet normal 0 0 1
    outer loop
      vertex 61.247 11.0637 21.5
      vertex 59.555 7.55014 21.5
      vertex 62 9.5 21.5
    endloop
  endfacet
  facet normal 0 0 1
    outer loop
      vertex 58.1981 10.3678 21.5
      vertex 59.555 7.55014 21.5
      vertex 59.555 11.4499 21.5
    endloop
  endfacet
  facet normal 0 0 1
    outer loop
      vertex 58.1981 8.63223 21.5
      vertex 59.555 7.55014 21.5
      vertex 58.1981 10.3678 21.5
    endloop
  endfacet
endsolid OpenSCAD_Model
