  0
SECTION
  2
HEADER
  9
$ACADVER
  1
AC1014
  9
$ACADMAINTVER
 70
     9
  9
$DWGCODEPAGE
  3
ANSI_1252
  9
$INSBASE
 10
0.0
 20
0.0
 30
0.0
  9
$EXTMIN
 10
1.000000000000000E+20
 20
1.000000000000000E+20
 30
1.000000000000000E+20
  9
$EXTMAX
 10
-1.000000000000000E+20
 20
-1.000000000000000E+20
 30
-1.000000000000000E+20
  9
$LIMMIN
 10
0.0
 20
0.0
  9
$LIMMAX
 10
12.0
 20
9.0
  9
$ORTHOMODE
 70
     0
  9
$REGENMODE
 70
     1
  9
$FILLMODE
 70
     1
  9
$QTEXTMODE
 70
     0
  9
$MIRRTEXT
 70
     1
  9
$DRAGMODE
 70
     2
  9
$LTSCALE
 40
1.0
  9
$OSMODE
 70
    37
  9
$ATTMODE
 70
     1
  9
$TEXTSIZE
 40
0.2
  9
$TRACEWID
 40
0.05
  9
$TEXTSTYLE
  7
STANDARD
  9
$CLAYER
  8
0
  9
$CELTYPE
  6
BYLAYER
  9
$CECOLOR
 62
   256
  9
$CELTSCALE
 40
1.0
  9
$DELOBJ
 70
     1
  9
$DISPSILH
 70
     0
  9
$DIMSCALE
 40
1.0
  9
$DIMASZ
 40
0.06
  9
$DIMEXO
 40
0.0625
  9
$DIMDLI
 40
0.38
  9
$DIMRND
 40
0.0
  9
$DIMDLE
 40
0.0
  9
$DIMEXE
 40
0.18
  9
$DIMTP
 40
0.0
  9
$DIMTM
 40
0.0
  9
$DIMTXT
 40
0.0482483533954122
  9
$DIMCEN
 40
0.09
  9
$DIMTSZ
 40
0.0
  9
$DIMTOL
 70
     0
  9
$DIMLIM
 70
     0
  9
$DIMTIH
 70
     1
  9
$DIMTOH
 70
     1
  9
$DIMSE1
 70
     0
  9
$DIMSE2
 70
     0
  9
$DIMTAD
 70
     0
  9
$DIMZIN
 70
     0
  9
$DIMBLK
  1

  9
$DIMASO
 70
     1
  9
$DIMSHO
 70
     1
  9
$DIMPOST
  1

  9
$DIMAPOST
  1

  9
$DIMALT
 70
     0
  9
$DIMALTD
 70
     2
  9
$DIMALTF
 40
25.4
  9
$DIMLFAC
 40
1.0
  9
$DIMTOFL
 70
     0
  9
$DIMTVP
 40
0.0
  9
$DIMTIX
 70
     0
  9
$DIMSOXD
 70
     0
  9
$DIMSAH
 70
     0
  9
$DIMBLK1
  1

  9
$DIMBLK2
  1

  9
$DIMSTYLE
  2
STANDARD
  9
$DIMCLRD
 70
     0
  9
$DIMCLRE
 70
     0
  9
$DIMCLRT
 70
     0
  9
$DIMTFAC
 40
1.0
  9
$DIMGAP
 40
0.09
  9
$DIMJUST
 70
     0
  9
$DIMSD1
 70
     0
  9
$DIMSD2
 70
     0
  9
$DIMTOLJ
 70
     1
  9
$DIMTZIN
 70
     0
  9
$DIMALTZ
 70
     0
  9
$DIMALTTZ
 70
     0
  9
$DIMFIT
 70
     3
  9
$DIMUPT
 70
     0
  9
$DIMUNIT
 70
     2
  9
$DIMDEC
 70
     4
  9
$DIMTDEC
 70
     4
  9
$DIMALTU
 70
     2
  9
$DIMALTTD
 70
     2
  9
$DIMTXSTY
  7
STANDARD
  9
$DIMAUNIT
 70
     0
  9
$LUNITS
 70
     2
  9
$LUPREC
 70
     4
  9
$SKETCHINC
 40
0.1
  9
$FILLETRAD
 40
0.5
  9
$AUNITS
 70
     0
  9
$AUPREC
 70
     0
  9
$MENU
  1
.
  9
$ELEVATION
 40
0.0
  9
$PELEVATION
 40
0.0
  9
$THICKNESS
 40
0.0
  9
$LIMCHECK
 70
     0
  9
$CHAMFERA
 40
0.5
  9
$CHAMFERB
 40
0.5
  9
$CHAMFERC
 40
1.0
  9
$CHAMFERD
 40
0.0
  9
$SKPOLY
 70
     0
  9
$TDCREATE
 40
2456037.772430371
  9
$TDUPDATE
 40
2456037.772430671
  9
$TDINDWG
 40
0.0000000116
  9
$TDUSRTIMER
 40
0.0000000116
  9
$USRTIMER
 70
     1
  9
$ANGBASE
 50
0.0
  9
$ANGDIR
 70
     0
  9
$PDMODE
 70
     0
  9
$PDSIZE
 40
0.0
  9
$PLINEWID
 40
0.0
  9
$COORDS
 70
     1
  9
$SPLFRAME
 70
     0
  9
$SPLINETYPE
 70
     6
  9
$SPLINESEGS
 70
     8
  9
$ATTDIA
 70
     0
  9
$ATTREQ
 70
     1
  9
$HANDLING
 70
     1
  9
$HANDSEED
  5
253
  9
$SURFTAB1
 70
     6
  9
$SURFTAB2
 70
     6
  9
$SURFTYPE
 70
     6
  9
$SURFU
 70
     6
  9
$SURFV
 70
     6
  9
$UCSNAME
  2

  9
$UCSORG
 10
0.0
 20
0.0
 30
0.0
  9
$UCSXDIR
 10
1.0
 20
0.0
 30
0.0
  9
$UCSYDIR
 10
0.0
 20
1.0
 30
0.0
  9
$PUCSNAME
  2

  9
$PUCSORG
 10
0.0
 20
0.0
 30
0.0
  9
$PUCSXDIR
 10
1.0
 20
0.0
 30
0.0
  9
$PUCSYDIR
 10
0.0
 20
1.0
 30
0.0
  9
$USERI1
 70
     0
  9
$USERI2
 70
     0
  9
$USERI3
 70
     0
  9
$USERI4
 70
     0
  9
$USERI5
 70
     0
  9
$USERR1
 40
0.0
  9
$USERR2
 40
0.0
  9
$USERR3
 40
0.0
  9
$USERR4
 40
0.0
  9
$USERR5
 40
0.0
  9
$WORLDVIEW
 70
     1
  9
$SHADEDGE
 70
     3
  9
$SHADEDIF
 70
    70
  9
$TILEMODE
 70
     1
  9
$MAXACTVP
 70
    64
  9
$PINSBASE
 10
0.0
 20
0.0
 30
0.0
  9
$PLIMCHECK
 70
     0
  9
$PEXTMIN
 10
1.000000000000000E+20
 20
1.000000000000000E+20
 30
1.000000000000000E+20
  9
$PEXTMAX
 10
-1.000000000000000E+20
 20
-1.000000000000000E+20
 30
-1.000000000000000E+20
  9
$PLIMMIN
 10
0.0
 20
0.0
  9
$PLIMMAX
 10
12.0
 20
9.0
  9
$UNITMODE
 70
     0
  9
$VISRETAIN
 70
     1
  9
$PLINEGEN
 70
     0
  9
$PSLTSCALE
 70
     1
  9
$TREEDEPTH
 70
  3020
  9
$PICKSTYLE
 70
     1
  9
$CMLSTYLE
  2
STANDARD
  9
$CMLJUST
 70
     0
  9
$CMLSCALE
 40
1.0
  9
$PROXYGRAPHICS
 70
     1
  9
$MEASUREMENT
 70
     0
  0
ENDSEC
  0
SECTION
  2
CLASSES
  0
CLASS
  1
ACDBDICTIONARYWDFLT
  2
AcDbDictionaryWithDefault
  3
ObjectDBX Classes
 90
        0
280
     0
281
     0
  0
CLASS
  1
VISUALSTYLE
  2
AcDbVisualStyle
  3
ObjectDBX Classes
 90
     4095
280
     0
281
     0
  0
CLASS
  1
MATERIAL
  2
AcDbMaterial
  3
ObjectDBX Classes
 90
     1153
280
     0
281
     0
  0
CLASS
  1
DICTIONARYVAR
  2
AcDbDictionaryVar
  3
ObjectDBX Classes
 90
        0
280
     0
281
     0
  0
CLASS
  1
XRECORD
  2
AcDbXrecord
  3
AutoCAD 2000
 90
        0
280
     0
281
     0
  0
CLASS
  1
LWPOLYLINE
  2
AcDbPolyline
  3
AutoCAD 2000
 90
        0
280
     0
281
     1
  0
CLASS
  1
HATCH
  2
AcDbHatch
  3
AutoCAD 2000
 90
        0
280
     0
281
     1
  0
CLASS
  1
ACDBPLACEHOLDER
  2
AcDbPlaceHolder
  3
ObjectDBX Classes
 90
        0
280
     0
281
     0
  0
CLASS
  1
LAYOUT
  2
AcDbLayout
  3
ObjectDBX Classes
 90
        0
280
     0
281
     0
  0
ENDSEC
  0
SECTION
  2
TABLES
  0
TABLE
  2
VPORT
  5
8
330
0
100
AcDbSymbolTable
 70
     1
  0
VPORT
  5
29
330
8
100
AcDbSymbolTableRecord
100
AcDbViewportTableRecord
  2
*ACTIVE
 70
     0
 10
0.0
 20
0.0
 11
1.0
 21
1.0
 12
10.42990654205607
 22
4.5
 13
0.0
 23
0.0
 14
0.5
 24
0.5
 15
0.5
 25
0.5
 16
0.0
 26
0.0
 36
1.0
 17
0.0
 27
0.0
 37
0.0
 40
9.0
 41
1.972972972850329
 42
50.0
 43
0.0
 44
0.0
 50
0.0
 51
0.0
 71
     0
 72
   100
 73
     1
 74
     3
 75
     0
 76
     0
 77
     0
 78
     0
  0
ENDTAB
  0
TABLE
  2
LTYPE
  5
5
330
0
100
AcDbSymbolTable
 70
     1
  0
LTYPE
  5
14
330
5
100
AcDbSymbolTableRecord
100
AcDbLinetypeTableRecord
  2
BYBLOCK
 70
     0
  3

 72
    65
 73
     0
 40
0.0
  0
LTYPE
  5
15
330
5
100
AcDbSymbolTableRecord
100
AcDbLinetypeTableRecord
  2
BYLAYER
 70
     0
  3

 72
    65
 73
     0
 40
0.0
  0
LTYPE
  5
16
330
5
100
AcDbSymbolTableRecord
100
AcDbLinetypeTableRecord
  2
CONTINUOUS
 70
     0
  3
Solid line
 72
    65
 73
     0
 40
0.0
  0
ENDTAB
  0
TABLE
  2
LAYER
  5
2
330
0
100
AcDbSymbolTable
 70
     2
  0
LAYER
  5
10
330
2
100
AcDbSymbolTableRecord
100
AcDbLayerTableRecord
  2
0
 70
     0
 62
     7
  6
CONTINUOUS
  0
LAYER
  5
3F
330
2
100
AcDbSymbolTableRecord
100
AcDbLayerTableRecord
  2
VISIBLE
 70
     0
 62
     7
  6
CONTINUOUS
  0
ENDTAB
  0
TABLE
  2
STYLE
  5
3
330
0
100
AcDbSymbolTable
 70
     1
  0
STYLE
  5
11
330
3
100
AcDbSymbolTableRecord
100
AcDbTextStyleTableRecord
  2
STANDARD
 70
     0
 40
0.0
 41
1.0
 50
0.0
 71
     0
 42
0.2
  3
txt
  4

  0
ENDTAB
  0
TABLE
  2
VIEW
  5
6
330
0
100
AcDbSymbolTable
 70
     0
  0
ENDTAB
  0
TABLE
  2
UCS
  5
7
330
0
100
AcDbSymbolTable
 70
     0
  0
ENDTAB
  0
TABLE
  2
APPID
  5
9
330
0
100
AcDbSymbolTable
 70
     1
  0
APPID
  5
12
330
9
100
AcDbSymbolTableRecord
100
AcDbRegAppTableRecord
  2
ACAD
 70
     0
  0
ENDTAB
  0
TABLE
  2
DIMSTYLE
  5
A
330
0
100
AcDbSymbolTable
 70
     1
  0
DIMSTYLE
105
27
330
A
100
AcDbSymbolTableRecord
100
AcDbDimStyleTableRecord
  2
STANDARD
 70
     0
  3

  4

  5

  6

  7

 40
1.0
 41
0.18
 42
0.0625
 43
0.38
 44
0.18
 45
0.0
 46
0.0
 47
0.0
 48
0.0
140
0.18
141
0.09
142
0.0
143
25.4
144
1.0
145
0.0
146
1.0
147
0.09
 71
     0
 72
     0
 73
     1
 74
     1
 75
     0
 76
     0
 77
     0
 78
     0
170
     0
171
     2
172
     0
173
     0
174
     0
175
     0
176
     0
177
     0
178
     0
270
     2
271
     4
272
     4
273
     2
274
     2
340
11
275
     0
280
     0
281
     0
282
     0
283
     1
284
     0
285
     0
286
     0
287
     3
288
     0
  0
ENDTAB
  0
TABLE
  2
BLOCK_RECORD
  5
1
330
0
100
AcDbSymbolTable
 70
     1
  0
BLOCK_RECORD
  5
1F
330
1
100
AcDbSymbolTableRecord
100
AcDbBlockTableRecord
  2
*MODEL_SPACE
  0
BLOCK_RECORD
  5
1B
330
1
100
AcDbSymbolTableRecord
100
AcDbBlockTableRecord
  2
*PAPER_SPACE
  0
ENDTAB
  0
ENDSEC
  0
SECTION
  2
BLOCKS
  0
BLOCK
  5
20
330
1F
100
AcDbEntity
  8
0
100
AcDbBlockBegin
  2
*MODEL_SPACE
 70
     0
 10
0.0
 20
0.0
 30
0.0
  3
*MODEL_SPACE
  1

  0
ENDBLK
  5
21
330
1F
100
AcDbEntity
  8
0
100
AcDbBlockEnd
  0
BLOCK
  5
1C
330
1B
100
AcDbEntity
 67
     1
  8
0
100
AcDbBlockBegin
  2
*PAPER_SPACE
 70
     0
 10
0.0
 20
0.0
 30
0.0
  3
*PAPER_SPACE
  1

  0
ENDBLK
  5
1D
330
1B
100
AcDbEntity
 67
     1
  8
0
100
AcDbBlockEnd
  0
ENDSEC
  0
SECTION
  2
ENTITIES
  0
CIRCLE
  5
40
330
1F
100
AcDbEntity
  8
VISIBLE
100
AcDbCircle
 10
7.203455046405875
 20
2.907326134348237
 30
0.0
 40
0.0984251968503944
  0
LINE
  5
41
330
1F
100
AcDbEntity
  8
VISIBLE
100
AcDbLine
 10
3.984951109398002
 20
3.104176528049036
 30
0.0
 11
8.453455046405875
 21
3.10417652804902
 31
0.0
  0
LINE
  5
42
330
1F
100
AcDbEntity
  8
VISIBLE
100
AcDbLine
 10
8.453455046405875
 20
3.10417652804902
 30
0.0
 11
8.453455046405868
 21
1.155357630411224
 31
0.0
  0
LINE
  5
43
330
1F
100
AcDbEntity
  8
VISIBLE
100
AcDbLine
 10
6.711329062153901
 20
1.299058417812806
 30
0.0
 11
6.711329062153903
 21
1.549058417812805
 31
0.0
  0
CIRCLE
  5
44
330
1F
100
AcDbEntity
  8
VISIBLE
100
AcDbCircle
 10
5.234951109398001
 20
2.907326134348244
 30
0.0
 40
0.0984251968503944
  0
LINE
  5
45
330
1F
100
AcDbEntity
  8
VISIBLE
100
AcDbLine
 10
3.984951109397995
 20
1.15535763041124
 30
0.0
 11
3.984951109398002
 21
3.104176528049036
 31
0.0
  0
LINE
  5
46
330
1F
100
AcDbEntity
  8
VISIBLE
100
AcDbLine
 10
5.727077093649964
 20
1.299058417812809
 30
0.0
 11
6.711329062153901
 21
1.299058417812806
 31
0.0
  0
LINE
  5
47
330
1F
100
AcDbEntity
  8
VISIBLE
100
AcDbLine
 10
6.711329062153903
 20
1.549058417812805
 30
0.0
 11
5.727077093649966
 21
1.549058417812809
 31
0.0
  0
LINE
  5
48
330
1F
100
AcDbEntity
  8
VISIBLE
100
AcDbLine
 10
5.727077093649966
 20
1.549058417812809
 30
0.0
 11
5.727077093649964
 21
1.299058417812809
 31
0.0
  0
LINE
  5
49
330
1F
100
AcDbEntity
  8
VISIBLE
100
AcDbLine
 10
8.453455046405868
 20
1.155357630411224
 30
0.0
 11
3.984951109397995
 21
1.15535763041124
 31
0.0
  0
LINE
  5
4A
330
1F
100
AcDbEntity
  8
VISIBLE
100
AcDbLine
 10
4.618809377114532
 20
8.749845819387554
 30
0.0
 11
6.61880937711453
 21
8.749845819387557
 31
0.0
  0
ARC
  5
4B
330
1F
100
AcDbEntity
  8
VISIBLE
100
AcDbCircle
 10
6.61880937711453
 20
8.832522984741889
 30
0.0
 40
0.0826771653543314
100
AcDbArc
 50
270.0
 51
90.0
  0
LINE
  5
4C
330
1F
100
AcDbEntity
  8
VISIBLE
100
AcDbLine
 10
4.618809377114532
 20
9.025436370568656
 30
0.0
 11
6.61880937711453
 21
9.025436370568661
 31
0.0
  0
ARC
  5
4D
330
1F
100
AcDbEntity
  8
VISIBLE
100
AcDbCircle
 10
3.827470794437362
 20
8.812837945371804
 30
0.0
 40
0.0393700787401574
100
AcDbArc
 50
180.0
 51
270.0
  0
LINE
  5
4E
330
1F
100
AcDbEntity
  8
VISIBLE
100
AcDbLine
 10
6.61880937711453
 20
9.19079070127732
 30
0.0
 11
4.61880937711453
 21
9.190790701277317
 31
0.0
  0
LINE
  5
4F
330
1F
100
AcDbEntity
  8
VISIBLE
100
AcDbLine
 10
4.004636148768061
 20
12.51362534694661
 30
0.0
 11
8.473140085775938
 21
12.51362534694662
 31
0.0
  0
CIRCLE
  5
50
330
1F
100
AcDbEntity
  8
VISIBLE
100
AcDbCircle
 10
7.223140085775938
 20
12.13960959891512
 30
0.0
 40
0.0984251968503944
  0
LINE
  5
51
330
1F
100
AcDbEntity
  8
VISIBLE
100
AcDbLine
 10
4.61880937711453
 20
9.301026921749758
 30
0.0
 11
6.61880937711453
 21
9.301026921749763
 31
0.0
  0
ARC
  5
52
330
1F
100
AcDbEntity
  8
VISIBLE
100
AcDbCircle
 10
8.650305440106653
 20
8.812837945371813
 30
0.0
 40
0.0393700787401556
100
AcDbArc
 50
270.0
 51
0.0
  0
LINE
  5
53
330
1F
100
AcDbEntity
  8
VISIBLE
100
AcDbLine
 10
4.61880937711453
 20
9.576617472930861
 30
0.0
 11
6.61880937711453
 21
9.576617472930865
 31
0.0
  0
LINE
  5
54
330
1F
100
AcDbEntity
  8
VISIBLE
100
AcDbLine
 10
3.827470794437358
 20
10.34827101623795
 30
0.0
 11
4.004636148768068
 21
10.34827101623795
 31
0.0
  0
LINE
  5
55
330
1F
100
AcDbEntity
  8
VISIBLE
100
AcDbLine
 10
8.473140085775945
 20
7.986066291828507
 30
0.0
 11
4.004636148768073
 21
7.986066291828497
 31
0.0
  0
LINE
  5
56
330
1F
100
AcDbEntity
  8
VISIBLE
100
AcDbLine
 10
6.61880937711453
 20
8.915200150096219
 30
0.0
 11
4.618809377114532
 21
8.915200150096215
 31
0.0
  0
ARC
  5
57
330
1F
100
AcDbEntity
  8
VISIBLE
100
AcDbCircle
 10
6.61880937711453
 20
9.383704087104094
 30
0.0
 40
0.0826771653543314
100
AcDbArc
 50
270.0
 51
90.0
  0
LINE
  5
58
330
1F
100
AcDbEntity
  8
VISIBLE
100
AcDbLine
 10
6.731014101523979
 20
8.143546606789132
 30
0.0
 11
6.731014101523977
 21
8.393546606789132
 31
0.0
  0
LINE
  5
59
330
1F
100
AcDbEntity
  8
VISIBLE
100
AcDbLine
 10
4.004636148768073
 20
7.986066291828497
 30
0.0
 11
4.004636148768071
 21
8.773467866631647
 31
0.0
  0
LINE
  5
5A
330
1F
100
AcDbEntity
  8
VISIBLE
100
AcDbLine
 10
8.473140085775945
 20
8.773467866631655
 30
0.0
 11
8.473140085775945
 21
7.986066291828507
 31
0.0
  0
ARC
  5
5B
330
1F
100
AcDbEntity
  8
VISIBLE
100
AcDbCircle
 10
4.61880937711453
 20
9.659294638285191
 30
0.0
 40
0.0826771653543297
100
AcDbArc
 50
90.00000000000122
 51
270.0
  0
LINE
  5
5C
330
1F
100
AcDbEntity
  8
VISIBLE
100
AcDbLine
 10
8.473140085775938
 20
12.51362534694662
 30
0.0
 11
8.47314008577594
 21
10.34827101623796
 31
0.0
  0
LINE
  5
5D
330
1F
100
AcDbEntity
  8
VISIBLE
100
AcDbLine
 10
4.004636148768071
 20
8.773467866631647
 30
0.0
 11
3.827470794437362
 21
8.773467866631647
 31
0.0
  0
LINE
  5
5E
330
1F
100
AcDbEntity
  8
VISIBLE
100
AcDbLine
 10
6.731014101523977
 20
8.393546606789132
 30
0.0
 11
5.74676213302004
 21
8.393546606789132
 31
0.0
  0
LINE
  5
5F
330
1F
100
AcDbEntity
  8
VISIBLE
100
AcDbLine
 10
8.689675518846808
 20
10.3089009374978
 30
0.0
 11
8.689675518846812
 21
8.812837945371813
 31
0.0
  0
ARC
  5
60
330
1F
100
AcDbEntity
  8
VISIBLE
100
AcDbCircle
 10
4.618809377114532
 20
8.832522984741884
 30
0.0
 40
0.0826771653543314
100
AcDbArc
 50
90.0
 51
270.0
  0
ARC
  5
61
330
1F
100
AcDbEntity
  8
VISIBLE
100
AcDbCircle
 10
6.61880937711453
 20
9.10811353592299
 30
0.0
 40
0.0826771653543297
100
AcDbArc
 50
270.0
 51
90.0
  0
LINE
  5
62
330
1F
100
AcDbEntity
  8
VISIBLE
100
AcDbLine
 10
4.004636148768068
 20
10.34827101623795
 30
0.0
 11
4.004636148768061
 21
12.51362534694661
 31
0.0
  0
ARC
  5
63
330
1F
100
AcDbEntity
  8
VISIBLE
100
AcDbCircle
 10
4.61880937711453
 20
9.108113535922985
 30
0.0
 40
0.0826771653543314
100
AcDbArc
 50
90.0
 51
270.0000000000013
  0
LINE
  5
64
330
1F
100
AcDbEntity
  8
VISIBLE
100
AcDbLine
 10
6.61880937711453
 20
9.741971803639526
 30
0.0
 11
4.618809377114529
 21
9.74197180363952
 31
0.0
  0
LINE
  5
65
330
1F
100
AcDbEntity
  8
VISIBLE
100
AcDbLine
 10
8.650305440106653
 20
8.773467866631657
 30
0.0
 11
8.473140085775945
 21
8.773467866631655
 31
0.0
  0
LINE
  5
66
330
1F
100
AcDbEntity
  8
VISIBLE
100
AcDbLine
 10
5.746762133020042
 20
8.14354660678913
 30
0.0
 11
6.731014101523979
 21
8.143546606789132
 31
0.0
  0
LINE
  5
67
330
1F
100
AcDbEntity
  8
VISIBLE
100
AcDbLine
 10
4.618809377114529
 20
9.852208024111963
 30
0.0
 11
6.61880937711453
 21
9.852208024111967
 31
0.0
  0
LINE
  5
68
330
1F
100
AcDbEntity
  8
VISIBLE
100
AcDbLine
 10
3.788100715697205
 20
8.812837945371804
 30
0.0
 11
3.788100715697201
 21
10.30890093749779
 31
0.0
  0
LINE
  5
69
330
1F
100
AcDbEntity
  8
VISIBLE
100
AcDbLine
 10
5.74676213302004
 20
8.393546606789132
 30
0.0
 11
5.746762133020042
 21
8.14354660678913
 31
0.0
  0
ARC
  5
6A
330
1F
100
AcDbEntity
  8
VISIBLE
100
AcDbCircle
 10
4.618809377114529
 20
9.934885189466295
 30
0.0
 40
0.0826771653543297
100
AcDbArc
 50
90.0
 51
270.0
  0
ARC
  5
6B
330
1F
100
AcDbEntity
  8
VISIBLE
100
AcDbCircle
 10
6.61880937711453
 20
9.934885189466298
 30
0.0
 40
0.0826771653543314
100
AcDbArc
 50
270.0
 51
90.00000000000122
  0
LINE
  5
6C
330
1F
100
AcDbEntity
  8
VISIBLE
100
AcDbLine
 10
6.61880937711453
 20
9.466381252458424
 30
0.0
 11
4.61880937711453
 21
9.466381252458419
 31
0.0
  0
LINE
  5
6D
330
1F
100
AcDbEntity
  8
VISIBLE
100
AcDbLine
 10
6.618809377114529
 20
10.01756235482063
 30
0.0
 11
4.618809377114529
 21
10.01756235482062
 31
0.0
  0
ARC
  5
6E
330
1F
100
AcDbEntity
  8
VISIBLE
100
AcDbCircle
 10
6.61880937711453
 20
9.659294638285196
 30
0.0
 40
0.0826771653543314
100
AcDbArc
 50
270.0
 51
90.0
  0
LINE
  5
6F
330
1F
100
AcDbEntity
  8
VISIBLE
100
AcDbLine
 10
8.47314008577594
 20
10.34827101623796
 30
0.0
 11
8.65030544010665
 21
10.34827101623796
 31
0.0
  0
CIRCLE
  5
70
330
1F
100
AcDbEntity
  8
VISIBLE
100
AcDbCircle
 10
5.254636148768062
 20
12.13960959891511
 30
0.0
 40
0.0984251968503944
  0
ARC
  5
71
330
1F
100
AcDbEntity
  8
VISIBLE
100
AcDbCircle
 10
8.65030544010665
 20
10.3089009374978
 30
0.0
 40
0.0393700787401592
100
AcDbArc
 50
0.0000000000025852
 51
90.0
  0
ARC
  5
72
330
1F
100
AcDbEntity
  8
VISIBLE
100
AcDbCircle
 10
4.61880937711453
 20
9.383704087104089
 30
0.0
 40
0.0826771653543297
100
AcDbArc
 50
90.0
 51
270.0
  0
ARC
  5
73
330
1F
100
AcDbEntity
  8
VISIBLE
100
AcDbCircle
 10
3.827470794437358
 20
10.30890093749779
 30
0.0
 40
0.0393700787401592
100
AcDbArc
 50
90.0
 51
180.0
  0
LINE
  5
74
330
1F
100
AcDbEntity
  8
VISIBLE
100
AcDbLine
 10
4.004636148768073
 20
5.781341882379678
 30
0.0
 11
4.004636148768054
 21
7.986066291828497
 31
0.0
  0
LINE
  5
75
330
1F
100
AcDbEntity
  8
VISIBLE
100
AcDbLine
 10
8.473140085775945
 20
5.781341882379714
 30
0.0
 11
6.731014101523979
 21
5.781341882379699
 31
0.0
  0
LINE
  5
76
330
1F
100
AcDbEntity
  8
VISIBLE
100
AcDbLine
 10
5.746762133020042
 20
5.781341882379691
 30
0.0
 11
4.004636148768073
 21
5.781341882379678
 31
0.0
  0
ARC
  5
77
330
1F
100
AcDbEntity
  8
VISIBLE
100
AcDbCircle
 10
5.786132211760201
 20
5.584491488678904
 30
0.0
 40
0.0393700787401574
100
AcDbArc
 50
180.0
 51
270.0
  0
LINE
  5
78
330
1F
100
AcDbEntity
  8
VISIBLE
100
AcDbLine
 10
4.004636148768054
 20
7.986066291828497
 30
0.0
 11
8.473140085775928
 21
7.986066291828532
 31
0.0
  0
LINE
  5
79
330
1F
100
AcDbEntity
  8
VISIBLE
100
AcDbLine
 10
6.691644022783823
 20
5.545121409938754
 30
0.0
 11
5.786132211760201
 21
5.545121409938747
 31
0.0
  0
ARC
  5
7A
330
1F
100
AcDbEntity
  8
VISIBLE
100
AcDbCircle
 10
6.691644022783823
 20
5.584491488678911
 30
0.0
 40
0.0393700787401574
100
AcDbArc
 50
270.0
 51
0.0000000000012926
  0
LINE
  5
7B
330
1F
100
AcDbEntity
  8
VISIBLE
100
AcDbLine
 10
5.746762133020045
 20
5.584491488678904
 30
0.0
 11
5.746762133020042
 21
5.781341882379691
 31
0.0
  0
LINE
  5
7C
330
1F
100
AcDbEntity
  8
VISIBLE
100
AcDbLine
 10
8.473140085775928
 20
7.986066291828532
 30
0.0
 11
8.473140085775945
 21
5.781341882379714
 31
0.0
  0
LINE
  5
7D
330
1F
100
AcDbEntity
  8
VISIBLE
100
AcDbLine
 10
6.731014101523979
 20
5.781341882379699
 30
0.0
 11
6.73101410152398
 21
5.584491488678912
 31
0.0
  0
LINE
  5
7E
330
1F
100
AcDbEntity
  8
VISIBLE
100
AcDbLine
 10
1.62274638498848
 20
2.356145031986094
 30
0.0
 11
2.882588904673518
 21
2.3561450319861
 31
0.0
  0
LINE
  5
7F
330
1F
100
AcDbEntity
  8
VISIBLE
100
AcDbLine
 10
1.62274638498848
 20
1.726223772143574
 30
0.0
 11
2.882588904673518
 21
1.72622377214358
 31
0.0
  0
SPLINE
  5
80
330
1F
100
AcDbEntity
  8
VISIBLE
100
AcDbSpline
210
0.0
220
0.0
230
1.0
 70
     8
 71
     2
 72
     6
 73
     3
 74
     0
 42
0.000000001
 43
0.000001
 12
1.0
 22
0.0
 32
0.0
 13
1.0
 23
0.0
 33
0.0
 40
0.0
 40
0.0
 40
0.0
 40
1.0
 40
1.0
 40
1.0
 10
3.274744784777988
 20
8.030988732320937
 30
0.0
 10
3.2589429270024
 20
8.010688535470543
 30
0.0
 10
3.227569895506337
 20
8.00745895869889
 30
0.0
  0
LINE
  5
81
330
1F
100
AcDbEntity
  8
VISIBLE
100
AcDbLine
 10
3.286740355644129
 20
8.956723845509915
 30
0.0
 11
3.286740355644133
 21
8.807355919820939
 31
0.0
  0
SPLINE
  5
82
330
1F
100
AcDbEntity
  8
VISIBLE
100
AcDbSpline
210
0.0
220
0.0
230
1.0
 70
     8
 71
     2
 72
     6
 73
     3
 74
     0
 42
0.000000001
 43
0.000001
 12
1.0
 22
0.0
 32
0.0
 13
1.0
 23
0.0
 33
0.0
 40
0.0
 40
0.0
 40
0.0
 40
1.0
 40
1.0
 40
1.0
 10
3.164247122376414
 20
8.94259444713393
 30
0.0
 10
3.18304787286854
 20
8.92904175889574
 30
0.0
 10
3.216612402888225
 20
8.888787391277631
 30
0.0
  0
SPLINE
  5
83
330
1F
100
AcDbEntity
  8
VISIBLE
100
AcDbSpline
210
0.0
220
0.0
230
1.0
 70
     8
 71
     2
 72
     6
 73
     3
 74
     0
 42
0.000000001
 43
0.000001
 12
1.0
 22
0.0
 32
0.0
 13
1.0
 23
0.0
 33
0.0
 40
0.0
 40
0.0
 40
0.0
 40
1.0
 40
1.0
 40
1.0
 10
3.154212365978776
 20
9.050958282025661
 30
0.0
 10
3.154212365978776
 20
9.093173464112276
 30
0.0
 10
3.115342102691375
 20
9.093173464112276
 30
0.0
  0
LINE
  5
84
330
1F
100
AcDbEntity
  8
VISIBLE
100
AcDbLine
 10
3.286740355644129
 20
9.443582543836685
 30
0.0
 11
3.286740355644129
 21
9.412786222478417
 31
0.0
  0
SPLINE
  5
85
330
1F
100
AcDbEntity
  8
VISIBLE
100
AcDbSpline
210
0.0
220
0.0
230
1.0
 70
     8
 71
     2
 72
     6
 73
     3
 74
     0
 42
0.000000001
 43
0.000001
 12
1.0
 22
0.0
 32
0.0
 13
1.0
 23
0.0
 33
0.0
 40
0.0
 40
0.0
 40
0.0
 40
1.0
 40
1.0
 40
1.0
 10
3.174281878774051
 20
9.16226333862015
 30
0.0
 10
3.057440404856731
 20
9.16226333862015
 30
0.0
 10
3.057440404856731
 20
9.23562086814771
 30
0.0
  0
SPLINE
  5
86
330
1F
100
AcDbEntity
  8
VISIBLE
100
AcDbSpline
210
0.0
220
0.0
230
1.0
 70
     8
 71
     2
 72
     6
 73
     3
 74
     0
 42
0.000000001
 43
0.000001
 12
1.0
 22
0.0
 32
0.0
 13
1.0
 23
0.0
 33
0.0
 40
0.0
 40
0.0
 40
0.0
 40
1.0
 40
1.0
 40
1.0
 10
3.175377628035864
 20
8.11351595303944
 30
0.0
 10
3.161709597770114
 20
8.10030929088393
 30
0.0
 10
3.161709597770114
 20
8.079201699840622
 30
0.0
  0
LINE
  5
87
330
1F
100
AcDbEntity
  8
VISIBLE
100
AcDbLine
 10
0.8747148889254746
 20
12.51362534694672
 30
0.0
 11
3.788100715697126
 21
12.51362534694672
 31
0.0
  0
LINE
  5
88
330
1F
100
AcDbEntity
  8
VISIBLE
100
AcDbLine
 10
2.488888117271935
 20
8.99000329970263
 30
0.0
 11
2.488888117271935
 21
8.202601724899482
 31
0.0
  0
LINE
  5
89
330
1F
100
AcDbEntity
  8
VISIBLE
100
AcDbLine
 10
3.057440404856731
 20
7.761895782025662
 30
0.0
 11
3.286740355644133
 21
7.761895782025662
 31
0.0
  0
SPLINE
  5
8A
330
1F
100
AcDbEntity
  8
VISIBLE
100
AcDbSpline
210
0.0
220
0.0
230
1.0
 70
     8
 71
     2
 72
     6
 73
     3
 74
     0
 42
0.000000001
 43
0.000001
 12
1.0
 22
0.0
 32
0.0
 13
1.0
 23
0.0
 33
0.0
 40
0.0
 40
0.0
 40
0.0
 40
1.0
 40
1.0
 40
1.0
 10
3.109344317258305
 20
7.908149472970543
 30
0.0
 10
3.121109204069327
 20
7.890617484781568
 30
0.0
 10
3.121109204069327
 20
7.853938720017787
 30
0.0
  0
ARC
  5
8B
330
1F
100
AcDbEntity
  8
VISIBLE
100
AcDbCircle
 10
1.622746384988478
 20
2.434885189466409
 30
0.0
 40
0.0787401574803144
100
AcDbArc
 50
90.0
 51
270.0
  0
LINE
  5
8C
330
1F
100
AcDbEntity
  8
VISIBLE
100
AcDbLine
 10
3.057440404856731
 20
7.739634770706764
 30
0.0
 11
3.057440404856731
 21
7.761895782025662
 31
0.0
  0
SPLINE
  5
8D
330
1F
100
AcDbEntity
  8
VISIBLE
100
AcDbSpline
210
0.0
220
0.0
230
1.0
 70
     8
 71
     2
 72
     6
 73
     3
 74
     0
 42
0.000000001
 43
0.000001
 12
1.0
 22
0.0
 32
0.0
 13
1.0
 23
0.0
 33
0.0
 40
0.0
 40
0.0
 40
0.0
 40
1.0
 40
1.0
 40
1.0
 10
3.075203077100824
 20
8.834634309338654
 30
0.0
 10
3.057440404856731
 20
8.854069440982355
 30
0.0
 10
3.057440404856731
 20
8.885788498561096
 30
0.0
  0
LINE
  5
8E
330
1F
100
AcDbEntity
  8
VISIBLE
100
AcDbLine
 10
3.061246691766179
 20
8.203079037439048
 30
0.0
 11
3.254559929955155
 21
8.274245068442985
 31
0.0
  0
LINE
  5
8F
330
1F
100
AcDbEntity
  8
VISIBLE
100
AcDbLine
 10
3.154212365978776
 20
9.044383786454794
 30
0.0
 11
3.154212365978776
 21
9.050958282025661
 31
0.0
  0
LINE
  5
90
330
1F
100
AcDbEntity
  8
VISIBLE
100
AcDbLine
 10
0.9140849676656444
 20
1.490003299702631
 30
0.0
 11
1.164084967665646
 21
1.490003299702631
 31
0.0
  0
SPLINE
  5
91
330
1F
100
AcDbEntity
  8
VISIBLE
100
AcDbSpline
210
0.0
220
0.0
230
1.0
 70
     8
 71
     2
 72
     6
 73
     3
 74
     0
 42
0.000000001
 43
0.000001
 12
1.0
 22
0.0
 32
0.0
 13
1.0
 23
0.0
 33
0.0
 40
0.0
 40
0.0
 40
0.0
 40
1.0
 40
1.0
 40
1.0
 10
3.115342102691375
 20
9.093173464112276
 30
0.0
 10
3.098271482612635
 20
9.093173464112276
 30
0.0
 10
3.089217133449248
 20
9.083946101907552
 30
0.0
  0
LINE
  5
92
330
1F
100
AcDbEntity
  8
VISIBLE
100
AcDbLine
 10
0.9140849676656444
 20
2.27740487450578
 30
0.0
 11
0.9140849676656444
 21
1.490003299702631
 31
0.0
  0
LINE
  5
93
330
1F
100
AcDbEntity
  8
VISIBLE
100
AcDbLine
 10
3.259981005250429
 20
8.847840971494167
 30
0.0
 11
3.259981005250429
 21
8.956723845509915
 31
0.0
  0
SPLINE
  5
94
330
1F
100
AcDbEntity
  8
VISIBLE
100
AcDbSpline
210
0.0
220
0.0
230
1.0
 70
     8
 71
     2
 72
     6
 73
     3
 74
     0
 42
0.000000001
 43
0.000001
 12
1.0
 22
0.0
 32
0.0
 13
1.0
 23
0.0
 33
0.0
 40
0.0
 40
0.0
 40
0.0
 40
1.0
 40
1.0
 40
1.0
 10
3.100982020260274
 20
9.203325100431174
 30
0.0
 10
3.121801256234681
 20
9.192252265785504
 30
0.0
 10
3.174281878774051
 20
9.192252265785504
 30
0.0
  0
LINE
  5
95
330
1F
100
AcDbEntity
  8
VISIBLE
100
AcDbLine
 10
3.116034154856727
 20
9.019469908502039
 30
0.0
 11
3.116034154856727
 21
8.989596323364244
 31
0.0
  0
LINE
  5
96
330
1F
100
AcDbEntity
  8
VISIBLE
100
AcDbLine
 10
3.341250321996352
 20
3.064806449308932
 30
0.0
 11
3.341250321996352
 21
1.490003299702634
 31
0.0
  0
LINE
  5
97
330
1F
100
AcDbEntity
  8
VISIBLE
100
AcDbLine
 10
3.286740355644133
 20
8.25890457877763
 30
0.0
 11
3.061246691766179
 21
8.171244637832748
 31
0.0
  0
ARC
  5
98
330
1F
100
AcDbEntity
  8
VISIBLE
100
AcDbCircle
 10
1.622746384988478
 20
2.119924559545149
 30
0.0
 40
0.0787401574803144
100
AcDbArc
 50
90.0
 51
270.0
  0
LINE
  5
99
330
1F
100
AcDbEntity
  8
VISIBLE
100
AcDbLine
 10
2.646368432232576
 20
0.8600820398601126
 30
0.0
 11
2.646368432232576
 21
1.110082039860113
 31
0.0
  0
LINE
  5
9A
330
1F
100
AcDbEntity
  8
VISIBLE
100
AcDbLine
 10
3.180279664207124
 20
8.038370622084717
 30
0.0
 11
3.180279664207124
 21
8.015532900628024
 31
0.0
  0
LINE
  5
9B
330
1F
100
AcDbEntity
  8
VISIBLE
100
AcDbLine
 10
1.957392054279811
 20
7.533310386316803
 30
0.0
 11
2.784163707823119
 21
7.533310386316807
 31
0.0
  0
LINE
  5
9C
330
1F
100
AcDbEntity
  8
VISIBLE
100
AcDbLine
 10
3.286740355644133
 20
8.289700900135898
 30
0.0
 11
3.286740355644133
 21
8.25890457877763
 31
0.0
  0
ARC
  5
9D
330
1F
100
AcDbEntity
  8
VISIBLE
100
AcDbCircle
 10
2.784163707823119
 20
7.61205054379712
 30
0.0
 40
0.078740157480313
100
AcDbArc
 50
270.0
 51
90.00000000000257
  0
LINE
  5
9E
330
1F
100
AcDbEntity
  8
VISIBLE
100
AcDbLine
 10
1.858966857429426
 20
1.110082039860113
 30
0.0
 11
1.858966857429426
 21
0.8600820398601126
 31
0.0
  0
LINE
  5
9F
330
1F
100
AcDbEntity
  8
VISIBLE
100
AcDbLine
 10
1.164084967665636
 20
10.93882219734042
 30
0.0
 11
1.164084967665632
 21
11.72622377214357
 31
0.0
  0
SPLINE
  5
A0
330
1F
100
AcDbEntity
  8
VISIBLE
100
AcDbSpline
210
0.0
220
0.0
230
1.0
 70
     8
 71
     2
 72
     6
 73
     3
 74
     0
 42
0.000000001
 43
0.000001
 12
1.0
 22
0.0
 32
0.0
 13
1.0
 23
0.0
 33
0.0
 40
0.0
 40
0.0
 40
0.0
 40
1.0
 40
1.0
 40
1.0
 10
3.267824263124446
 20
8.079893752005976
 30
0.0
 10
3.267824263124446
 20
8.100770658994165
 30
0.0
 10
3.251964734335075
 20
8.11374663709456
 30
0.0
  0
SPLINE
  5
A1
330
1F
100
AcDbEntity
  8
VISIBLE
100
AcDbSpline
210
0.0
220
0.0
230
1.0
 70
     8
 71
     2
 72
     6
 73
     3
 74
     0
 42
0.000000001
 43
0.000001
 12
1.0
 22
0.0
 32
0.0
 13
1.0
 23
0.0
 33
0.0
 40
0.0
 40
0.0
 40
0.0
 40
1.0
 40
1.0
 40
1.0
 10
3.216612402888225
 20
8.888787391277631
 30
0.0
 10
3.250176932907909
 20
8.84853302365952
 30
0.0
 10
3.259981005250429
 20
8.847840971494167
 30
0.0
  0
LINE
  5
A2
330
1F
100
AcDbEntity
  8
VISIBLE
100
AcDbLine
 10
0.914084967665632
 20
10.93882219734042
 30
0.0
 11
1.164084967665636
 21
10.93882219734042
 31
0.0
  0
LINE
  5
A3
330
1F
100
AcDbEntity
  8
VISIBLE
100
AcDbLine
 10
3.591250321996354
 20
1.490003299702634
 30
0.0
 11
3.591250321996352
 21
3.064806449308932
 31
0.0
  0
LINE
  5
A4
330
1F
100
AcDbEntity
  8
VISIBLE
100
AcDbLine
 10
3.061246691766179
 20
8.171244637832748
 30
0.0
 11
3.061246691766179
 21
8.203079037439048
 31
0.0
  0
ARC
  5
A5
330
1F
100
AcDbEntity
  8
VISIBLE
100
AcDbCircle
 10
2.882588904673518
 20
2.749845819387675
 30
0.0
 40
0.0787401574803148
100
AcDbArc
 50
270.0
 51
90.0
  0
ARC
  5
A6
330
1F
100
AcDbEntity
  8
VISIBLE
100
AcDbCircle
 10
2.784163707823119
 20
7.336459992616019
 30
0.0
 40
0.0787401574803157
100
AcDbArc
 50
270.0
 51
90.0
  0
SPLINE
  5
A7
330
1F
100
AcDbEntity
  8
VISIBLE
100
AcDbSpline
210
0.0
220
0.0
230
1.0
 70
     8
 71
     2
 72
     6
 73
     3
 74
     0
 42
0.000000001
 43
0.000001
 12
1.0
 22
0.0
 32
0.0
 13
1.0
 23
0.0
 33
0.0
 40
0.0
 40
0.0
 40
0.0
 40
1.0
 40
1.0
 40
1.0
 10
3.073818972770116
 20
9.105284377005976
 30
0.0
 10
3.090197540683501
 20
9.12316239127763
 30
0.0
 10
3.116034154856727
 20
9.12316239127763
 30
0.0
  0
LINE
  5
A8
330
1F
100
AcDbEntity
  8
VISIBLE
100
AcDbLine
 10
3.061246691766177
 20
9.499408085175267
 30
0.0
 11
3.061246691766177
 21
9.531242484781567
 31
0.0
  0
LINE
  5
A9
330
1F
100
AcDbEntity
  8
VISIBLE
100
AcDbLine
 10
3.061246691766177
 20
9.325126281533535
 30
0.0
 11
3.061246691766177
 21
9.356960681139835
 31
0.0
  0
SPLINE
  5
AA
330
1F
100
AcDbEntity
  8
VISIBLE
100
AcDbSpline
210
0.0
220
0.0
230
1.0
 70
     8
 71
     2
 72
     6
 73
     3
 74
     0
 42
0.000000001
 43
0.000001
 12
1.0
 22
0.0
 32
0.0
 13
1.0
 23
0.0
 33
0.0
 40
0.0
 40
0.0
 40
0.0
 40
1.0
 40
1.0
 40
1.0
 10
3.075491432169722
 20
8.93780775299023
 30
0.0
 10
3.093542459482713
 20
8.956147135372118
 30
0.0
 10
3.12076317798665
 20
8.956147135372118
 30
0.0
  0
SPLINE
  5
AB
330
1F
100
AcDbEntity
  8
VISIBLE
100
AcDbSpline
210
0.0
220
0.0
230
1.0
 70
     8
 71
     2
 72
     6
 73
     3
 74
     0
 42
0.000000001
 43
0.000001
 12
1.0
 22
0.0
 32
0.0
 13
1.0
 23
0.0
 33
0.0
 40
0.0
 40
0.0
 40
0.0
 40
1.0
 40
1.0
 40
1.0
 10
3.188238264108698
 20
9.091962372822906
 30
0.0
 10
3.176819403380351
 20
9.079447762832748
 30
0.0
 10
3.176819403380351
 20
9.055456621100465
 30
0.0
  0
LINE
  5
AC
330
1F
100
AcDbEntity
  8
VISIBLE
100
AcDbLine
 10
3.061246691766179
 20
8.025106288915424
 30
0.0
 11
3.061246691766179
 21
8.145984733797313
 31
0.0
  0
LINE
  5
AD
330
1F
100
AcDbEntity
  8
VISIBLE
100
AcDbLine
 10
3.748730636956969
 20
12.19866471702547
 30
0.0
 11
3.748730636956983
 21
1.017562354820746
 31
0.0
  0
SPLINE
  5
AE
330
1F
100
AcDbEntity
  8
VISIBLE
100
AcDbSpline
210
0.0
220
0.0
230
1.0
 70
     8
 71
     2
 72
     6
 73
     3
 74
     0
 42
0.000000001
 43
0.000001
 12
1.0
 22
0.0
 32
0.0
 13
1.0
 23
0.0
 33
0.0
 40
0.0
 40
0.0
 40
0.0
 40
1.0
 40
1.0
 40
1.0
 10
3.247235711205153
 20
9.268031977891804
 30
0.0
 10
3.226647159285864
 20
9.279104812537474
 30
0.0
 10
3.174281878774051
 20
9.279104812537474
 30
0.0
  0
LINE
  5
AF
330
1F
100
AcDbEntity
  8
VISIBLE
100
AcDbLine
 10
1.957392054279811
 20
7.257719835135701
 30
0.0
 11
2.784163707823119
 21
7.257719835135704
 31
0.0
  0
SPLINE
  5
B0
330
1F
100
AcDbEntity
  8
VISIBLE
100
AcDbSpline
210
0.0
220
0.0
230
1.0
 70
     8
 71
     2
 72
     6
 73
     3
 74
     0
 42
0.000000001
 43
0.000001
 12
1.0
 22
0.0
 32
0.0
 13
1.0
 23
0.0
 33
0.0
 40
0.0
 40
0.0
 40
0.0
 40
1.0
 40
1.0
 40
1.0
 10
3.257904848754368
 20
8.051634955254007
 30
0.0
 10
3.267824263124446
 20
8.063399842065031
 30
0.0
 10
3.267824263124446
 20
8.079893752005976
 30
0.0
  0
LINE
  5
B1
330
1F
100
AcDbEntity
  8
VISIBLE
100
AcDbLine
 10
3.906210951917613
 20
0.8600820398601153
 30
0.0
 11
3.906210951917613
 21
0.8207119611199587
 31
0.0
  0
SPLINE
  5
B2
330
1F
100
AcDbEntity
  8
VISIBLE
100
AcDbSpline
210
0.0
220
0.0
230
1.0
 70
     8
 71
     2
 72
     6
 73
     3
 74
     0
 42
0.000000001
 43
0.000001
 12
1.0
 22
0.0
 32
0.0
 13
1.0
 23
0.0
 33
0.0
 40
0.0
 40
0.0
 40
0.0
 40
1.0
 40
1.0
 40
1.0
 10
3.080162784285864
 20
9.23562086814771
 30
0.0
 10
3.080162784285864
 20
9.214397935076843
 30
0.0
 10
3.100982020260274
 20
9.203325100431174
 30
0.0
  0
ARC
  5
B3
330
1F
100
AcDbEntity
  8
VISIBLE
100
AcDbCircle
 10
0.8747148889254746
 20
12.39551511072625
 30
0.0
 40
0.118110236220474
100
AcDbArc
 50
90.0
 51
180.0
  0
SPLINE
  5
B4
330
1F
100
AcDbEntity
  8
VISIBLE
100
AcDbSpline
210
0.0
220
0.0
230
1.0
 70
     8
 71
     2
 72
     6
 73
     3
 74
     0
 42
0.000000001
 43
0.000001
 12
1.0
 22
0.0
 32
0.0
 13
1.0
 23
0.0
 33
0.0
 40
0.0
 40
0.0
 40
0.0
 40
1.0
 40
1.0
 40
1.0
 10
3.116034154856727
 20
8.989596323364244
 30
0.0
 10
3.087429332022085
 20
8.992825900135898
 30
0.0
 10
3.072434868439407
 20
9.011453637586685
 30
0.0
  0
ARC
  5
B5
330
1F
100
AcDbEntity
  8
VISIBLE
100
AcDbCircle
 10
2.882588904673518
 20
2.434885189466415
 30
0.0
 40
0.0787401574803144
100
AcDbArc
 50
270.0
 51
90.0
  0
SPLINE
  5
B6
330
1F
100
AcDbEntity
  8
VISIBLE
100
AcDbSpline
210
0.0
220
0.0
230
1.0
 70
     8
 71
     2
 72
     6
 73
     3
 74
     0
 42
0.000000001
 43
0.000001
 12
1.0
 22
0.0
 32
0.0
 13
1.0
 23
0.0
 33
0.0
 40
0.0
 40
0.0
 40
0.0
 40
1.0
 40
1.0
 40
1.0
 10
3.157038245653975
 20
8.135892306385896
 30
0.0
 10
3.176934745407912
 20
8.156826884387867
 30
0.0
 10
3.210153249344918
 20
8.156826884387867
 30
0.0
  0
SPLINE
  5
B7
330
1F
100
AcDbEntity
  8
VISIBLE
100
AcDbSpline
210
0.0
220
0.0
230
1.0
 70
     8
 71
     2
 72
     6
 73
     3
 74
     0
 42
0.000000001
 43
0.000001
 12
1.0
 22
0.0
 32
0.0
 13
1.0
 23
0.0
 33
0.0
 40
0.0
 40
0.0
 40
0.0
 40
1.0
 40
1.0
 40
1.0
 10
3.098271482612637
 20
7.853938720017787
 30
0.0
 10
3.098271482612637
 20
7.906996052694953
 30
0.0
 10
3.057440404856731
 20
7.914839310568969
 30
0.0
  0
LINE
  5
B8
330
1F
100
AcDbEntity
  8
VISIBLE
100
AcDbLine
 10
1.164084967665643
 20
2.27740487450578
 30
0.0
 11
0.9140849676656444
 21
2.27740487450578
 31
0.0
  0
LINE
  5
B9
330
1F
100
AcDbEntity
  8
VISIBLE
100
AcDbLine
 10
3.061246691766179
 20
8.345526441474481
 30
0.0
 11
3.061246691766179
 21
8.37736084108078
 31
0.0
  0
LINE
  5
BA
330
1F
100
AcDbEntity
  8
VISIBLE
100
AcDbLine
 10
3.254559929955155
 20
9.428126712143772
 30
0.0
 11
3.061246691766177
 21
9.499408085175267
 31
0.0
  0
SPLINE
  5
BB
330
1F
100
AcDbEntity
  8
VISIBLE
100
AcDbSpline
210
0.0
220
0.0
230
1.0
 70
     8
 71
     2
 72
     6
 73
     3
 74
     0
 42
0.000000001
 43
0.000001
 12
1.0
 22
0.0
 32
0.0
 13
1.0
 23
0.0
 33
0.0
 40
0.0
 40
0.0
 40
0.0
 40
1.0
 40
1.0
 40
1.0
 10
3.290546642553579
 20
9.23562086814771
 30
0.0
 10
3.290546642553579
 20
9.16226333862015
 30
0.0
 10
3.174281878774051
 20
9.16226333862015
 30
0.0
  0
SPLINE
  5
BC
330
1F
100
AcDbEntity
  8
VISIBLE
100
AcDbSpline
210
0.0
220
0.0
230
1.0
 70
     8
 71
     2
 72
     6
 73
     3
 74
     0
 42
0.000000001
 43
0.000001
 12
1.0
 22
0.0
 32
0.0
 13
1.0
 23
0.0
 33
0.0
 40
0.0
 40
0.0
 40
0.0
 40
1.0
 40
1.0
 40
1.0
 10
3.174281878774051
 20
9.309093739702828
 30
0.0
 10
3.290546642553579
 20
9.309093739702828
 30
0.0
 10
3.290546642553579
 20
9.23562086814771
 30
0.0
  0
SPLINE
  5
BD
330
1F
100
AcDbEntity
  8
VISIBLE
100
AcDbSpline
210
0.0
220
0.0
230
1.0
 70
     8
 71
     2
 72
     6
 73
     3
 74
     0
 42
0.000000001
 43
0.000001
 12
1.0
 22
0.0
 32
0.0
 13
1.0
 23
0.0
 33
0.0
 40
0.0
 40
0.0
 40
0.0
 40
1.0
 40
1.0
 40
1.0
 10
3.286740355644133
 20
8.807355919820939
 30
0.0
 10
3.266094132711061
 20
8.807355919820939
 30
0.0
 10
3.247351053232713
 20
8.820101213866215
 30
0.0
  0
SPLINE
  5
BE
330
1F
100
AcDbEntity
  8
VISIBLE
100
AcDbSpline
210
0.0
220
0.0
230
1.0
 70
     8
 71
     2
 72
     6
 73
     3
 74
     0
 42
0.000000001
 43
0.000001
 12
1.0
 22
0.0
 32
0.0
 13
1.0
 23
0.0
 33
0.0
 40
0.0
 40
0.0
 40
0.0
 40
1.0
 40
1.0
 40
1.0
 10
3.251964734335075
 20
8.11374663709456
 30
0.0
 10
3.236105205545705
 20
8.126722615194952
 30
0.0
 10
3.212806115978777
 20
8.126722615194952
 30
0.0
  0
SPLINE
  5
BF
330
1F
100
AcDbEntity
  8
VISIBLE
100
AcDbSpline
210
0.0
220
0.0
230
1.0
 70
     8
 71
     2
 72
     6
 73
     3
 74
     0
 42
0.000000001
 43
0.000001
 12
1.0
 22
0.0
 32
0.0
 13
1.0
 23
0.0
 33
0.0
 40
0.0
 40
0.0
 40
0.0
 40
1.0
 40
1.0
 40
1.0
 10
3.089217133449248
 20
9.083946101907552
 30
0.0
 10
3.080162784285864
 20
9.074718739702828
 30
0.0
 10
3.080162784285864
 20
9.057878803679206
 30
0.0
  0
SPLINE
  5
C0
330
1F
100
AcDbEntity
  8
VISIBLE
100
AcDbSpline
210
0.0
220
0.0
230
1.0
 70
     8
 71
     2
 72
     6
 73
     3
 74
     0
 42
0.000000001
 43
0.000001
 12
1.0
 22
0.0
 32
0.0
 13
1.0
 23
0.0
 33
0.0
 40
0.0
 40
0.0
 40
0.0
 40
1.0
 40
1.0
 40
1.0
 10
3.174281878774051
 20
9.279104812537474
 30
0.0
 10
3.121801256234681
 20
9.279104812537474
 30
0.0
 10
3.100982020260274
 20
9.268031977891804
 30
0.0
  0
LINE
  5
C1
330
1F
100
AcDbEntity
  8
VISIBLE
100
AcDbLine
 10
0.7566046527050165
 20
0.8207119611199545
 30
0.0
 11
0.7566046527050005
 21
12.39551511072625
 31
0.0
  0
LINE
  5
C2
330
1F
100
AcDbEntity
  8
VISIBLE
100
AcDbLine
 10
3.286740355644133
 20
7.761895782025662
 30
0.0
 11
3.286740355644133
 21
7.73294493310834
 31
0.0
  0
LINE
  5
C3
330
1F
100
AcDbEntity
  8
VISIBLE
100
AcDbLine
 10
2.882588904673518
 20
2.513625346946729
 30
0.0
 11
1.622746384988478
 21
2.513625346946724
 31
0.0
  0
LINE
  5
C4
330
1F
100
AcDbEntity
  8
VISIBLE
100
AcDbLine
 10
2.961329062153823
 20
8.990003299702632
 30
0.0
 11
2.488888117271935
 21
8.99000329970263
 31
0.0
  0
LINE
  5
C5
330
1F
100
AcDbEntity
  8
VISIBLE
100
AcDbLine
 10
3.061246691766179
 20
8.37736084108078
 30
0.0
 11
3.286740355644133
 21
8.289700900135898
 31
0.0
  0
SPLINE
  5
C6
330
1F
100
AcDbEntity
  8
VISIBLE
100
AcDbSpline
210
0.0
220
0.0
230
1.0
 70
     8
 71
     2
 72
     6
 73
     3
 74
     0
 42
0.000000001
 43
0.000001
 12
1.0
 22
0.0
 32
0.0
 13
1.0
 23
0.0
 33
0.0
 40
0.0
 40
0.0
 40
0.0
 40
1.0
 40
1.0
 40
1.0
 10
3.254732942996492
 20
9.092423740933143
 30
0.0
 10
3.24164162286854
 20
9.104476982813063
 30
0.0
 10
3.220880057907911
 20
9.104476982813063
 30
0.0
  0
LINE
  5
C7
330
1F
100
AcDbEntity
  8
VISIBLE
100
AcDbLine
 10
3.121109204069327
 20
7.678734180155583
 30
0.0
 11
3.098271482612637
 21
7.678734180155583
 31
0.0
  0
SPLINE
  5
C8
330
1F
100
AcDbEntity
  8
VISIBLE
100
AcDbSpline
210
0.0
220
0.0
230
1.0
 70
     8
 71
     2
 72
     6
 73
     3
 74
     0
 42
0.000000001
 43
0.000001
 12
1.0
 22
0.0
 32
0.0
 13
1.0
 23
0.0
 33
0.0
 40
0.0
 40
0.0
 40
0.0
 40
1.0
 40
1.0
 40
1.0
 10
3.072434868439407
 20
9.011453637586685
 30
0.0
 10
3.057440404856731
 20
9.030081375037472
 30
0.0
 10
3.057440404856731
 20
9.05730209354141
 30
0.0
  0
LINE
  5
C9
330
1F
100
AcDbEntity
  8
VISIBLE
100
AcDbLine
 10
3.057440404856731
 20
7.914839310568969
 30
0.0
 11
3.057440404856731
 21
7.937100321887868
 31
0.0
  0
LINE
  5
CA
330
1F
100
AcDbEntity
  8
VISIBLE
100
AcDbLine
 10
2.488888117271935
 20
8.202601724899482
 30
0.0
 11
2.961329062153826
 21
8.202601724899482
 31
0.0
  0
CIRCLE
  5
CB
330
1F
100
AcDbEntity
  8
VISIBLE
100
AcDbCircle
 10
1.91802197553965
 20
10.76165684300972
 30
0.0
 40
0.1082677165354315
  0
CIRCLE
  5
CC
330
1F
100
AcDbEntity
  8
VISIBLE
100
AcDbCircle
 10
2.902273944043593
 20
4.856145031986098
 30
0.0
 40
0.1082677165354333
  0
SPLINE
  5
CD
330
1F
100
AcDbEntity
  8
VISIBLE
100
AcDbSpline
210
0.0
220
0.0
230
1.0
 70
     8
 71
     2
 72
     6
 73
     3
 74
     0
 42
0.000000001
 43
0.000001
 12
1.0
 22
0.0
 32
0.0
 13
1.0
 23
0.0
 33
0.0
 40
0.0
 40
0.0
 40
0.0
 40
1.0
 40
1.0
 40
1.0
 10
3.057440404856731
 20
8.885788498561096
 30
0.0
 10
3.057440404856731
 20
8.919468370608339
 30
0.0
 10
3.075491432169722
 20
8.93780775299023
 30
0.0
  0
SPLINE
  5
CE
330
1F
100
AcDbEntity
  8
VISIBLE
100
AcDbSpline
210
0.0
220
0.0
230
1.0
 70
     8
 71
     2
 72
     6
 73
     3
 74
     0
 42
0.000000001
 43
0.000001
 12
1.0
 22
0.0
 32
0.0
 13
1.0
 23
0.0
 33
0.0
 40
0.0
 40
0.0
 40
0.0
 40
1.0
 40
1.0
 40
1.0
 10
3.090947263862637
 20
8.856260939505976
 30
0.0
 10
3.101731743439407
 20
8.844265368639835
 30
0.0
 10
3.122608650427596
 20
8.842765922281567
 30
0.0
  0
ARC
  5
CF
330
1F
100
AcDbEntity
  8
VISIBLE
100
AcDbCircle
 10
3.788100715697128
 20
12.39551511072625
 30
0.0
 40
0.1181102362204705
100
AcDbArc
 50
0.0000000000008617
 51
90.00000000000085
  0
ARC
  5
D0
330
1F
100
AcDbEntity
  8
VISIBLE
100
AcDbCircle
 10
2.882588904673518
 20
1.490003299702637
 30
0.0
 40
0.0787401574803148
100
AcDbArc
 50
270.0
 51
90.0
  0
SPLINE
  5
D1
330
1F
100
AcDbEntity
  8
VISIBLE
100
AcDbSpline
210
0.0
220
0.0
230
1.0
 70
     8
 71
     2
 72
     6
 73
     3
 74
     0
 42
0.000000001
 43
0.000001
 12
1.0
 22
0.0
 32
0.0
 13
1.0
 23
0.0
 33
0.0
 40
0.0
 40
0.0
 40
0.0
 40
1.0
 40
1.0
 40
1.0
 10
3.290546642553581
 20
8.079893752005976
 30
0.0
 10
3.290546642553581
 20
8.051288929171331
 30
0.0
 10
3.274744784777988
 20
8.030988732320937
 30
0.0
  0
SPLINE
  5
D2
330
1F
100
AcDbEntity
  8
VISIBLE
100
AcDbSpline
210
0.0
220
0.0
230
1.0
 70
     8
 71
     2
 72
     6
 73
     3
 74
     0
 42
0.000000001
 43
0.000001
 12
1.0
 22
0.0
 32
0.0
 13
1.0
 23
0.0
 33
0.0
 40
0.0
 40
0.0
 40
0.0
 40
1.0
 40
1.0
 40
1.0
 10
3.100982020260274
 20
9.268031977891804
 30
0.0
 10
3.080162784285864
 20
9.256959143246133
 30
0.0
 10
3.080162784285864
 20
9.23562086814771
 30
0.0
  0
CIRCLE
  5
D3
330
1F
100
AcDbEntity
  8
VISIBLE
100
AcDbCircle
 10
1.918021975539656
 20
4.856145031986096
 30
0.0
 40
0.1082677165354333
  0
SPLINE
  5
D4
330
1F
100
AcDbEntity
  8
VISIBLE
100
AcDbSpline
210
0.0
220
0.0
230
1.0
 70
     8
 71
     2
 72
     6
 73
     3
 74
     0
 42
0.000000001
 43
0.000001
 12
1.0
 22
0.0
 32
0.0
 13
1.0
 23
0.0
 33
0.0
 40
0.0
 40
0.0
 40
0.0
 40
1.0
 40
1.0
 40
1.0
 10
3.120186467848855
 20
8.926273550234324
 30
0.0
 10
3.101501059384288
 20
8.926273550234324
 30
0.0
 10
3.090831921835075
 20
8.915489070657552
 30
0.0
  0
LINE
  5
D5
330
1F
100
AcDbEntity
  8
VISIBLE
100
AcDbLine
 10
0.914084967665632
 20
11.72622377214357
 30
0.0
 11
0.914084967665632
 21
10.93882219734042
 31
0.0
  0
LINE
  5
D6
330
1F
100
AcDbEntity
  8
VISIBLE
100
AcDbLine
 10
3.591250321996352
 20
3.064806449308932
 30
0.0
 11
3.341250321996352
 21
3.064806449308932
 31
0.0
  0
LINE
  5
D7
330
1F
100
AcDbEntity
  8
VISIBLE
100
AcDbLine
 10
3.061246691766177
 20
9.531242484781567
 30
0.0
 11
3.286740355644129
 21
9.443582543836685
 31
0.0
  0
SPLINE
  5
D8
330
1F
100
AcDbEntity
  8
VISIBLE
100
AcDbSpline
210
0.0
220
0.0
230
1.0
 70
     8
 71
     2
 72
     6
 73
     3
 74
     0
 42
0.000000001
 43
0.000001
 12
1.0
 22
0.0
 32
0.0
 13
1.0
 23
0.0
 33
0.0
 40
0.0
 40
0.0
 40
0.0
 40
1.0
 40
1.0
 40
1.0
 10
3.109344317258305
 20
7.73294493310834
 30
0.0
 10
3.121109204069327
 20
7.715412944919362
 30
0.0
 10
3.121109204069327
 20
7.678734180155583
 30
0.0
  0
LINE
  5
D9
330
1F
100
AcDbEntity
  8
VISIBLE
100
AcDbLine
 10
2.646368432232576
 20
1.110082039860113
 30
0.0
 11
1.858966857429426
 21
1.110082039860113
 31
0.0
  0
SPLINE
  5
DA
330
1F
100
AcDbEntity
  8
VISIBLE
100
AcDbSpline
210
0.0
220
0.0
230
1.0
 70
     8
 71
     2
 72
     6
 73
     3
 74
     0
 42
0.000000001
 43
0.000001
 12
1.0
 22
0.0
 32
0.0
 13
1.0
 23
0.0
 33
0.0
 40
0.0
 40
0.0
 40
0.0
 40
1.0
 40
1.0
 40
1.0
 10
3.057440404856731
 20
9.23562086814771
 30
0.0
 10
3.057440404856731
 20
9.309093739702828
 30
0.0
 10
3.174281878774051
 20
9.309093739702828
 30
0.0
  0
ARC
  5
DB
330
1F
100
AcDbEntity
  8
VISIBLE
100
AcDbCircle
 10
1.62274638498848
 20
1.49000329970263
 30
0.0
 40
0.0787401574803148
100
AcDbArc
 50
90.0
 51
270.0
  0
SPLINE
  5
DC
330
1F
100
AcDbEntity
  8
VISIBLE
100
AcDbSpline
210
0.0
220
0.0
230
1.0
 70
     8
 71
     2
 72
     6
 73
     3
 74
     0
 42
0.000000001
 43
0.000001
 12
1.0
 22
0.0
 32
0.0
 13
1.0
 23
0.0
 33
0.0
 40
0.0
 40
0.0
 40
0.0
 40
1.0
 40
1.0
 40
1.0
 10
3.090831921835075
 20
8.915489070657552
 30
0.0
 10
3.080162784285864
 20
8.90470459108078
 30
0.0
 10
3.080162784285864
 20
8.8852117884233
 30
0.0
  0
SPLINE
  5
DD
330
1F
100
AcDbEntity
  8
VISIBLE
100
AcDbSpline
210
0.0
220
0.0
230
1.0
 70
     8
 71
     2
 72
     6
 73
     3
 74
     0
 42
0.000000001
 43
0.000001
 12
1.0
 22
0.0
 32
0.0
 13
1.0
 23
0.0
 33
0.0
 40
0.0
 40
0.0
 40
0.0
 40
1.0
 40
1.0
 40
1.0
 10
3.247351053232713
 20
8.820101213866215
 30
0.0
 10
3.228607973754366
 20
8.832846507911489
 30
0.0
 10
3.201156571195311
 20
8.866930077055189
 30
0.0
  0
LINE
  5
DE
330
1F
100
AcDbEntity
  8
VISIBLE
100
AcDbLine
 10
3.088006042159879
 20
8.049904824840622
 30
0.0
 11
3.150636763124448
 21
8.044945117655583
 31
0.0
  0
LINE
  5
DF
330
1F
100
AcDbEntity
  8
VISIBLE
100
AcDbLine
 10
3.227569895506337
 20
8.00745895869889
 30
0.0
 11
3.227569895506337
 21
8.037447885864244
 31
0.0
  0
SPLINE
  5
E0
330
1F
100
AcDbEntity
  8
VISIBLE
100
AcDbSpline
210
0.0
220
0.0
230
1.0
 70
     8
 71
     2
 72
     6
 73
     3
 74
     0
 42
0.000000001
 43
0.000001
 12
1.0
 22
0.0
 32
0.0
 13
1.0
 23
0.0
 33
0.0
 40
0.0
 40
0.0
 40
0.0
 40
1.0
 40
1.0
 40
1.0
 10
3.290546642553579
 20
9.060070302202826
 30
0.0
 10
3.290546642553579
 20
9.028235902596528
 30
0.0
 10
3.27318766740594
 20
9.008224060815031
 30
0.0
  0
LINE
  5
E1
330
1F
100
AcDbEntity
  8
VISIBLE
100
AcDbLine
 10
2.882588904673518
 20
1.883704087104209
 30
0.0
 11
1.622746384988478
 21
1.883704087104205
 31
0.0
  0
SPLINE
  5
E2
330
1F
100
AcDbEntity
  8
VISIBLE
100
AcDbSpline
210
0.0
220
0.0
230
1.0
 70
     8
 71
     2
 72
     6
 73
     3
 74
     0
 42
0.000000001
 43
0.000001
 12
1.0
 22
0.0
 32
0.0
 13
1.0
 23
0.0
 33
0.0
 40
0.0
 40
0.0
 40
0.0
 40
1.0
 40
1.0
 40
1.0
 10
3.267824263124446
 20
9.060070302202826
 30
0.0
 10
3.267824263124446
 20
9.08037049905322
 30
0.0
 10
3.254732942996492
 20
9.092423740933143
 30
0.0
  0
LINE
  5
E3
330
1F
100
AcDbEntity
  8
VISIBLE
100
AcDbLine
 10
3.176819403380351
 20
9.055456621100465
 30
0.0
 11
3.176819403380351
 21
9.044383786454794
 31
0.0
  0
SPLINE
  5
E4
330
1F
100
AcDbEntity
  8
VISIBLE
100
AcDbSpline
210
0.0
220
0.0
230
1.0
 70
     8
 71
     2
 72
     6
 73
     3
 74
     0
 42
0.000000001
 43
0.000001
 12
1.0
 22
0.0
 32
0.0
 13
1.0
 23
0.0
 33
0.0
 40
0.0
 40
0.0
 40
0.0
 40
1.0
 40
1.0
 40
1.0
 10
3.267708921096888
 20
8.135776964358339
 30
0.0
 10
3.290546642553581
 20
8.114727044328811
 30
0.0
 10
3.290546642553581
 20
8.079893752005976
 30
0.0
  0
LINE
  5
E5
330
1F
100
AcDbEntity
  8
VISIBLE
100
AcDbLine
 10
3.788100715697142
 20
0.7026017248994859
 30
0.0
 11
0.8747148889254888
 21
0.7026017248994818
 31
0.0
  0
SPLINE
  5
E6
330
1F
100
AcDbEntity
  8
VISIBLE
100
AcDbSpline
210
0.0
220
0.0
230
1.0
 70
     8
 71
     2
 72
     6
 73
     3
 74
     0
 42
0.000000001
 43
0.000001
 12
1.0
 22
0.0
 32
0.0
 13
1.0
 23
0.0
 33
0.0
 40
0.0
 40
0.0
 40
0.0
 40
1.0
 40
1.0
 40
1.0
 10
3.137141745900038
 20
8.086814273659519
 30
0.0
 10
3.137141745900038
 20
8.11495772838393
 30
0.0
 10
3.157038245653975
 20
8.135892306385896
 30
0.0
  0
LINE
  5
E7
330
1F
100
AcDbEntity
  8
VISIBLE
100
AcDbLine
 10
2.784163707823115
 20
7.690790701277437
 30
0.0
 11
1.957392054279811
 21
7.690790701277432
 31
0.0
  0
LINE
  5
E8
330
1F
100
AcDbEntity
  8
VISIBLE
100
AcDbLine
 10
3.180279664207124
 20
8.015532900628024
 30
0.0
 11
3.061246691766179
 21
8.025106288915424
 31
0.0
  0
ARC
  5
E9
330
1F
100
AcDbEntity
  8
VISIBLE
100
AcDbCircle
 10
2.882588904673518
 20
1.804963929623894
 30
0.0
 40
0.0787401574803144
100
AcDbArc
 50
270.0
 51
90.0
  0
LINE
  5
EA
330
1F
100
AcDbEntity
  8
VISIBLE
100
AcDbLine
 10
1.858966857429426
 20
0.8600820398601126
 30
0.0
 11
2.646368432232576
 21
0.8600820398601126
 31
0.0
  0
ARC
  5
EB
330
1F
100
AcDbEntity
  8
VISIBLE
100
AcDbCircle
 10
3.748730636956969
 20
12.3561450319861
 30
0.0
 40
0.1574803149606296
100
AcDbArc
 50
270.0
 51
0.0000000000006463
  0
LINE
  5
EC
330
1F
100
AcDbEntity
  8
VISIBLE
100
AcDbLine
 10
3.286740355644133
 20
7.73294493310834
 30
0.0
 11
3.109344317258305
 21
7.73294493310834
 31
0.0
  0
SPLINE
  5
ED
330
1F
100
AcDbEntity
  8
VISIBLE
100
AcDbSpline
210
0.0
220
0.0
230
1.0
 70
     8
 71
     2
 72
     6
 73
     3
 74
     0
 42
0.000000001
 43
0.000001
 12
1.0
 22
0.0
 32
0.0
 13
1.0
 23
0.0
 33
0.0
 40
0.0
 40
0.0
 40
0.0
 40
1.0
 40
1.0
 40
1.0
 10
3.122608650427596
 20
8.812776995116213
 30
0.0
 10
3.09296574934492
 20
8.815199177694954
 30
0.0
 10
3.075203077100824
 20
8.834634309338654
 30
0.0
  0
LINE
  5
EE
330
1F
100
AcDbEntity
  8
VISIBLE
100
AcDbLine
 10
3.286740355644129
 20
9.412786222478417
 30
0.0
 11
3.061246691766177
 21
9.325126281533535
 31
0.0
  0
LINE
  5
EF
330
1F
100
AcDbEntity
  8
VISIBLE
100
AcDbLine
 10
3.259981005250429
 20
8.956723845509915
 30
0.0
 11
3.286740355644129
 21
8.956723845509915
 31
0.0
  0
SPLINE
  5
F0
330
1F
100
AcDbEntity
  8
VISIBLE
100
AcDbSpline
210
0.0
220
0.0
230
1.0
 70
     8
 71
     2
 72
     6
 73
     3
 74
     0
 42
0.000000001
 43
0.000001
 12
1.0
 22
0.0
 32
0.0
 13
1.0
 23
0.0
 33
0.0
 40
0.0
 40
0.0
 40
0.0
 40
1.0
 40
1.0
 40
1.0
 10
3.247235711205153
 20
9.203325100431174
 30
0.0
 10
3.267824263124446
 20
9.214397935076843
 30
0.0
 10
3.267824263124446
 20
9.23562086814771
 30
0.0
  0
LINE
  5
F1
330
1F
100
AcDbEntity
  8
VISIBLE
100
AcDbLine
 10
2.961329062153826
 20
8.202601724899482
 30
0.0
 11
2.961329062153823
 21
8.990003299702632
 31
0.0
  0
LINE
  5
F2
330
1F
100
AcDbEntity
  8
VISIBLE
100
AcDbLine
 10
3.061246691766179
 20
8.145984733797313
 30
0.0
 11
3.088006042159879
 21
8.145984733797313
 31
0.0
  0
ARC
  5
F3
330
1F
100
AcDbEntity
  8
VISIBLE
100
AcDbCircle
 10
3.788100715697142
 20
0.8207119611199587
 30
0.0
 40
0.1181102362204728
100
AcDbArc
 50
270.0
 51
0.0
  0
LINE
  5
F4
330
1F
100
AcDbEntity
  8
VISIBLE
100
AcDbLine
 10
3.286740355644133
 20
7.908149472970543
 30
0.0
 11
3.109344317258305
 21
7.908149472970543
 31
0.0
  0
ARC
  5
F5
330
1F
100
AcDbEntity
  8
VISIBLE
100
AcDbCircle
 10
3.748730636956983
 20
0.8600820398601153
 30
0.0
 40
0.1574803149606314
100
AcDbArc
 50
0.0
 51
90.0
  0
LINE
  5
F6
330
1F
100
AcDbEntity
  8
VISIBLE
100
AcDbLine
 10
3.176819403380351
 20
9.044383786454794
 30
0.0
 11
3.154212365978776
 21
9.044383786454794
 31
0.0
  0
ARC
  5
F7
330
1F
100
AcDbEntity
  8
VISIBLE
100
AcDbCircle
 10
1.957392054279811
 20
7.336459992616016
 30
0.0
 40
0.0787401574803148
100
AcDbArc
 50
90.0
 51
270.0
  0
ARC
  5
F8
330
1F
100
AcDbEntity
  8
VISIBLE
100
AcDbCircle
 10
0.8747148889254888
 20
0.8207119611199545
 30
0.0
 40
0.118110236220474
100
AcDbArc
 50
180.0
 51
270.0
  0
SPLINE
  5
F9
330
1F
100
AcDbEntity
  8
VISIBLE
100
AcDbSpline
210
0.0
220
0.0
230
1.0
 70
     8
 71
     2
 72
     6
 73
     3
 74
     0
 42
0.000000001
 43
0.000001
 12
1.0
 22
0.0
 32
0.0
 13
1.0
 23
0.0
 33
0.0
 40
0.0
 40
0.0
 40
0.0
 40
1.0
 40
1.0
 40
1.0
 10
3.057440404856731
 20
9.05730209354141
 30
0.0
 10
3.057440404856731
 20
9.087406362734322
 30
0.0
 10
3.073818972770116
 20
9.105284377005976
 30
0.0
  0
LINE
  5
FA
330
1F
100
AcDbEntity
  8
VISIBLE
100
AcDbLine
 10
3.121109204069327
 20
7.853938720017787
 30
0.0
 11
3.098271482612637
 21
7.853938720017787
 31
0.0
  0
SPLINE
  5
FB
330
1F
100
AcDbEntity
  8
VISIBLE
100
AcDbSpline
210
0.0
220
0.0
230
1.0
 70
     8
 71
     2
 72
     6
 73
     3
 74
     0
 42
0.000000001
 43
0.000001
 12
1.0
 22
0.0
 32
0.0
 13
1.0
 23
0.0
 33
0.0
 40
0.0
 40
0.0
 40
0.0
 40
1.0
 40
1.0
 40
1.0
 10
3.183855267061453
 20
9.123393075332748
 30
0.0
 10
3.199426440781926
 20
9.134581252005978
 30
0.0
 10
3.220303347770116
 20
9.134581252005978
 30
0.0
  0
SPLINE
  5
FC
330
1F
100
AcDbEntity
  8
VISIBLE
100
AcDbSpline
210
0.0
220
0.0
230
1.0
 70
     8
 71
     2
 72
     6
 73
     3
 74
     0
 42
0.000000001
 43
0.000001
 12
1.0
 22
0.0
 32
0.0
 13
1.0
 23
0.0
 33
0.0
 40
0.0
 40
0.0
 40
0.0
 40
1.0
 40
1.0
 40
1.0
 10
3.220880057907911
 20
9.104476982813063
 30
0.0
 10
3.199657124837042
 20
9.104476982813063
 30
0.0
 10
3.188238264108698
 20
9.091962372822906
 30
0.0
  0
SPLINE
  5
FD
330
1F
100
AcDbEntity
  8
VISIBLE
100
AcDbSpline
210
0.0
220
0.0
230
1.0
 70
     8
 71
     2
 72
     6
 73
     3
 74
     0
 42
0.000000001
 43
0.000001
 12
1.0
 22
0.0
 32
0.0
 13
1.0
 23
0.0
 33
0.0
 40
0.0
 40
0.0
 40
0.0
 40
1.0
 40
1.0
 40
1.0
 10
3.267824263124446
 20
9.23562086814771
 30
0.0
 10
3.267824263124446
 20
9.256959143246133
 30
0.0
 10
3.247235711205153
 20
9.268031977891804
 30
0.0
  0
CIRCLE
  5
FE
330
1F
100
AcDbEntity
  8
VISIBLE
100
AcDbCircle
 10
2.902273944043587
 20
10.76165684300972
 30
0.0
 40
0.1082677165354315
  0
SPLINE
  5
FF
330
1F
100
AcDbEntity
  8
VISIBLE
100
AcDbSpline
210
0.0
220
0.0
230
1.0
 70
     8
 71
     2
 72
     6
 73
     3
 74
     0
 42
0.000000001
 43
0.000001
 12
1.0
 22
0.0
 32
0.0
 13
1.0
 23
0.0
 33
0.0
 40
0.0
 40
0.0
 40
0.0
 40
1.0
 40
1.0
 40
1.0
 10
3.210153249344918
 20
8.156826884387867
 30
0.0
 10
3.244871199640194
 20
8.156826884387867
 30
0.0
 10
3.267708921096888
 20
8.135776964358339
 30
0.0
  0
LINE
  5
100
330
1F
100
AcDbEntity
  8
VISIBLE
100
AcDbLine
 10
2.882588904673518
 20
1.56874345718295
 30
0.0
 11
1.62274638498848
 21
1.568743457182945
 31
0.0
  0
LINE
  5
101
330
1F
100
AcDbEntity
  8
VISIBLE
100
AcDbLine
 10
1.164084967665632
 20
11.72622377214357
 30
0.0
 11
0.914084967665632
 21
11.72622377214357
 31
0.0
  0
ARC
  5
102
330
1F
100
AcDbEntity
  8
VISIBLE
100
AcDbCircle
 10
1.62274638498848
 20
1.804963929623889
 30
0.0
 40
0.0787401574803162
100
AcDbArc
 50
90.00000000000128
 51
270.0
  0
SPLINE
  5
103
330
1F
100
AcDbEntity
  8
VISIBLE
100
AcDbSpline
210
0.0
220
0.0
230
1.0
 70
     8
 71
     2
 72
     6
 73
     3
 74
     0
 42
0.000000001
 43
0.000001
 12
1.0
 22
0.0
 32
0.0
 13
1.0
 23
0.0
 33
0.0
 40
0.0
 40
0.0
 40
0.0
 40
1.0
 40
1.0
 40
1.0
 10
3.227569895506337
 20
8.037447885864244
 30
0.0
 10
3.247985434384288
 20
8.039870068442983
 30
0.0
 10
3.257904848754368
 20
8.051634955254007
 30
0.0
  0
SPLINE
  5
104
330
1F
100
AcDbEntity
  8
VISIBLE
100
AcDbSpline
210
0.0
220
0.0
230
1.0
 70
     8
 71
     2
 72
     6
 73
     3
 74
     0
 42
0.000000001
 43
0.000001
 12
1.0
 22
0.0
 32
0.0
 13
1.0
 23
0.0
 33
0.0
 40
0.0
 40
0.0
 40
0.0
 40
1.0
 40
1.0
 40
1.0
 10
3.143312544374446
 20
9.115376804417394
 30
0.0
 10
3.156173180447279
 20
9.107591217557157
 30
0.0
 10
3.162978360073266
 20
9.091558675726448
 30
0.0
  0
LINE
  5
105
330
1F
100
AcDbEntity
  8
VISIBLE
100
AcDbLine
 10
3.122608650427596
 20
8.842765922281567
 30
0.0
 11
3.122608650427596
 21
8.812776995116213
 31
0.0
  0
SPLINE
  5
106
330
1F
100
AcDbEntity
  8
VISIBLE
100
AcDbSpline
210
0.0
220
0.0
230
1.0
 70
     8
 71
     2
 72
     6
 73
     3
 74
     0
 42
0.000000001
 43
0.000001
 12
1.0
 22
0.0
 32
0.0
 13
1.0
 23
0.0
 33
0.0
 40
0.0
 40
0.0
 40
0.0
 40
1.0
 40
1.0
 40
1.0
 10
3.27318766740594
 20
9.008224060815031
 30
0.0
 10
3.255828692258305
 20
8.988212219033535
 30
0.0
 10
3.227223869423659
 20
8.986712772675267
 30
0.0
  0
LINE
  5
107
330
1F
100
AcDbEntity
  8
VISIBLE
100
AcDbLine
 10
2.882588904673518
 20
2.82858597686799
 30
0.0
 11
1.622746384988478
 21
2.828585976867984
 31
0.0
  0
LINE
  5
108
330
1F
100
AcDbEntity
  8
VISIBLE
100
AcDbLine
 10
3.341250321996352
 20
1.490003299702634
 30
0.0
 11
3.591250321996354
 21
1.490003299702634
 31
0.0
  0
LINE
  5
109
330
1F
100
AcDbEntity
  8
VISIBLE
100
AcDbLine
 10
3.227223869423659
 20
8.986712772675267
 30
0.0
 11
3.227223869423659
 21
9.016701699840622
 31
0.0
  0
SPLINE
  5
10A
330
1F
100
AcDbEntity
  8
VISIBLE
100
AcDbSpline
210
0.0
220
0.0
230
1.0
 70
     8
 71
     2
 72
     6
 73
     3
 74
     0
 42
0.000000001
 43
0.000001
 12
1.0
 22
0.0
 32
0.0
 13
1.0
 23
0.0
 33
0.0
 40
0.0
 40
0.0
 40
0.0
 40
1.0
 40
1.0
 40
1.0
 10
3.12076317798665
 20
8.956147135372118
 30
0.0
 10
3.145446371884287
 20
8.956147135372118
 30
0.0
 10
3.164247122376414
 20
8.94259444713393
 30
0.0
  0
LINE
  5
10B
330
1F
100
AcDbEntity
  8
VISIBLE
100
AcDbLine
 10
3.088006042159879
 20
8.145984733797313
 30
0.0
 11
3.088006042159879
 21
8.049904824840622
 31
0.0
  0
LINE
  5
10C
330
1F
100
AcDbEntity
  8
VISIBLE
100
AcDbLine
 10
1.62274638498848
 20
1.411263142222315
 30
0.0
 11
2.882588904673518
 21
1.411263142222321
 31
0.0
  0
SPLINE
  5
10D
330
1F
100
AcDbEntity
  8
VISIBLE
100
AcDbSpline
210
0.0
220
0.0
230
1.0
 70
     8
 71
     2
 72
     6
 73
     3
 74
     0
 42
0.000000001
 43
0.000001
 12
1.0
 22
0.0
 32
0.0
 13
1.0
 23
0.0
 33
0.0
 40
0.0
 40
0.0
 40
0.0
 40
1.0
 40
1.0
 40
1.0
 10
3.227223869423659
 20
9.016701699840622
 30
0.0
 10
3.243833121392161
 20
9.016701699840622
 30
0.0
 10
3.255828692258305
 20
9.02794754752763
 30
0.0
  0
SPLINE
  5
10E
330
1F
100
AcDbEntity
  8
VISIBLE
100
AcDbSpline
210
0.0
220
0.0
230
1.0
 70
     8
 71
     2
 72
     6
 73
     3
 74
     0
 42
0.000000001
 43
0.000001
 12
1.0
 22
0.0
 32
0.0
 13
1.0
 23
0.0
 33
0.0
 40
0.0
 40
0.0
 40
0.0
 40
1.0
 40
1.0
 40
1.0
 10
3.2710538398961
 20
9.113185305893772
 30
0.0
 10
3.290546642553579
 20
9.091789359781567
 30
0.0
 10
3.290546642553579
 20
9.060070302202826
 30
0.0
  0
SPLINE
  5
10F
330
1F
100
AcDbEntity
  8
VISIBLE
100
AcDbSpline
210
0.0
220
0.0
230
1.0
 70
     8
 71
     2
 72
     6
 73
     3
 74
     0
 42
0.000000001
 43
0.000001
 12
1.0
 22
0.0
 32
0.0
 13
1.0
 23
0.0
 33
0.0
 40
0.0
 40
0.0
 40
0.0
 40
1.0
 40
1.0
 40
1.0
 10
3.174281878774051
 20
9.192252265785504
 30
0.0
 10
3.226647159285864
 20
9.192252265785504
 30
0.0
 10
3.247235711205153
 20
9.203325100431174
 30
0.0
  0
LINE
  5
110
330
1F
100
AcDbEntity
  8
VISIBLE
100
AcDbLine
 10
3.061246691766177
 20
9.356960681139835
 30
0.0
 11
3.254559929955155
 21
9.428126712143772
 31
0.0
  0
SPLINE
  5
111
330
1F
100
AcDbEntity
  8
VISIBLE
100
AcDbSpline
210
0.0
220
0.0
230
1.0
 70
     8
 71
     2
 72
     6
 73
     3
 74
     0
 42
0.000000001
 43
0.000001
 12
1.0
 22
0.0
 32
0.0
 13
1.0
 23
0.0
 33
0.0
 40
0.0
 40
0.0
 40
0.0
 40
1.0
 40
1.0
 40
1.0
 10
3.080162784285864
 20
9.057878803679206
 30
0.0
 10
3.080162784285864
 20
9.023506879466606
 30
0.0
 10
3.116034154856727
 20
9.019469908502039
 30
0.0
  0
LINE
  5
112
330
1F
100
AcDbEntity
  8
VISIBLE
100
AcDbLine
 10
2.784163707823119
 20
7.415200150096333
 30
0.0
 11
1.957392054279811
 21
7.41520015009633
 31
0.0
  0
SPLINE
  5
113
330
1F
100
AcDbEntity
  8
VISIBLE
100
AcDbSpline
210
0.0
220
0.0
230
1.0
 70
     8
 71
     2
 72
     6
 73
     3
 74
     0
 42
0.000000001
 43
0.000001
 12
1.0
 22
0.0
 32
0.0
 13
1.0
 23
0.0
 33
0.0
 40
0.0
 40
0.0
 40
0.0
 40
1.0
 40
1.0
 40
1.0
 10
3.220303347770116
 20
9.134581252005978
 30
0.0
 10
3.251561037238618
 20
9.134581252005978
 30
0.0
 10
3.2710538398961
 20
9.113185305893772
 30
0.0
  0
LINE
  5
114
330
1F
100
AcDbEntity
  8
VISIBLE
100
AcDbLine
 10
3.906210951917599
 20
12.39551511072625
 30
0.0
 11
3.906210951917599
 21
12.3561450319861
 31
0.0
  0
LINE
  5
115
330
1F
100
AcDbEntity
  8
VISIBLE
100
AcDbLine
 10
1.622746384988478
 20
2.671105661907355
 30
0.0
 11
2.882588904673518
 21
2.671105661907359
 31
0.0
  0
LINE
  5
116
330
1F
100
AcDbEntity
  8
VISIBLE
100
AcDbLine
 10
3.254559929955155
 20
8.274245068442985
 30
0.0
 11
3.061246691766179
 21
8.345526441474481
 31
0.0
  0
ARC
  5
117
330
1F
100
AcDbEntity
  8
VISIBLE
100
AcDbCircle
 10
1.957392054279811
 20
7.612050543797118
 30
0.0
 40
0.0787401574803148
100
AcDbArc
 50
90.0
 51
270.0
  0
LINE
  5
118
330
1F
100
AcDbEntity
  8
VISIBLE
100
AcDbLine
 10
3.057440404856731
 20
7.937100321887868
 30
0.0
 11
3.286740355644133
 21
7.937100321887868
 31
0.0
  0
SPLINE
  5
119
330
1F
100
AcDbEntity
  8
VISIBLE
100
AcDbSpline
210
0.0
220
0.0
230
1.0
 70
     8
 71
     2
 72
     6
 73
     3
 74
     0
 42
0.000000001
 43
0.000001
 12
1.0
 22
0.0
 32
0.0
 13
1.0
 23
0.0
 33
0.0
 40
0.0
 40
0.0
 40
0.0
 40
1.0
 40
1.0
 40
1.0
 10
3.15732660072287
 20
8.913643598216606
 30
0.0
 10
3.140948032809485
 20
8.926273550234324
 30
0.0
 10
3.120186467848855
 20
8.926273550234324
 30
0.0
  0
SPLINE
  5
11A
330
1F
100
AcDbEntity
  8
VISIBLE
100
AcDbSpline
210
0.0
220
0.0
230
1.0
 70
     8
 71
     2
 72
     6
 73
     3
 74
     0
 42
0.000000001
 43
0.000001
 12
1.0
 22
0.0
 32
0.0
 13
1.0
 23
0.0
 33
0.0
 40
0.0
 40
0.0
 40
0.0
 40
1.0
 40
1.0
 40
1.0
 10
3.116034154856727
 20
9.12316239127763
 30
0.0
 10
3.130451908301611
 20
9.12316239127763
 30
0.0
 10
3.143312544374446
 20
9.115376804417394
 30
0.0
  0
LINE
  5
11B
330
1F
100
AcDbEntity
  8
VISIBLE
100
AcDbLine
 10
1.62274638498848
 20
2.041184402064834
 30
0.0
 11
2.882588904673518
 21
2.04118440206484
 31
0.0
  0
ARC
  5
11C
330
1F
100
AcDbEntity
  8
VISIBLE
100
AcDbCircle
 10
1.622746384988478
 20
2.749845819387669
 30
0.0
 40
0.0787401574803148
100
AcDbArc
 50
90.0
 51
270.0
  0
SPLINE
  5
11D
330
1F
100
AcDbEntity
  8
VISIBLE
100
AcDbSpline
210
0.0
220
0.0
230
1.0
 70
     8
 71
     2
 72
     6
 73
     3
 74
     0
 42
0.000000001
 43
0.000001
 12
1.0
 22
0.0
 32
0.0
 13
1.0
 23
0.0
 33
0.0
 40
0.0
 40
0.0
 40
0.0
 40
1.0
 40
1.0
 40
1.0
 10
3.080162784285864
 20
8.8852117884233
 30
0.0
 10
3.080162784285864
 20
8.86825651037212
 30
0.0
 10
3.090947263862637
 20
8.856260939505976
 30
0.0
  0
LINE
  5
11E
330
1F
100
AcDbEntity
  8
VISIBLE
100
AcDbLine
 10
1.164084967665646
 20
1.490003299702631
 30
0.0
 11
1.164084967665643
 21
2.27740487450578
 31
0.0
  0
SPLINE
  5
11F
330
1F
100
AcDbEntity
  8
VISIBLE
100
AcDbSpline
210
0.0
220
0.0
230
1.0
 70
     8
 71
     2
 72
     6
 73
     3
 74
     0
 42
0.000000001
 43
0.000001
 12
1.0
 22
0.0
 32
0.0
 13
1.0
 23
0.0
 33
0.0
 40
0.0
 40
0.0
 40
0.0
 40
1.0
 40
1.0
 40
1.0
 10
3.201156571195311
 20
8.866930077055189
 30
0.0
 10
3.173705168636255
 20
8.90101364619889
 30
0.0
 10
3.15732660072287
 20
8.913643598216606
 30
0.0
  0
SPLINE
  5
120
330
1F
100
AcDbEntity
  8
VISIBLE
100
AcDbSpline
210
0.0
220
0.0
230
1.0
 70
     8
 71
     2
 72
     6
 73
     3
 74
     0
 42
0.000000001
 43
0.000001
 12
1.0
 22
0.0
 32
0.0
 13
1.0
 23
0.0
 33
0.0
 40
0.0
 40
0.0
 40
0.0
 40
1.0
 40
1.0
 40
1.0
 10
3.212806115978777
 20
8.126722615194952
 30
0.0
 10
3.189045658301612
 20
8.126722615194952
 30
0.0
 10
3.175377628035864
 20
8.11351595303944
 30
0.0
  0
SPLINE
  5
121
330
1F
100
AcDbEntity
  8
VISIBLE
100
AcDbSpline
210
0.0
220
0.0
230
1.0
 70
     8
 71
     2
 72
     6
 73
     3
 74
     0
 42
0.000000001
 43
0.000001
 12
1.0
 22
0.0
 32
0.0
 13
1.0
 23
0.0
 33
0.0
 40
0.0
 40
0.0
 40
0.0
 40
1.0
 40
1.0
 40
1.0
 10
3.098271482612637
 20
7.678734180155583
 30
0.0
 10
3.098271482612637
 20
7.731791512832749
 30
0.0
 10
3.057440404856731
 20
7.739634770706764
 30
0.0
  0
SPLINE
  5
122
330
1F
100
AcDbEntity
  8
VISIBLE
100
AcDbSpline
210
0.0
220
0.0
230
1.0
 70
     8
 71
     2
 72
     6
 73
     3
 74
     0
 42
0.000000001
 43
0.000001
 12
1.0
 22
0.0
 32
0.0
 13
1.0
 23
0.0
 33
0.0
 40
0.0
 40
0.0
 40
0.0
 40
1.0
 40
1.0
 40
1.0
 10
3.162978360073266
 20
9.091558675726448
 30
0.0
 10
3.168284093340981
 20
9.11220489865952
 30
0.0
 10
3.183855267061453
 20
9.123393075332748
 30
0.0
  0
SPLINE
  5
123
330
1F
100
AcDbEntity
  8
VISIBLE
100
AcDbSpline
210
0.0
220
0.0
230
1.0
 70
     8
 71
     2
 72
     6
 73
     3
 74
     0
 42
0.000000001
 43
0.000001
 12
1.0
 22
0.0
 32
0.0
 13
1.0
 23
0.0
 33
0.0
 40
0.0
 40
0.0
 40
0.0
 40
1.0
 40
1.0
 40
1.0
 10
3.161709597770114
 20
8.079201699840622
 30
0.0
 10
3.161709597770114
 20
8.05509521608078
 30
0.0
 10
3.180279664207124
 20
8.038370622084717
 30
0.0
  0
SPLINE
  5
124
330
1F
100
AcDbEntity
  8
VISIBLE
100
AcDbSpline
210
0.0
220
0.0
230
1.0
 70
     8
 71
     2
 72
     6
 73
     3
 74
     0
 42
0.000000001
 43
0.000001
 12
1.0
 22
0.0
 32
0.0
 13
1.0
 23
0.0
 33
0.0
 40
0.0
 40
0.0
 40
0.0
 40
1.0
 40
1.0
 40
1.0
 10
3.255828692258305
 20
9.02794754752763
 30
0.0
 10
3.267824263124446
 20
9.039193395214637
 30
0.0
 10
3.267824263124446
 20
9.060070302202826
 30
0.0
  0
SPLINE
  5
125
330
1F
100
AcDbEntity
  8
VISIBLE
100
AcDbSpline
210
0.0
220
0.0
230
1.0
 70
     8
 71
     2
 72
     6
 73
     3
 74
     0
 42
0.000000001
 43
0.000001
 12
1.0
 22
0.0
 32
0.0
 13
1.0
 23
0.0
 33
0.0
 40
0.0
 40
0.0
 40
0.0
 40
1.0
 40
1.0
 40
1.0
 10
3.150636763124448
 20
8.044945117655583
 30
0.0
 10
3.137141745900038
 20
8.061669711651646
 30
0.0
 10
3.137141745900038
 20
8.086814273659519
 30
0.0
  0
ARC
  5
126
330
1F
100
AcDbEntity
  8
VISIBLE
100
AcDbCircle
 10
2.882588904673518
 20
2.119924559545154
 30
0.0
 40
0.0787401574803162
100
AcDbArc
 50
270.0
 51
90.0
  0
LINE
  5
127
330
1F
100
AcDbEntity
  8
VISIBLE
100
AcDbLine
 10
3.286740355644133
 20
7.937100321887868
 30
0.0
 11
3.286740355644133
 21
7.908149472970543
 31
0.0
  0
LINE
  5
128
330
1F
100
AcDbEntity
  8
VISIBLE
100
AcDbLine
 10
2.882588904673518
 20
2.198664717025469
 30
0.0
 11
1.622746384988478
 21
2.198664717025463
 31
0.0
  0
ARC
  5
129
330
1F
100
AcDbEntity
  8
VISIBLE
100
AcDbCircle
 10
9.677884379610116
 20
10.42980911906746
 30
0.0
 40
0.0787401574803152
100
AcDbArc
 50
135.0
 51
315.0
  0
LINE
  5
12A
330
1F
100
AcDbEntity
  8
VISIBLE
100
AcDbLine
 10
10.32353378656333
 20
11.17504266978143
 30
0.0
 11
9.81172276294128
 21
11.17504266978142
 31
0.0
  0
ARC
  5
12B
330
1F
100
AcDbEntity
  8
VISIBLE
100
AcDbCircle
 10
9.844917477528199
 20
10.26277602114938
 30
0.0
 40
0.0787401574803139
100
AcDbArc
 50
135.0000000000009
 51
315.0000000000009
  0
LINE
  5
12C
330
1F
100
AcDbEntity
  8
VISIBLE
100
AcDbLine
 10
10.93377000703577
 20
10.40732613434836
 30
0.0
 11
10.93377000703578
 21
9.895515110726311
 31
0.0
  0
LINE
  5
12D
330
1F
100
AcDbEntity
  8
VISIBLE
100
AcDbLine
 10
9.81172276294128
 20
11.01756235482079
 30
0.0
 11
10.32353378656333
 21
11.0175623548208
 31
0.0
  0
ARC
  5
12E
330
1F
100
AcDbEntity
  8
VISIBLE
100
AcDbCircle
 10
10.5400692196342
 20
10.07268046505702
 30
0.0
 40
0.0787401574803148
100
AcDbArc
 50
180.0
 51
0.0000000000012926
  0
LINE
  5
12F
330
1F
100
AcDbEntity
  8
VISIBLE
100
AcDbLine
 10
9.622206680304085
 20
10.81955301420966
 30
0.0
 11
9.399495883079979
 21
10.59684221698554
 31
0.0
  0
CIRCLE
  5
130
330
1F
100
AcDbEntity
  8
VISIBLE
100
AcDbCircle
 10
9.072389399657062
 20
11.14665949763256
 30
0.0
 40
0.0826771653543332
  0
LINE
  5
131
330
1F
100
AcDbEntity
  8
VISIBLE
100
AcDbLine
 10
8.473140085775924
 20
10.97819227608063
 30
0.0
 11
8.47314008577592
 21
11.68685369340346
 31
0.0
  0
ARC
  5
132
330
1F
100
AcDbEntity
  8
VISIBLE
100
AcDbCircle
 10
9.455173582386006
 20
10.54116451767952
 30
0.0
 40
0.0787401574803139
100
AcDbArc
 50
135.0000000000009
 51
315.0
  0
LINE
  5
133
330
1F
100
AcDbEntity
  8
VISIBLE
100
AcDbLine
 10
9.733562078916147
 20
9.594643629477055
 30
0.0
 11
9.510851281692037
 21
9.817354426701163
 31
0.0
  0
ARC
  5
134
330
1F
100
AcDbEntity
  8
VISIBLE
100
AcDbCircle
 10
9.580448405824573
 20
9.302335708120411
 30
0.0
 40
0.0787401574803152
100
AcDbArc
 50
225.0000000000018
 51
45.0
  0
LINE
  5
135
330
1F
100
AcDbEntity
  8
VISIBLE
100
AcDbLine
 10
9.201486542468846
 20
9.895515110726302
 30
0.0
 11
9.201486542468842
 21
10.40732613434835
 31
0.0
  0
LINE
  5
136
330
1F
100
AcDbEntity
  8
VISIBLE
100
AcDbLine
 10
9.900595176834226
 20
10.20709832184336
 30
0.0
 11
10.01195057544628
 21
10.31845372045541
 31
0.0
  0
LINE
  5
137
330
1F
100
AcDbEntity
  8
VISIBLE
100
AcDbLine
 10
9.900595176834225
 20
10.42980911906747
 30
0.0
 11
9.789239778222171
 21
10.31845372045541
 31
0.0
  0
ARC
  5
138
330
1F
100
AcDbEntity
  8
VISIBLE
100
AcDbCircle
 10
9.78923977822217
 20
10.54116451767952
 30
0.0
 40
0.0787401574803139
100
AcDbArc
 50
315.0000000000009
 51
135.0000000000009
  0
LINE
  5
139
330
1F
100
AcDbEntity
  8
VISIBLE
100
AcDbLine
 10
9.910147959791676
 20
10.78134188237985
 30
0.0
 11
10.22510858971294
 21
10.78134188237985
 31
0.0
  0
LINE
  5
13A
330
1F
100
AcDbEntity
  8
VISIBLE
100
AcDbLine
 10
10.29033907197642
 20
10.4854868183735
 30
0.0
 11
10.40169447058847
 21
10.37413141976144
 31
0.0
  0
ARC
  5
13B
330
1F
100
AcDbEntity
  8
VISIBLE
100
AcDbCircle
 10
9.427864495224789
 20
3.549597671067311
 30
0.0
 40
0.0787401574803148
100
AcDbArc
 50
90.0
 51
270.0
  0
ARC
  5
13C
330
1F
100
AcDbEntity
  8
VISIBLE
100
AcDbCircle
 10
10.32353378656334
 20
9.206538732773554
 30
0.0
 40
0.0787401574803166
100
AcDbArc
 50
270.0
 51
90.0
  0
LINE
  5
13D
330
1F
100
AcDbEntity
  8
VISIBLE
100
AcDbLine
 10
12.41999047947676
 20
3.785818143508272
 30
0.0
 11
9.427864495224789
 21
3.785818143508255
 31
0.0
  0
ARC
  5
13E
330
1F
100
AcDbEntity
  8
VISIBLE
100
AcDbCircle
 10
8.51251016451614
 20
1.529373378442833
 30
0.0
 40
0.0393700787401574
100
AcDbArc
 50
180.0
 51
270.0
  0
LINE
  5
13F
330
1F
100
AcDbEntity
  8
VISIBLE
100
AcDbLine
 10
10.40169447058848
 20
9.705999028089114
 30
0.0
 11
10.51304986920053
 21
9.817354426701169
 31
0.0
  0
LINE
  5
140
330
1F
100
AcDbEntity
  8
VISIBLE
100
AcDbLine
 10
8.689675518846853
 20
0.7026017248995268
 30
0.0
 11
8.689675518846848
 21
1.490003299702676
 31
0.0
  0
ARC
  5
141
330
1F
100
AcDbEntity
  8
VISIBLE
100
AcDbCircle
 10
8.512510164516078
 20
11.68685369340346
 30
0.0
 40
0.0393700787401592
100
AcDbArc
 50
90.0
 51
180.0
  0
LINE
  5
142
330
1F
100
AcDbEntity
  8
VISIBLE
100
AcDbLine
 10
10.61048584298608
 20
9.24665800881439
 30
0.0
 11
10.97239088847526
 21
9.608563054303568
 31
0.0
  0
ARC
  5
143
330
1F
100
AcDbEntity
  8
VISIBLE
100
AcDbCircle
 10
10.91671318916923
 20
9.664240753609596
 30
0.0
 40
0.0787401574803152
100
AcDbArc
 50
315.0
 51
135.0000000000009
  0
ARC
  5
144
330
1F
100
AcDbEntity
  8
VISIBLE
100
AcDbCircle
 10
8.512510164516081
 20
10.97819227608063
 30
0.0
 40
0.0393700787401574
100
AcDbArc
 50
180.0
 51
270.0
  0
LINE
  5
145
330
1F
100
AcDbEntity
  8
VISIBLE
100
AcDbLine
 10
9.280226699949157
 20
10.30890093749795
 30
0.0
 11
9.28022669994916
 21
9.993940307576695
 31
0.0
  0
ARC
  5
146
330
1F
100
AcDbEntity
  8
VISIBLE
100
AcDbCircle
 10
9.67788437961012
 20
9.538965930171027
 30
0.0
 40
0.0787401574803152
100
AcDbArc
 50
225.0
 51
45.0
  0
ARC
  5
147
330
1F
100
AcDbEntity
  8
VISIBLE
100
AcDbCircle
 10
10.77628969207515
 20
9.993940307576704
 30
0.0
 40
0.0787401574803148
100
AcDbArc
 50
180.0
 51
0.0000000000012926
  0
ARC
  5
148
330
1F
100
AcDbEntity
  8
VISIBLE
100
AcDbCircle
 10
9.358966857429476
 20
9.993940307576697
 30
0.0
 40
0.0787401574803148
100
AcDbArc
 50
180.0000000000013
 51
0.0
  0
LINE
  5
149
330
1F
100
AcDbEntity
  8
VISIBLE
100
AcDbLine
 10
8.689675518846844
 20
2.277404874505826
 30
0.0
 11
8.68967551884679
 21
10.93882219734047
 31
0.0
  0
LINE
  5
14A
330
1F
100
AcDbEntity
  8
VISIBLE
100
AcDbLine
 10
9.910147959791683
 20
9.36401904773418
 30
0.0
 11
10.22510858971294
 21
9.364019047734182
 31
0.0
  0
LINE
  5
14B
330
1F
100
AcDbEntity
  8
VISIBLE
100
AcDbLine
 10
10.62440526781258
 20
9.817354426701169
 30
0.0
 11
10.40169447058848
 21
9.594643629477059
 31
0.0
  0
LINE
  5
14C
330
1F
100
AcDbEntity
  8
VISIBLE
100
AcDbLine
 10
12.41999047947675
 20
4.100778773429532
 30
0.0
 11
9.427864495224785
 21
4.100778773429515
 31
0.0
  0
LINE
  5
14D
330
1F
100
AcDbEntity
  8
VISIBLE
100
AcDbLine
 10
9.516447172390103
 20
10.23016078001764
 30
0.0
 11
9.516447172390105
 21
10.07268046505701
 31
0.0
  0
LINE
  5
14E
330
1F
100
AcDbEntity
  8
VISIBLE
100
AcDbLine
 10
9.427864495224785
 20
4.258259088390144
 30
0.0
 11
12.41999047947675
 21
4.258259088390161
 31
0.0
  0
LINE
  5
14F
330
1F
100
AcDbEntity
  8
VISIBLE
100
AcDbLine
 10
10.85502984955546
 20
9.993940307576706
 30
0.0
 11
10.85502984955546
 21
10.30890093749796
 31
0.0
  0
LINE
  5
150
330
1F
100
AcDbEntity
  8
VISIBLE
100
AcDbLine
 10
9.427864495224789
 20
3.628337828547626
 30
0.0
 11
12.41999047947676
 21
3.628337828547643
 31
0.0
  0
LINE
  5
151
330
1F
100
AcDbEntity
  8
VISIBLE
100
AcDbLine
 10
9.844917477528202
 20
9.817354426701167
 30
0.0
 11
9.733562078916146
 21
9.928709825313218
 31
0.0
  0
CIRCLE
  5
152
330
1F
100
AcDbEntity
  8
VISIBLE
100
AcDbCircle
 10
10.06762827475231
 20
10.15142062253733
 30
0.0
 40
0.0787401574803148
  0
LINE
  5
153
330
1F
100
AcDbEntity
  8
VISIBLE
100
AcDbLine
 10
10.73576066642464
 20
10.59684221698555
 30
0.0
 11
10.51304986920052
 21
10.81955301420966
 31
0.0
  0
LINE
  5
154
330
1F
100
AcDbEntity
  8
VISIBLE
100
AcDbLine
 10
10.14636843223262
 20
10.70260172489954
 30
0.0
 11
9.98888811727199
 21
10.70260172489953
 31
0.0
  0
ARC
  5
155
330
1F
100
AcDbEntity
  8
VISIBLE
100
AcDbCircle
 10
10.14636843223262
 20
10.62386156741922
 30
0.0
 40
0.0787401574803148
100
AcDbArc
 50
270.0
 51
90.0
  0
LINE
  5
156
330
1F
100
AcDbEntity
  8
VISIBLE
100
AcDbLine
 10
9.510851281692034
 20
10.48548681837349
 30
0.0
 11
9.73356207891614
 21
10.7081976155976
 31
0.0
  0
LINE
  5
157
330
1F
100
AcDbEntity
  8
VISIBLE
100
AcDbLine
 10
11.09125032199641
 20
9.895515110726313
 30
0.0
 11
11.0912503219964
 21
10.40732613434836
 31
0.0
  0
LINE
  5
158
330
1F
100
AcDbEntity
  8
VISIBLE
100
AcDbLine
 10
9.43770701490979
 20
9.993940307576697
 30
0.0
 11
9.437707014909787
 21
10.30890093749796
 31
0.0
  0
ARC
  5
159
330
1F
100
AcDbEntity
  8
VISIBLE
100
AcDbCircle
 10
9.910147959791683
 20
9.442759205214495
 30
0.0
 40
0.0787401574803148
100
AcDbArc
 50
90.0
 51
270.0
  0
ARC
  5
15A
330
1F
100
AcDbEntity
  8
VISIBLE
100
AcDbCircle
 10
10.17898367336436
 20
10.37413141976144
 30
0.0
 40
0.0787401574803152
100
AcDbArc
 50
45.0
 51
225.0000000000009
  0
ARC
  5
15B
330
1F
100
AcDbEntity
  8
VISIBLE
100
AcDbCircle
 10
10.4573721698945
 20
9.873032126007196
 30
0.0
 40
0.0787401574803152
100
AcDbArc
 50
315.0
 51
135.0
  0
ARC
  5
15C
330
1F
100
AcDbEntity
  8
VISIBLE
100
AcDbCircle
 10
13.33534481018537
 20
11.68685369340349
 30
0.0
 40
0.0393700787401556
100
AcDbArc
 50
0.0
 51
90.00000000000257
  0
ARC
  5
15D
330
1F
100
AcDbEntity
  8
VISIBLE
100
AcDbCircle
 10
9.81172276294128
 20
11.09630251230111
 30
0.0
 40
0.0787401574803148
100
AcDbArc
 50
90.0
 51
270.0
  0
ARC
  5
15E
330
1F
100
AcDbEntity
  8
VISIBLE
100
AcDbCircle
 10
9.122746384988531
 20
9.895515110726302
 30
0.0
 40
0.0787401574803148
100
AcDbArc
 50
180.0000000000013
 51
0.0
  0
ARC
  5
15F
330
1F
100
AcDbEntity
  8
VISIBLE
100
AcDbCircle
 10
9.677884379610113
 20
10.76387531490363
 30
0.0
 40
0.0787401574803152
100
AcDbArc
 50
315.0
 51
135.0
  0
LINE
  5
160
330
1F
100
AcDbEntity
  8
VISIBLE
100
AcDbLine
 10
13.33534481018543
 20
1.490003299702703
 30
0.0
 11
13.15817945585472
 21
1.490003299702702
 31
0.0
  0
ARC
  5
161
330
1F
100
AcDbEntity
  8
VISIBLE
100
AcDbCircle
 10
9.427864495224792
 20
2.919676411224791
 30
0.0
 40
0.0787401574803148
100
AcDbArc
 50
90.0
 51
270.0
  0
LINE
  5
162
330
1F
100
AcDbEntity
  8
VISIBLE
100
AcDbLine
 10
9.733562078916144
 20
10.37413141976144
 30
0.0
 11
9.844917477528197
 21
10.4854868183735
 31
0.0
  0
LINE
  5
163
330
1F
100
AcDbEntity
  8
VISIBLE
100
AcDbLine
 10
10.97239088847525
 20
10.6942781907711
 30
0.0
 11
10.61048584298607
 21
11.05618323626028
 31
0.0
  0
LINE
  5
164
330
1F
100
AcDbEntity
  8
VISIBLE
100
AcDbLine
 10
8.512510164516135
 20
2.277404874505825
 30
0.0
 11
8.689675518846844
 21
2.277404874505826
 31
0.0
  0
LINE
  5
165
330
1F
100
AcDbEntity
  8
VISIBLE
100
AcDbLine
 10
8.512510164516078
 20
11.72622377214362
 30
0.0
 11
8.689675518846787
 21
11.72622377214362
 31
0.0
  0
CIRCLE
  5
166
330
1F
100
AcDbEntity
  8
VISIBLE
100
AcDbCircle
 10
11.06286714984755
 20
9.156181747442096
 30
0.0
 40
0.0826771653543332
  0
ARC
  5
167
330
1F
100
AcDbEntity
  8
VISIBLE
100
AcDbCircle
 10
9.956272876140254
 20
10.37413141976144
 30
0.0
 40
0.0787401574803139
100
AcDbArc
 50
315.0000000000009
 51
135.0000000000009
  0
ARC
  5
168
330
1F
100
AcDbEntity
  8
VISIBLE
100
AcDbCircle
 10
10.29033907197642
 20
10.26277602114939
 30
0.0
 40
0.0787401574803152
100
AcDbArc
 50
225.0
 51
45.00000000000092
  0
LINE
  5
169
330
1F
100
AcDbEntity
  8
VISIBLE
100
AcDbLine
 10
8.689675518846848
 20
1.490003299702676
 30
0.0
 11
8.51251016451614
 21
1.490003299702675
 31
0.0
  0
LINE
  5
16A
330
1F
100
AcDbEntity
  8
VISIBLE
100
AcDbLine
 10
8.68967551884679
 20
10.93882219734047
 30
0.0
 11
8.512510164516081
 21
10.93882219734047
 31
0.0
  0
ARC
  5
16B
330
1F
100
AcDbEntity
  8
VISIBLE
100
AcDbCircle
 10
9.45517358238601
 20
9.761676727395134
 30
0.0
 40
0.0787401574803164
100
AcDbArc
 50
45.00000000000092
 51
225.0
  0
ARC
  5
16C
330
1F
100
AcDbEntity
  8
VISIBLE
100
AcDbCircle
 10
11.01251016451609
 20
9.895515110726311
 30
0.0
 40
0.0787401574803148
100
AcDbArc
 50
180.0
 51
0.0000000000012926
  0
ARC
  5
16D
330
1F
100
AcDbEntity
  8
VISIBLE
100
AcDbCircle
 10
13.33534481018543
 20
2.238034795765695
 30
0.0
 40
0.0393700787401574
100
AcDbArc
 50
0.0000000000006463
 51
90.0
  0
ARC
  5
16E
330
1F
100
AcDbEntity
  8
VISIBLE
100
AcDbCircle
 10
12.41999047947676
 20
3.864558300988587
 30
0.0
 40
0.0787401574803153
100
AcDbArc
 50
270.0
 51
90.0
  0
ARC
  5
16F
330
1F
100
AcDbEntity
  8
VISIBLE
100
AcDbCircle
 10
10.91671318916922
 20
10.63860049146507
 30
0.0
 40
0.0787401574803139
100
AcDbArc
 50
224.9999999999991
 51
45.00000000000092
  0
LINE
  5
170
330
1F
100
AcDbEntity
  8
VISIBLE
100
AcDbLine
 10
12.41999047947676
 20
3.470857513587012
 30
0.0
 11
9.427864495224789
 21
3.470857513586995
 31
0.0
  0
LINE
  5
171
330
1F
100
AcDbEntity
  8
VISIBLE
100
AcDbLine
 10
9.789239778222171
 20
9.984387524619246
 30
0.0
 11
9.900595176834228
 21
9.873032126007192
 31
0.0
  0
LINE
  5
172
330
1F
100
AcDbEntity
  8
VISIBLE
100
AcDbLine
 10
8.689675518846782
 20
12.51362534694677
 30
0.0
 11
13.15817945585466
 21
12.5136253469468
 31
0.0
  0
ARC
  5
173
330
1F
100
AcDbEntity
  8
VISIBLE
100
AcDbCircle
 10
10.55480814368004
 20
11.00050553695425
 30
0.0
 40
0.0787401574803152
100
AcDbArc
 50
45.0
 51
225.0000000000018
  0
LINE
  5
174
330
1F
100
AcDbEntity
  8
VISIBLE
100
AcDbLine
 10
10.34601677128245
 20
10.31845372045541
 30
0.0
 11
10.23466137267039
 21
10.42980911906747
 31
0.0
  0
ARC
  5
175
330
1F
100
AcDbEntity
  8
VISIBLE
100
AcDbCircle
 10
10.17898367336436
 20
9.92870982531322
 30
0.0
 40
0.0787401574803152
100
AcDbArc
 50
135.0
 51
315.0
  0
LINE
  5
176
330
1F
100
AcDbEntity
  8
VISIBLE
100
AcDbLine
 10
9.427864495224785
 20
3.943298458468885
 30
0.0
 11
12.41999047947676
 21
3.943298458468902
 31
0.0
  0
LINE
  5
177
330
1F
100
AcDbEntity
  8
VISIBLE
100
AcDbLine
 10
8.473140085775983
 20
1.529373378442833
 30
0.0
 11
8.473140085775977
 21
2.238034795765667
 31
0.0
  0
ARC
  5
178
330
1F
100
AcDbEntity
  8
VISIBLE
100
AcDbCircle
 10
9.218543360335394
 20
9.664240753609587
 30
0.0
 40
0.0787401574803139
100
AcDbArc
 50
45.00000000000092
 51
225.0
  0
LINE
  5
179
330
1F
100
AcDbEntity
  8
VISIBLE
100
AcDbLine
 10
9.162865661029366
 20
9.608563054303557
 30
0.0
 11
9.524770706518547
 21
9.246658008814382
 31
0.0
  0
LINE
  5
17A
330
1F
100
AcDbEntity
  8
VISIBLE
100
AcDbLine
 10
10.61880937711451
 20
10.07268046505702
 30
0.0
 11
10.61880937711451
 21
10.23016078001765
 31
0.0
  0
LINE
  5
17B
330
1F
100
AcDbEntity
  8
VISIBLE
100
AcDbLine
 10
13.15817945585472
 20
1.490003299702702
 30
0.0
 11
13.15817945585473
 21
0.7026017248995521
 31
0.0
  0
LINE
  5
17C
330
1F
100
AcDbEntity
  8
VISIBLE
100
AcDbLine
 10
9.274221059641416
 20
10.58292279215904
 30
0.0
 11
9.636126105130591
 21
10.94482783764822
 31
0.0
  0
LINE
  5
17D
330
1F
100
AcDbEntity
  8
VISIBLE
100
AcDbLine
 10
10.22510858971294
 20
10.93882219734048
 30
0.0
 11
9.910147959791674
 21
10.93882219734048
 31
0.0
  0
ARC
  5
17E
330
1F
100
AcDbEntity
  8
VISIBLE
100
AcDbCircle
 10
9.844917477528199
 20
10.04006522392528
 30
0.0
 40
0.0787401574803152
100
AcDbArc
 50
45.0
 51
225.0000000000009
  0
ARC
  5
17F
330
1F
100
AcDbEntity
  8
VISIBLE
100
AcDbCircle
 10
9.81172276294129
 20
9.20653873277355
 30
0.0
 40
0.0787401574803148
100
AcDbArc
 50
90.0
 51
270.0
  0
LINE
  5
180
330
1F
100
AcDbEntity
  8
VISIBLE
100
AcDbLine
 10
10.23466137267039
 20
9.873032126007192
 30
0.0
 11
10.34601677128245
 21
9.984387524619251
 31
0.0
  0
ARC
  5
181
330
1F
100
AcDbEntity
  8
VISIBLE
100
AcDbCircle
 10
9.427864495224789
 20
3.86455830098857
 30
0.0
 40
0.0787401574803153
100
AcDbArc
 50
90.00000000000257
 51
270.0
  0
ARC
  5
182
330
1F
100
AcDbEntity
  8
VISIBLE
100
AcDbCircle
 10
12.41999047947676
 20
3.549597671067327
 30
0.0
 40
0.0787401574803148
100
AcDbArc
 50
270.0
 51
90.0
  0
LINE
  5
183
330
1F
100
AcDbEntity
  8
VISIBLE
100
AcDbLine
 10
9.427864495224792
 20
2.998416568705105
 30
0.0
 11
12.41999047947676
 21
2.998416568705122
 31
0.0
  0
LINE
  5
184
330
1F
100
AcDbEntity
  8
VISIBLE
100
AcDbLine
 10
9.62220668030409
 20
9.817354426701163
 30
0.0
 11
9.733562078916147
 21
9.70599902808911
 31
0.0
  0
LINE
  5
185
330
1F
100
AcDbEntity
  8
VISIBLE
100
AcDbLine
 10
9.988888117271998
 20
9.600239520175124
 30
0.0
 11
10.14636843223263
 21
9.600239520175126
 31
0.0
  0
LINE
  5
186
330
1F
100
AcDbEntity
  8
VISIBLE
100
AcDbLine
 10
9.044006227508213
 20
10.40732613434835
 30
0.0
 11
9.044006227508216
 21
9.895515110726299
 31
0.0
  0
LINE
  5
187
330
1F
100
AcDbEntity
  8
VISIBLE
100
AcDbLine
 10
8.689675518846787
 20
11.72622377214362
 30
0.0
 11
8.689675518846782
 21
12.51362534694677
 31
0.0
  0
CIRCLE
  5
188
330
1F
100
AcDbEntity
  8
VISIBLE
100
AcDbCircle
 10
9.072389399657075
 20
9.156181747442087
 30
0.0
 40
0.0826771653543314
  0
ARC
  5
189
330
1F
100
AcDbEntity
  8
VISIBLE
100
AcDbCircle
 10
10.14636843223263
 20
9.678979677655441
 30
0.0
 40
0.0787401574803148
100
AcDbArc
 50
270.0
 51
90.0
  0
ARC
  5
18A
330
1F
100
AcDbEntity
  8
VISIBLE
100
AcDbCircle
 10
13.33534481018538
 20
10.97819227608066
 30
0.0
 40
0.0393700787401574
100
AcDbArc
 50
270.0
 51
0.0
  0
ARC
  5
18B
330
1F
100
AcDbEntity
  8
VISIBLE
100
AcDbCircle
 10
9.910147959791674
 20
10.86008203986016
 30
0.0
 40
0.0787401574803148
100
AcDbArc
 50
90.0
 51
270.0000000000013
  0
LINE
  5
18C
330
1F
100
AcDbEntity
  8
VISIBLE
100
AcDbLine
 10
12.41999047947676
 20
3.155896883665753
 30
0.0
 11
9.427864495224792
 21
3.155896883665736
 31
0.0
  0
LINE
  5
18D
330
1F
100
AcDbEntity
  8
VISIBLE
100
AcDbLine
 10
13.15817945585472
 20
2.277404874505851
 30
0.0
 11
13.33534481018543
 21
2.277404874505852
 31
0.0
  0
LINE
  5
18E
330
1F
100
AcDbEntity
  8
VISIBLE
100
AcDbLine
 10
9.399495883079982
 20
9.705999028089106
 30
0.0
 11
9.622206680304092
 21
9.483288230865
 31
0.0
  0
ARC
  5
18F
330
1F
100
AcDbEntity
  8
VISIBLE
100
AcDbCircle
 10
12.41999047947676
 20
3.234637041146068
 30
0.0
 40
0.0787401574803157
100
AcDbArc
 50
270.0
 51
90.0
  0
LINE
  5
190
330
1F
100
AcDbEntity
  8
VISIBLE
100
AcDbLine
 10
10.22510858971294
 20
9.52149936269481
 30
0.0
 11
9.910147959791683
 21
9.52149936269481
 31
0.0
  0
LINE
  5
191
330
1F
100
AcDbEntity
  8
VISIBLE
100
AcDbLine
 10
13.15817945585473
 20
0.7026017248995521
 30
0.0
 11
8.689675518846853
 21
0.7026017248995268
 31
0.0
  0
ARC
  5
192
330
1F
100
AcDbEntity
  8
VISIBLE
100
AcDbCircle
 10
12.41999047947676
 20
2.919676411224807
 30
0.0
 40
0.0787401574803153
100
AcDbArc
 50
270.0000000000013
 51
90.0
  0
ARC
  5
193
330
1F
100
AcDbEntity
  8
VISIBLE
100
AcDbCircle
 10
10.77628969207514
 20
10.30890093749796
 30
0.0
 40
0.0787401574803148
100
AcDbArc
 50
0.0000000000012926
 51
180.0
  0
LINE
  5
194
330
1F
100
AcDbEntity
  8
VISIBLE
100
AcDbLine
 10
12.41999047947676
 20
2.840936253744493
 30
0.0
 11
9.427864495224792
 21
2.840936253744476
 31
0.0
  0
LINE
  5
195
330
1F
100
AcDbEntity
  8
VISIBLE
100
AcDbLine
 10
9.6361261051306
 20
9.358013407426439
 30
0.0
 11
9.27422105964142
 21
9.719918452915614
 31
0.0
  0
LINE
  5
196
330
1F
100
AcDbEntity
  8
VISIBLE
100
AcDbLine
 10
10.40169447058847
 20
10.70819761559761
 30
0.0
 11
10.62440526781258
 21
10.4854868183735
 31
0.0
  0
LINE
  5
197
330
1F
100
AcDbEntity
  8
VISIBLE
100
AcDbLine
 10
13.37471488892553
 20
11.68685369340349
 30
0.0
 11
13.37471488892553
 21
10.97819227608066
 31
0.0
  0
LINE
  5
198
330
1F
100
AcDbEntity
  8
VISIBLE
100
AcDbLine
 10
10.12330597405833
 20
10.31845372045541
 30
0.0
 11
10.23466137267039
 21
10.20709832184336
 31
0.0
  0
ARC
  5
199
330
1F
100
AcDbEntity
  8
VISIBLE
100
AcDbCircle
 10
9.956272876140256
 20
9.92870982531322
 30
0.0
 40
0.0787401574803152
100
AcDbArc
 50
225.0
 51
45.00000000000092
  0
LINE
  5
19A
330
1F
100
AcDbEntity
  8
VISIBLE
100
AcDbLine
 10
9.98888811727199
 20
10.5451214099389
 30
0.0
 11
10.14636843223262
 21
10.54512140993891
 31
0.0
  0
LINE
  5
19B
330
1F
100
AcDbEntity
  8
VISIBLE
100
AcDbLine
 10
13.15817945585467
 20
10.9388221973405
 30
0.0
 11
13.15817945585472
 21
2.277404874505851
 31
0.0
  0
ARC
  5
19C
330
1F
100
AcDbEntity
  8
VISIBLE
100
AcDbCircle
 10
13.33534481018543
 20
1.52937337844286
 30
0.0
 40
0.0393700787401574
100
AcDbArc
 50
270.0
 51
0.0000000000003231
  0
LINE
  5
19D
330
1F
100
AcDbEntity
  8
VISIBLE
100
AcDbLine
 10
9.673927487350735
 20
10.07268046505701
 30
0.0
 11
9.673927487350733
 21
10.23016078001764
 31
0.0
  0
LINE
  5
19E
330
1F
100
AcDbEntity
  8
VISIBLE
100
AcDbLine
 10
9.73356207891614
 20
10.59684221698555
 30
0.0
 11
9.622206680304089
 21
10.48548681837349
 31
0.0
  0
LINE
  5
19F
330
1F
100
AcDbEntity
  8
VISIBLE
100
AcDbLine
 10
13.37471488892558
 20
2.238034795765695
 30
0.0
 11
13.37471488892559
 21
1.52937337844286
 31
0.0
  0
ARC
  5
1A0
330
1F
100
AcDbEntity
  8
VISIBLE
100
AcDbCircle
 10
8.512510164516135
 20
2.238034795765667
 30
0.0
 40
0.0393700787401579
100
AcDbArc
 50
90.0
 51
180.0
  0
LINE
  5
1A1
330
1F
100
AcDbEntity
  8
VISIBLE
100
AcDbLine
 10
13.15817945585466
 20
11.72622377214365
 30
0.0
 11
13.33534481018537
 21
11.72622377214365
 31
0.0
  0
LINE
  5
1A2
330
1F
100
AcDbEntity
  8
VISIBLE
100
AcDbLine
 10
10.14636843223263
 20
9.757719835135756
 30
0.0
 11
9.988888117271996
 21
9.757719835135754
 31
0.0
  0
ARC
  5
1A3
330
1F
100
AcDbEntity
  8
VISIBLE
100
AcDbCircle
 10
9.122746384988528
 20
10.40732613434835
 30
0.0
 40
0.0787401574803148
100
AcDbArc
 50
0.0000000000012926
 51
180.0000000000013
  0
ARC
  5
1A4
330
1F
100
AcDbEntity
  8
VISIBLE
100
AcDbCircle
 10
9.358966857429472
 20
10.30890093749796
 30
0.0
 40
0.0787401574803148
100
AcDbArc
 50
0.0000000000012926
 51
180.0000000000013
  0
LINE
  5
1A5
330
1F
100
AcDbEntity
  8
VISIBLE
100
AcDbLine
 10
10.23466137267039
 20
10.0957429232313
 30
0.0
 11
10.12330597405834
 21
9.984387524619248
 31
0.0
  0
ARC
  5
1A6
330
1F
100
AcDbEntity
  8
VISIBLE
100
AcDbCircle
 10
10.32353378656333
 20
11.09630251230111
 30
0.0
 40
0.0787401574803148
100
AcDbArc
 50
270.0
 51
90.0
  0
ARC
  5
1A7
330
1F
100
AcDbEntity
  8
VISIBLE
100
AcDbCircle
 10
11.01251016451609
 20
10.40732613434836
 30
0.0
 40
0.0787401574803148
100
AcDbArc
 50
0.0000000000025852
 51
180.0
  0
ARC
  5
1A8
330
1F
100
AcDbEntity
  8
VISIBLE
100
AcDbCircle
 10
10.68008296711861
 20
9.761676727395143
 30
0.0
 40
0.0787401574803152
100
AcDbArc
 50
315.0
 51
135.0000000000009
  0
ARC
  5
1A9
330
1F
100
AcDbEntity
  8
VISIBLE
100
AcDbCircle
 10
9.427864495224785
 20
4.179518930909829
 30
0.0
 40
0.0787401574803157
100
AcDbArc
 50
90.0
 51
270.0
  0
LINE
  5
1AA
330
1F
100
AcDbEntity
  8
VISIBLE
100
AcDbLine
 10
10.49913044437402
 20
10.94482783764822
 30
0.0
 11
10.8610354898632
 21
10.58292279215905
 31
0.0
  0
ARC
  5
1AB
330
1F
100
AcDbEntity
  8
VISIBLE
100
AcDbCircle
 10
9.59518732987042
 20
10.07268046505701
 30
0.0
 40
0.0787401574803148
100
AcDbArc
 50
180.0000000000013
 51
0.0
  0
ARC
  5
1AC
330
1F
100
AcDbEntity
  8
VISIBLE
100
AcDbCircle
 10
10.5400692196342
 20
10.23016078001765
 30
0.0
 40
0.0787401574803148
100
AcDbArc
 50
0.0000000000012926
 51
180.0
  0
LINE
  5
1AD
330
1F
100
AcDbEntity
  8
VISIBLE
100
AcDbLine
 10
10.40169447058847
 20
9.928709825313224
 30
0.0
 11
10.29033907197642
 21
9.817354426701167
 31
0.0
  0
LINE
  5
1AE
330
1F
100
AcDbEntity
  8
VISIBLE
100
AcDbLine
 10
10.51304986920053
 20
10.4854868183735
 30
0.0
 11
10.40169447058847
 21
10.59684221698555
 31
0.0
  0
ARC
  5
1AF
330
1F
100
AcDbEntity
  8
VISIBLE
100
AcDbCircle
 10
10.55480814368005
 20
9.302335708120415
 30
0.0
 40
0.0787401574803164
100
AcDbArc
 50
135.0000000000009
 51
315.0
  0
LINE
  5
1B0
330
1F
100
AcDbEntity
  8
VISIBLE
100
AcDbLine
 10
13.33534481018538
 20
10.9388221973405
 30
0.0
 11
13.15817945585467
 21
10.9388221973405
 31
0.0
  0
ARC
  5
1B1
330
1F
100
AcDbEntity
  8
VISIBLE
100
AcDbCircle
 10
10.22510858971294
 20
10.86008203986017
 30
0.0
 40
0.0787401574803148
100
AcDbArc
 50
270.0
 51
90.0
  0
ARC
  5
1B2
330
1F
100
AcDbEntity
  8
VISIBLE
100
AcDbCircle
 10
12.41999047947675
 20
4.179518930909846
 30
0.0
 40
0.0787401574803139
100
AcDbArc
 50
270.0
 51
90.0
  0
LINE
  5
1B3
330
1F
100
AcDbEntity
  8
VISIBLE
100
AcDbLine
 10
10.32353378656334
 20
9.285278890253869
 30
0.0
 11
9.81172276294129
 21
9.285278890253865
 31
0.0
  0
LINE
  5
1B4
330
1F
100
AcDbEntity
  8
VISIBLE
100
AcDbLine
 10
13.15817945585466
 20
12.5136253469468
 30
0.0
 11
13.15817945585466
 21
11.72622377214365
 31
0.0
  0
ARC
  5
1B5
330
1F
100
AcDbEntity
  8
VISIBLE
100
AcDbCircle
 10
10.45737216989451
 20
9.538965930171031
 30
0.0
 40
0.0787401574803152
100
AcDbArc
 50
135.0
 51
315.0
  0
ARC
  5
1B6
330
1F
100
AcDbEntity
  8
VISIBLE
100
AcDbCircle
 10
9.789239778222175
 20
9.761676727395137
 30
0.0
 40
0.0787401574803152
100
AcDbArc
 50
225.0
 51
45.00000000000092
  0
ARC
  5
1B7
330
1F
100
AcDbEntity
  8
VISIBLE
100
AcDbCircle
 10
9.580448405824564
 20
11.00050553695425
 30
0.0
 40
0.0787401574803139
100
AcDbArc
 50
315.0000000000009
 51
135.0000000000009
  0
LINE
  5
1B8
330
1F
100
AcDbEntity
  8
VISIBLE
100
AcDbLine
 10
9.524770706518535
 20
11.05618323626027
 30
0.0
 11
9.162865661029361
 21
10.69427819077109
 31
0.0
  0
LINE
  5
1B9
330
1F
100
AcDbEntity
  8
VISIBLE
100
AcDbLine
 10
10.01195057544628
 20
9.984387524619248
 30
0.0
 11
9.900595176834226
 21
10.0957429232313
 31
0.0
  0
ARC
  5
1BA
330
1F
100
AcDbEntity
  8
VISIBLE
100
AcDbCircle
 10
9.218543360335389
 20
10.63860049146506
 30
0.0
 40
0.0787401574803152
100
AcDbArc
 50
135.0
 51
315.0
  0
ARC
  5
1BB
330
1F
100
AcDbEntity
  8
VISIBLE
100
AcDbCircle
 10
10.68008296711861
 20
10.54116451767953
 30
0.0
 40
0.0787401574803164
100
AcDbArc
 50
225.0000000000009
 51
45.0
  0
ARC
  5
1BC
330
1F
100
AcDbEntity
  8
VISIBLE
100
AcDbCircle
 10
10.4573721698945
 20
10.42980911906747
 30
0.0
 40
0.0787401574803139
100
AcDbArc
 50
225.0000000000009
 51
44.99999999999909
  0
LINE
  5
1BD
330
1F
100
AcDbEntity
  8
VISIBLE
100
AcDbLine
 10
9.81172276294129
 20
9.127798575293234
 30
0.0
 11
10.32353378656334
 21
9.127798575293237
 31
0.0
  0
CIRCLE
  5
1BE
330
1F
100
AcDbEntity
  8
VISIBLE
100
AcDbCircle
 10
11.06286714984754
 20
11.14665949763257
 30
0.0
 40
0.0826771653543314
  0
LINE
  5
1BF
330
1F
100
AcDbEntity
  8
VISIBLE
100
AcDbLine
 10
9.42786449522479
 20
3.313377198626366
 30
0.0
 11
12.41999047947676
 21
3.313377198626382
 31
0.0
  0
ARC
  5
1C0
330
1F
100
AcDbEntity
  8
VISIBLE
100
AcDbCircle
 10
10.4573721698945
 20
10.76387531490363
 30
0.0
 40
0.0787401574803139
100
AcDbArc
 50
45.00000000000092
 51
224.9999999999991
  0
ARC
  5
1C1
330
1F
100
AcDbEntity
  8
VISIBLE
100
AcDbCircle
 10
9.677884379610118
 20
9.873032126007192
 30
0.0
 40
0.0787401574803139
100
AcDbArc
 50
44.99999999999909
 51
225.0000000000018
  0
ARC
  5
1C2
330
1F
100
AcDbEntity
  8
VISIBLE
100
AcDbCircle
 10
9.595187329870418
 20
10.23016078001764
 30
0.0
 40
0.0787401574803148
100
AcDbArc
 50
0.0
 51
180.0000000000013
  0
ARC
  5
1C3
330
1F
100
AcDbEntity
  8
VISIBLE
100
AcDbCircle
 10
10.29033907197642
 20
10.04006522392528
 30
0.0
 40
0.0787401574803139
100
AcDbArc
 50
315.0000000000009
 51
135.0
  0
ARC
  5
1C4
330
1F
100
AcDbEntity
  8
VISIBLE
100
AcDbCircle
 10
9.988888117271998
 20
9.67897967765544
 30
0.0
 40
0.0787401574803148
100
AcDbArc
 50
90.00000000000128
 51
270.0
  0
LINE
  5
1C5
330
1F
100
AcDbEntity
  8
VISIBLE
100
AcDbLine
 10
10.69754953459483
 20
10.30890093749796
 30
0.0
 11
10.69754953459483
 21
9.993940307576702
 31
0.0
  0
ARC
  5
1C6
330
1F
100
AcDbEntity
  8
VISIBLE
100
AcDbCircle
 10
9.42786449522479
 20
3.234637041146051
 30
0.0
 40
0.0787401574803148
100
AcDbArc
 50
90.0
 51
270.0000000000013
  0
ARC
  5
1C7
330
1F
100
AcDbEntity
  8
VISIBLE
100
AcDbCircle
 10
9.98888811727199
 20
10.62386156741922
 30
0.0
 40
0.0787401574803148
100
AcDbArc
 50
90.0
 51
270.0
  0
LINE
  5
1C8
330
1F
100
AcDbEntity
  8
VISIBLE
100
AcDbLine
 10
10.46132906215388
 20
10.23016078001765
 30
0.0
 11
10.46132906215388
 21
10.07268046505702
 31
0.0
  0
ARC
  5
1C9
330
1F
100
AcDbEntity
  8
VISIBLE
100
AcDbCircle
 10
10.34601677128245
 20
9.76167672739514
 30
0.0
 40
0.0787401574803164
100
AcDbArc
 50
135.0000000000009
 51
315.0000000000009
  0
LINE
  5
1CA
330
1F
100
AcDbEntity
  8
VISIBLE
100
AcDbLine
 10
10.8610354898632
 20
9.719918452915623
 30
0.0
 11
10.49913044437402
 21
9.358013407426442
 31
0.0
  0
ARC
  5
1CB
330
1F
100
AcDbEntity
  8
VISIBLE
100
AcDbCircle
 10
10.22510858971294
 20
9.442759205214497
 30
0.0
 40
0.0787401574803148
100
AcDbArc
 50
270.0
 51
90.0
  0
ARC
  5
1CC
330
1F
100
AcDbEntity
  8
VISIBLE
100
AcDbCircle
 10
10.34601677128244
 20
10.54116451767952
 30
0.0
 40
0.0787401574803152
100
AcDbArc
 50
45.0
 51
225.0
  0
LINE
  5
1CD
330
1F
100
AcDbEntity
  8
VISIBLE
100
AcDbLine
 10
10.51304986920053
 20
9.483288230865003
 30
0.0
 11
10.73576066642464
 21
9.705999028089115
 31
0.0
  0
LINE
  5
1CE
330
1F
100
AcDbEntity
  8
VISIBLE
100
AcDbLine
 10
4.851092841681497
 20
5.348271016238017
 30
0.0
 11
4.851092841681497
 21
4.757719835135655
 31
0.0
  0
LINE
  5
1CF
330
1F
100
AcDbEntity
  8
VISIBLE
100
AcDbLine
 10
8.453455046405907
 20
4.049058417812823
 30
0.0
 11
8.453455046405907
 21
3.340397000489988
 31
0.0
  0
LINE
  5
1D0
330
1F
100
AcDbEntity
  8
VISIBLE
100
AcDbLine
 10
3.984951109398031
 20
5.545121409938804
 30
0.0
 11
8.453455046405907
 21
5.545121409938807
 31
0.0
  0
LINE
  5
1D1
330
1F
100
AcDbEntity
  8
VISIBLE
100
AcDbLine
 10
6.71132906215394
 20
3.340397000489987
 30
0.0
 11
6.71132906215394
 21
3.143546606789199
 31
0.0
  0
LINE
  5
1D2
330
1F
100
AcDbEntity
  8
VISIBLE
100
AcDbLine
 10
3.984951109398033
 20
4.836459992615969
 30
0.0
 11
3.984951109398031
 21
5.545121409938804
 31
0.0
  0
LINE
  5
1D3
330
1F
100
AcDbEntity
  8
VISIBLE
100
AcDbLine
 10
6.032195203886221
 20
4.757719835135656
 30
0.0
 11
6.032195203886221
 21
5.348271016238018
 31
0.0
  0
LINE
  5
1D4
330
1F
100
AcDbEntity
  8
VISIBLE
100
AcDbLine
 10
8.020384180264175
 20
5.364019047734083
 30
0.0
 11
7.02432118813819
 21
5.364019047734082
 31
0.0
  0
LINE
  5
1D5
330
1F
100
AcDbEntity
  8
VISIBLE
100
AcDbLine
 10
8.453455046405907
 20
5.545121409938807
 30
0.0
 11
8.453455046405907
 21
4.836459992615973
 31
0.0
  0
LINE
  5
1D6
330
1F
100
AcDbEntity
  8
VISIBLE
100
AcDbLine
 10
4.851092841681497
 20
4.757719835135655
 30
0.0
 11
6.032195203886221
 21
4.757719835135656
 31
0.0
  0
ARC
  5
1D7
330
1F
100
AcDbEntity
  8
VISIBLE
100
AcDbCircle
 10
3.788100715697245
 20
4.797089913875811
 30
0.0
 40
0.0393700787401574
100
AcDbArc
 50
90.0
 51
180.0
  0
LINE
  5
1D8
330
1F
100
AcDbEntity
  8
VISIBLE
100
AcDbLine
 10
6.032195203886221
 20
5.348271016238018
 30
0.0
 11
4.851092841681497
 21
5.348271016238017
 31
0.0
  0
LINE
  5
1D9
330
1F
100
AcDbEntity
  8
VISIBLE
100
AcDbLine
 10
5.727077093650003
 20
3.1435466067892
 30
0.0
 11
5.727077093650003
 21
3.340397000489986
 31
0.0
  0
LINE
  5
1DA
330
1F
100
AcDbEntity
  8
VISIBLE
100
AcDbLine
 10
8.689675518846851
 20
4.797089913875816
 30
0.0
 11
8.689675518846853
 21
4.088428496552981
 31
0.0
  0
LINE
  5
1DB
330
1F
100
AcDbEntity
  8
VISIBLE
100
AcDbLine
 10
5.727077093650003
 20
3.340397000489986
 30
0.0
 11
3.984951109398034
 21
3.340397000489985
 31
0.0
  0
LINE
  5
1DC
330
1F
100
AcDbEntity
  8
VISIBLE
100
AcDbLine
 10
8.453455046405907
 20
3.340397000489988
 30
0.0
 11
6.71132906215394
 21
3.340397000489987
 31
0.0
  0
ARC
  5
1DD
330
1F
100
AcDbEntity
  8
VISIBLE
100
AcDbCircle
 10
3.788100715697245
 20
4.088428496552977
 30
0.0
 40
0.0393700787401574
100
AcDbArc
 50
180.0
 51
270.0000000000026
  0
LINE
  5
1DE
330
1F
100
AcDbEntity
  8
VISIBLE
100
AcDbLine
 10
3.748730636957088
 20
4.088428496552977
 30
0.0
 11
3.748730636957088
 21
4.797089913875811
 31
0.0
  0
CIRCLE
  5
1DF
330
1F
100
AcDbEntity
  8
VISIBLE
100
AcDbCircle
 10
8.231014101524018
 20
4.74590881151361
 30
0.0
 40
0.0688976377952759
  0
CIRCLE
  5
1E0
330
1F
100
AcDbEntity
  8
VISIBLE
100
AcDbCircle
 10
7.764478668453151
 20
3.734097787891563
 30
0.0
 40
0.1968503937007888
  0
ARC
  5
1E1
330
1F
100
AcDbEntity
  8
VISIBLE
100
AcDbCircle
 10
7.02432118813819
 20
5.324648968993925
 30
0.0
 40
0.0393700787401574
100
AcDbArc
 50
90.0
 51
180.0
  0
LINE
  5
1E2
330
1F
100
AcDbEntity
  8
VISIBLE
100
AcDbLine
 10
3.984951109398033
 20
4.049058417812819
 30
0.0
 11
3.788100715697247
 21
4.049058417812819
 31
0.0
  0
ARC
  5
1E3
330
1F
100
AcDbEntity
  8
VISIBLE
100
AcDbCircle
 10
8.020384180264175
 20
4.167168654033295
 30
0.0
 40
0.0393700787401574
100
AcDbArc
 50
270.0
 51
0.0
  0
ARC
  5
1E4
330
1F
100
AcDbEntity
  8
VISIBLE
100
AcDbCircle
 10
7.02432118813819
 20
4.167168654033294
 30
0.0
 40
0.0393700787401574
100
AcDbArc
 50
180.0
 51
270.0
  0
ARC
  5
1E5
330
1F
100
AcDbEntity
  8
VISIBLE
100
AcDbCircle
 10
8.650305440106695
 20
4.797089913875816
 30
0.0
 40
0.0393700787401556
100
AcDbArc
 50
0.0
 51
90.0
  0
CIRCLE
  5
1E6
330
1F
100
AcDbEntity
  8
VISIBLE
100
AcDbCircle
 10
7.280226699949214
 20
3.734097787891562
 30
0.0
 40
0.1968503937007871
  0
ARC
  5
1E7
330
1F
100
AcDbEntity
  8
VISIBLE
100
AcDbCircle
 10
5.76644717239016
 20
3.1435466067892
 30
0.0
 40
0.0393700787401574
100
AcDbArc
 50
180.0
 51
270.0
  0
ARC
  5
1E8
330
1F
100
AcDbEntity
  8
VISIBLE
100
AcDbCircle
 10
6.671958983413782
 20
3.143546606789199
 30
0.0
 40
0.0393700787401565
100
AcDbArc
 50
270.0
 51
0.0000000000006463
  0
LINE
  5
1E9
330
1F
100
AcDbEntity
  8
VISIBLE
100
AcDbLine
 10
3.788100715697245
 20
4.836459992615969
 30
0.0
 11
3.984951109398033
 21
4.836459992615969
 31
0.0
  0
ARC
  5
1EA
330
1F
100
AcDbEntity
  8
VISIBLE
100
AcDbCircle
 10
8.650305440106695
 20
4.088428496552981
 30
0.0
 40
0.0393700787401574
100
AcDbArc
 50
270.0
 51
0.0
  0
LINE
  5
1EB
330
1F
100
AcDbEntity
  8
VISIBLE
100
AcDbLine
 10
8.453455046405907
 20
4.836459992615973
 30
0.0
 11
8.650305440106695
 21
4.836459992615973
 31
0.0
  0
LINE
  5
1EC
330
1F
100
AcDbEntity
  8
VISIBLE
100
AcDbLine
 10
8.650305440106695
 20
4.049058417812823
 30
0.0
 11
8.453455046405907
 21
4.049058417812823
 31
0.0
  0
LINE
  5
1ED
330
1F
100
AcDbEntity
  8
VISIBLE
100
AcDbLine
 10
7.02432118813819
 20
4.127798575293137
 30
0.0
 11
8.020384180264175
 21
4.127798575293138
 31
0.0
  0
ARC
  5
1EE
330
1F
100
AcDbEntity
  8
VISIBLE
100
AcDbCircle
 10
8.020384180264175
 20
5.324648968993926
 30
0.0
 40
0.0393700787401556
100
AcDbArc
 50
0.0
 51
90.0
  0
LINE
  5
1EF
330
1F
100
AcDbEntity
  8
VISIBLE
100
AcDbLine
 10
6.671958983413782
 20
3.104176528049042
 30
0.0
 11
5.76644717239016
 21
3.104176528049041
 31
0.0
  0
CIRCLE
  5
1F0
330
1F
100
AcDbEntity
  8
VISIBLE
100
AcDbCircle
 10
6.813691266878347
 20
4.745908811513609
 30
0.0
 40
0.0688976377952759
  0
LINE
  5
1F1
330
1F
100
AcDbEntity
  8
VISIBLE
100
AcDbLine
 10
3.984951109398034
 20
3.340397000489985
 30
0.0
 11
3.984951109398033
 21
4.049058417812819
 31
0.0
  0
LINE
  5
1F2
330
1F
100
AcDbEntity
  8
VISIBLE
100
AcDbLine
 10
8.059754259004333
 20
4.167168654033295
 30
0.0
 11
8.05975425900433
 21
5.324648968993926
 31
0.0
  0
LINE
  5
1F3
330
1F
100
AcDbEntity
  8
VISIBLE
100
AcDbLine
 10
6.984951109398033
 20
5.324648968993925
 30
0.0
 11
6.984951109398033
 21
4.167168654033294
 31
0.0
  0
LINE
  5
1F4
330
1F
100
AcDbEntity
  8
VISIBLE
100
AcDbLine
 10
14.31959677868937
 20
11.332522984742
 30
0.0
 11
15.57943929837441
 21
11.33252298474201
 31
0.0
  0
ARC
  5
1F5
330
1F
100
AcDbEntity
  8
VISIBLE
100
AcDbCircle
 10
16.24873063695708
 20
12.39551511072626
 30
0.0
 40
0.118110236220474
100
AcDbArc
 50
0.0
 51
90.0
  0
CIRCLE
  5
1F6
330
1F
100
AcDbEntity
  8
VISIBLE
100
AcDbCircle
 10
15.20542355034291
 20
8.360082039860114
 30
0.0
 40
0.1082677165354333
  0
ARC
  5
1F7
330
1F
100
AcDbEntity
  8
VISIBLE
100
AcDbCircle
 10
15.57943929837441
 20
10.7813418823798
 30
0.0
 40
0.0787401574803148
100
AcDbArc
 50
270.0
 51
90.0
  0
LINE
  5
1F8
330
1F
100
AcDbEntity
  8
VISIBLE
100
AcDbLine
 10
13.33534481018543
 20
12.51362534694673
 30
0.0
 11
16.24873063695708
 21
12.51362534694673
 31
0.0
  0
LINE
  5
1F9
330
1F
100
AcDbEntity
  8
VISIBLE
100
AcDbLine
 10
15.57943929837441
 20
10.86008203986012
 30
0.0
 11
14.31959677868937
 21
10.86008203986011
 31
0.0
  0
LINE
  5
1FA
330
1F
100
AcDbEntity
  8
VISIBLE
100
AcDbLine
 10
15.57943929837441
 20
11.17504266978138
 30
0.0
 11
14.31959677868937
 21
11.17504266978137
 31
0.0
  0
LINE
  5
1FB
330
1F
100
AcDbEntity
  8
VISIBLE
100
AcDbLine
 10
13.53219520388622
 20
10.15142062253728
 30
0.0
 11
13.78219520388622
 21
10.15142062253728
 31
0.0
  0
ARC
  5
1FC
330
1F
100
AcDbEntity
  8
VISIBLE
100
AcDbCircle
 10
15.57943929837441
 20
11.72622377214358
 30
0.0
 40
0.0787401574803148
100
AcDbArc
 50
270.0000000000013
 51
90.0
  0
LINE
  5
1FD
330
1F
100
AcDbEntity
  8
VISIBLE
100
AcDbLine
 10
16.20936055821693
 20
2.277404874505784
 30
0.0
 11
15.95936055821693
 21
2.277404874505784
 31
0.0
  0
CIRCLE
  5
1FE
330
1F
100
AcDbEntity
  8
VISIBLE
100
AcDbCircle
 10
14.22117158183898
 20
8.360082039860114
 30
0.0
 40
0.1082677165354333
  0
LINE
  5
1FF
330
1F
100
AcDbEntity
  8
VISIBLE
100
AcDbLine
 10
14.31959677868937
 20
10.70260172489948
 30
0.0
 11
15.57943929837441
 21
10.70260172489949
 31
0.0
  0
LINE
  5
200
330
1F
100
AcDbEntity
  8
VISIBLE
100
AcDbLine
 10
14.31959677868937
 20
11.01756235482074
 30
0.0
 11
15.57943929837441
 21
11.01756235482075
 31
0.0
  0
LINE
  5
201
330
1F
100
AcDbEntity
  8
VISIBLE
100
AcDbLine
 10
16.24873063695709
 20
0.7026017248994842
 30
0.0
 11
13.33534481018544
 21
0.7026017248994839
 31
0.0
  0
LINE
  5
202
330
1F
100
AcDbEntity
  8
VISIBLE
100
AcDbLine
 10
16.20936055821693
 20
11.72622377214358
 30
0.0
 11
15.95936055821693
 21
11.72622377214358
 31
0.0
  0
LINE
  5
203
330
1F
100
AcDbEntity
  8
VISIBLE
100
AcDbLine
 10
13.78219520388622
 20
10.15142062253728
 30
0.0
 11
13.78219520388622
 21
11.72622377214358
 31
0.0
  0
LINE
  5
204
330
1F
100
AcDbEntity
  8
VISIBLE
100
AcDbLine
 10
15.26447866845315
 20
12.1061450319861
 30
0.0
 11
15.26447866845315
 21
12.3561450319861
 31
0.0
  0
LINE
  5
205
330
1F
100
AcDbEntity
  8
VISIBLE
100
AcDbLine
 10
14.47707709365
 20
12.3561450319861
 30
0.0
 11
14.47707709365
 21
12.1061450319861
 31
0.0
  0
ARC
  5
206
330
1F
100
AcDbEntity
  8
VISIBLE
100
AcDbCircle
 10
15.57943929837441
 20
11.09630251230106
 30
0.0
 40
0.0787401574803148
100
AcDbArc
 50
270.0000000000013
 51
90.0
  0
LINE
  5
207
330
1F
100
AcDbEntity
  8
VISIBLE
100
AcDbLine
 10
16.36684087317756
 20
12.39551511072626
 30
0.0
 11
16.36684087317756
 21
0.820711961119957
 31
0.0
  0
ARC
  5
208
330
1F
100
AcDbEntity
  8
VISIBLE
100
AcDbCircle
 10
15.57943929837441
 20
11.41126314222232
 30
0.0
 40
0.0787401574803166
100
AcDbArc
 50
270.0000000000013
 51
90.0
  0
ARC
  5
209
330
1F
100
AcDbEntity
  8
VISIBLE
100
AcDbCircle
 10
16.24873063695709
 20
0.8207119611199569
 30
0.0
 40
0.1181102362204727
100
AcDbArc
 50
270.0
 51
0.0000000000000539
  0
ARC
  5
20A
330
1F
100
AcDbEntity
  8
VISIBLE
100
AcDbCircle
 10
13.33534481018543
 20
12.39551511072626
 30
0.0
 40
0.118110236220474
100
AcDbArc
 50
90.0
 51
180.0
  0
LINE
  5
20B
330
1F
100
AcDbEntity
  8
VISIBLE
100
AcDbLine
 10
16.20936055821693
 20
10.93882219734043
 30
0.0
 11
16.20936055821693
 21
11.72622377214358
 31
0.0
  0
CIRCLE
  5
20C
330
1F
100
AcDbEntity
  8
VISIBLE
100
AcDbCircle
 10
15.20542355034292
 20
2.454570228836492
 30
0.0
 40
0.1082677165354333
  0
LINE
  5
20D
330
1F
100
AcDbEntity
  8
VISIBLE
100
AcDbLine
 10
13.21723457396496
 20
12.3561450319861
 30
0.0
 11
13.21723457396496
 21
12.39551511072626
 31
0.0
  0
LINE
  5
20E
330
1F
100
AcDbEntity
  8
VISIBLE
100
AcDbLine
 10
15.57943929837441
 20
11.8049639296239
 30
0.0
 11
14.31959677868937
 21
11.80496392962389
 31
0.0
  0
LINE
  5
20F
330
1F
100
AcDbEntity
  8
VISIBLE
100
AcDbLine
 10
13.78219520388622
 20
11.72622377214358
 30
0.0
 11
13.53219520388622
 21
11.72622377214358
 31
0.0
  0
LINE
  5
210
330
1F
100
AcDbEntity
  8
VISIBLE
100
AcDbLine
 10
15.95936055821693
 20
2.277404874505784
 30
0.0
 11
15.95936055821693
 21
1.490003299702634
 31
0.0
  0
ARC
  5
211
330
1F
100
AcDbEntity
  8
VISIBLE
100
AcDbCircle
 10
13.33534481018544
 20
0.8207119611199567
 30
0.0
 40
0.1181102362204722
100
AcDbArc
 50
180.0
 51
270.0
  0
LINE
  5
212
330
1F
100
AcDbEntity
  8
VISIBLE
100
AcDbLine
 10
15.26447866845315
 20
12.3561450319861
 30
0.0
 11
14.47707709365
 21
12.3561450319861
 31
0.0
  0
LINE
  5
213
330
1F
100
AcDbEntity
  8
VISIBLE
100
AcDbLine
 10
15.95936055821693
 20
11.72622377214358
 30
0.0
 11
15.95936055821693
 21
10.93882219734043
 31
0.0
  0
LINE
  5
214
330
1F
100
AcDbEntity
  8
VISIBLE
100
AcDbLine
 10
13.53219520388622
 20
11.72622377214358
 30
0.0
 11
13.53219520388622
 21
10.15142062253728
 31
0.0
  0
LINE
  5
215
330
1F
100
AcDbEntity
  8
VISIBLE
100
AcDbLine
 10
15.95936055821693
 20
10.93882219734043
 30
0.0
 11
16.20936055821693
 21
10.93882219734043
 31
0.0
  0
ARC
  5
216
330
1F
100
AcDbEntity
  8
VISIBLE
100
AcDbCircle
 10
14.31959677868937
 20
11.09630251230106
 30
0.0
 40
0.0787401574803166
100
AcDbArc
 50
90.0
 51
270.0000000000013
  0
LINE
  5
217
330
1F
100
AcDbEntity
  8
VISIBLE
100
AcDbLine
 10
14.47707709365
 20
12.1061450319861
 30
0.0
 11
15.26447866845315
 21
12.1061450319861
 31
0.0
  0
ARC
  5
218
330
1F
100
AcDbEntity
  8
VISIBLE
100
AcDbCircle
 10
14.31959677868937
 20
11.72622377214358
 30
0.0
 40
0.0787401574803148
100
AcDbArc
 50
90.0
 51
270.0
  0
LINE
  5
219
330
1F
100
AcDbEntity
  8
VISIBLE
100
AcDbLine
 10
15.57943929837441
 20
10.54512140993886
 30
0.0
 11
14.31959677868937
 21
10.54512140993885
 31
0.0
  0
ARC
  5
21A
330
1F
100
AcDbEntity
  8
VISIBLE
100
AcDbCircle
 10
14.31959677868937
 20
11.41126314222232
 30
0.0
 40
0.0787401574803148
100
AcDbArc
 50
90.0
 51
270.0
  0
LINE
  5
21B
330
1F
100
AcDbEntity
  8
VISIBLE
100
AcDbLine
 10
15.57943929837441
 20
11.49000329970264
 30
0.0
 11
14.31959677868937
 21
11.49000329970263
 31
0.0
  0
LINE
  5
21C
330
1F
100
AcDbEntity
  8
VISIBLE
100
AcDbLine
 10
13.21723457396496
 20
0.8207119611199567
 30
0.0
 11
13.21723457396496
 21
0.8600820398601133
 31
0.0
  0
ARC
  5
21D
330
1F
100
AcDbEntity
  8
VISIBLE
100
AcDbCircle
 10
15.57943929837441
 20
10.46638125245854
 30
0.0
 40
0.0787401574803148
100
AcDbArc
 50
270.0
 51
90.0
  0
LINE
  5
21E
330
1F
100
AcDbEntity
  8
VISIBLE
100
AcDbLine
 10
13.37471488892559
 20
1.017562354820744
 30
0.0
 11
13.37471488892559
 21
12.19866471702547
 31
0.0
  0
LINE
  5
21F
330
1F
100
AcDbEntity
  8
VISIBLE
100
AcDbLine
 10
16.20936055821693
 20
1.490003299702634
 30
0.0
 11
16.20936055821693
 21
2.277404874505784
 31
0.0
  0
ARC
  5
220
330
1F
100
AcDbEntity
  8
VISIBLE
100
AcDbCircle
 10
13.37471488892559
 20
12.3561450319861
 30
0.0
 40
0.1574803149606296
100
AcDbArc
 50
180.0
 51
270.0
  0
LINE
  5
221
330
1F
100
AcDbEntity
  8
VISIBLE
100
AcDbLine
 10
14.31959677868937
 20
10.38764109497822
 30
0.0
 11
15.57943929837441
 21
10.38764109497823
 31
0.0
  0
LINE
  5
222
330
1F
100
AcDbEntity
  8
VISIBLE
100
AcDbLine
 10
15.95936055821693
 20
1.490003299702634
 30
0.0
 11
16.20936055821693
 21
1.490003299702634
 31
0.0
  0
ARC
  5
223
330
1F
100
AcDbEntity
  8
VISIBLE
100
AcDbCircle
 10
13.37471488892559
 20
0.8600820398601133
 30
0.0
 40
0.1574803149606309
100
AcDbArc
 50
90.0
 51
180.0
  0
ARC
  5
224
330
1F
100
AcDbEntity
  8
VISIBLE
100
AcDbCircle
 10
14.31959677868937
 20
10.46638125245854
 30
0.0
 40
0.0787401574803148
100
AcDbArc
 50
90.00000000000128
 51
270.0
  0
CIRCLE
  5
225
330
1F
100
AcDbEntity
  8
VISIBLE
100
AcDbCircle
 10
14.22117158183898
 20
2.454570228836491
 30
0.0
 40
0.1082677165354333
  0
LINE
  5
226
330
1F
100
AcDbEntity
  8
VISIBLE
100
AcDbLine
 10
14.31959677868937
 20
11.64748361466326
 30
0.0
 11
15.57943929837441
 21
11.64748361466327
 31
0.0
  0
ARC
  5
227
330
1F
100
AcDbEntity
  8
VISIBLE
100
AcDbCircle
 10
14.31959677868937
 20
10.7813418823798
 30
0.0
 40
0.078740157480313
100
AcDbArc
 50
90.0
 51
270.0000000000013
  0
ENDSEC
  0
SECTION
  2
OBJECTS
  0
DICTIONARY
  5
C
330
0
100
AcDbDictionary
  3
ACAD_GROUP
350
D
  3
ACAD_LAYOUT
350
1A
  3
ACAD_MATERIAL
350
3B
  3
ACAD_MLEADERSTYLE
350
24A
  3
ACAD_MLINESTYLE
350
17
  3
ACAD_PLOTSETTINGS
350
19
  3
ACAD_VISUALSTYLE
350
2A
  3
ACDBHEADERROUNDTRIPXREC
350
228
  3
ACDBVARIABLEDICTIONARY
350
248
  0
DICTIONARY
  5
D
102
{ACAD_REACTORS
330
C
102
}
330
C
100
AcDbDictionary
  0
DICTIONARY
  5
1A
102
{ACAD_REACTORS
330
C
102
}
330
C
100
AcDbDictionary
  0
DICTIONARY
  5
3B
102
{ACAD_REACTORS
330
C
102
}
330
C
100
AcDbDictionary
  3
BYBLOCK
350
3D
  3
BYLAYER
350
3C
  3
GLOBAL
350
3E
  0
DICTIONARY
  5
24A
102
{ACAD_REACTORS
330
C
102
}
330
C
100
AcDbDictionary
  0
DICTIONARY
  5
17
102
{ACAD_REACTORS
330
C
102
}
330
C
100
AcDbDictionary
  3
STANDARD
350
18
  0
DICTIONARY
  5
19
102
{ACAD_REACTORS
330
C
102
}
330
C
100
AcDbDictionary
  0
DICTIONARY
  5
2A
102
{ACAD_REACTORS
330
C
102
}
330
C
100
AcDbDictionary
  3
2DWIREFRAME
350
2F
  3
3D_HIDDEN
350
31
  3
3DWIREFRAME
350
30
  3
BASIC
350
32
  3
BRIGHTEN
350
36
  3
COLORCHANGE
350
3A
  3
CONCEPTUAL
350
34
  3
DIM
350
35
  3
FACEPATTERN
350
39
  3
FLAT
350
2B
  3
FLATWITHEDGES
350
2C
  3
GOURAUD
350
2D
  3
GOURAUDWITHEDGES
350
2E
  3
LINEPATTERN
350
38
  3
REALISTIC
350
33
  3
THICKEN
350
37
  0
DICTIONARY
  5
228
102
{ACAD_REACTORS
330
C
102
}
330
C
100
AcDbDictionary
  3
CEPSNTYPE
350
231
  3
DIMSTYLEDATA
350
247
  3
FINGERPRINTGUID
350
232
  3
HYPERLINKBASE
350
22B
  3
INSUNITS
350
230
  3
LAYOUTDICT
350
22D
  3
LWETCUNION
350
22F
  3
PLOTSETDICT
350
22E
  3
PSVPSCALE
350
234
  3
PUCSBASE
350
237
  3
PUCSORGBACK
350
23D
  3
PUCSORGBOTTOM
350
239
  3
PUCSORGFRONT
350
23C
  3
PUCSORGLEFT
350
23A
  3
PUCSORGRIGHT
350
23B
  3
PUCSORGTOP
350
238
  3
PUCSORTHOREF
350
235
  3
PUCSORTHOVIEW
350
236
  3
STYLESHEET
350
22C
  3
TSTACKALIGN
350
229
  3
TSTACKSIZE
350
22A
  3
UCSBASE
350
240
  3
UCSORGBACK
350
246
  3
UCSORGBOTTOM
350
242
  3
UCSORGFRONT
350
245
  3
UCSORGLEFT
350
243
  3
UCSORGRIGHT
350
244
  3
UCSORGTOP
350
241
  3
UCSORTHOREF
350
23E
  3
UCSORTHOVIEW
350
23F
  3
VERSIONGUID
350
233
  0
DICTIONARY
  5
248
102
{ACAD_REACTORS
330
C
102
}
330
C
100
AcDbDictionary
  3
DIMASSOC
350
24B
  3
HIDETEXT
350
24C
  0
MATERIAL
  5
3D
102
{ACAD_REACTORS
330
3B
102
}
102
{ACAD_XDICTIONARY
360
24F
102
}
330
3B
100
AcDbMaterial
  1
ByBlock
  0
MATERIAL
  5
3C
102
{ACAD_REACTORS
330
3B
102
}
102
{ACAD_XDICTIONARY
360
24D
102
}
330
3B
100
AcDbMaterial
  1
ByLayer
  0
MATERIAL
  5
3E
102
{ACAD_REACTORS
330
3B
102
}
102
{ACAD_XDICTIONARY
360
251
102
}
330
3B
100
AcDbMaterial
  1
Global
  0
MLINESTYLE
  5
18
102
{ACAD_REACTORS
330
17
102
}
330
17
100
AcDbMlineStyle
  2
Standard
 70
     0
  3

 62
   256
 51
90.0
 52
90.0
 71
     2
 49
0.5
 62
   256
  6
BYLAYER
 49
-0.5
 62
   256
  6
BYLAYER
  0
ACAD_PROXY_OBJECT
  5
2F
102
{ACAD_REACTORS
330
2A
102
}
330
2A
100
AcDbProxyObject
 90
      499
 91
      501
 93
      436
310
42CC9915DA5C99599C985B595049028333333333333E3BF0000000000000FB0107901411070040501600405405064090741402480A0340
1001
ACAD
1000
AcDbSavedByObjectVersion
1070
     0
  0
ACAD_PROXY_OBJECT
  5
31
102
{ACAD_REACTORS
330
2A
102
}
330
2A
100
AcDbProxyObject
 90
      499
 91
      501
 93
      500
310
424CD108121A5919195B90640502408333333333333E3BF0000000000000FB01079024090700405020000000000001110200405405064090740C02480A0340
1001
ACAD
1000
AcDbSavedByObjectVersion
1070
     0
  0
ACAD_PROXY_OBJECT
  5
30
102
{ACAD_REACTORS
330
2A
102
}
330
2A
100
AcDbProxyObject
 90
      499
 91
      501
 93
      436
310
42CCD915DA5C99599C985B595059028333333333333E3BF0000000000000FB0107901411070040501600405405064090741402480A0340
1001
ACAD
1000
AcDbSavedByObjectVersion
1070
     0
  0
ACAD_PROXY_OBJECT
  5
32
102
{ACAD_REACTORS
330
2A
102
}
330
2A
100
AcDbProxyObject
 90
      499
 91
      501
 93
      388
310
4150985CDA58D07406404333333333333E3BF0000000000000FB0107A41107004050150841D405064090741402480A0350
1001
ACAD
1000
AcDbSavedByObjectVersion
1070
     0
  0
ACAD_PROXY_OBJECT
  5
36
102
{ACAD_REACTORS
330
2A
102
}
330
2A
100
AcDbProxyObject
 90
      499
 91
      501
 93
      428
310
42109C9A59DA1D195B90C409028333333333333E3BF0000000000000FB010790141107004050150841D405064090741402480A029950
1001
ACAD
1000
AcDbSavedByObjectVersion
1070
     0
  0
ACAD_PROXY_OBJECT
  5
3A
102
{ACAD_REACTORS
330
2A
102
}
330
2A
100
AcDbProxyObject
 90
      499
 91
      501
 93
      452
310
42D0DBDB1BDC90DA185B99D95104090240C333333333333E3BF0000000000000FB0108901411070040501508421405064090741402480A0350
1001
ACAD
1000
AcDbSavedByObjectVersion
1070
     0
  0
ACAD_PROXY_OBJECT
  5
34
102
{ACAD_REACTORS
330
2A
102
}
330
2A
100
AcDbProxyObject
 90
      499
 91
      501
 93
      500
310
4290DBDB98D95C1D1D585B10940D028333333333333E3BF0000000000000FB0107902409070040501000000000000111010841D405064090740C02480A0340
1001
ACAD
1000
AcDbSavedByObjectVersion
1070
     0
  0
ACAD_PROXY_OBJECT
  5
35
102
{ACAD_REACTORS
330
2A
102
}
330
2A
100
AcDbProxyObject
 90
      499
 91
      501
 93
      412
310
40D11A5B50B409028333333333333E3BF0000000000000FB010790141107004050150841D405064090741402480A02677FFFFFD0
1001
ACAD
1000
AcDbSavedByObjectVersion
1070
     0
  0
ACAD_PROXY_OBJECT
  5
39
102
{ACAD_REACTORS
330
2A
102
}
330
2A
100
AcDbProxyObject
 90
      499
 91
      501
 93
      444
310
42D19858D95C185D1D195C9B90F409028333333333333E3BF0000000000000FB010790141107004050150841D405064090741402480A0350
1001
ACAD
1000
AcDbSavedByObjectVersion
1070
     0
  0
ACAD_PROXY_OBJECT
  5
2B
102
{ACAD_REACTORS
330
2A
102
}
330
2A
100
AcDbProxyObject
 90
      499
 91
      501
 93
      388
310
41119B185D240901404333333333333E3BF0000000000000F9010740A41107004050150841D405064090741402480A1B50
1001
ACAD
1000
AcDbSavedByObjectVersion
1070
     0
  0
ACAD_PROXY_OBJECT
  5
2C
102
{ACAD_REACTORS
330
2A
102
}
330
2A
100
AcDbProxyObject
 90
      499
 91
      501
 93
      476
310
43519B185D15DA5D1A115919D95CD0140901404333333333333E3BF0000000000000F9010740901411070040501600405405064090741402480A1B50
1001
ACAD
1000
AcDbSavedByObjectVersion
1070
     0
  0
ACAD_PROXY_OBJECT
  5
2D
102
{ACAD_REACTORS
330
2A
102
}
330
2A
100
AcDbProxyObject
 90
      499
 91
      501
 93
      412
310
41D1DBDD5C985D5910240902404333333333333E3BF0000000000000F9010740A411070040501641D405064090741402480A1B50
1001
ACAD
1000
AcDbSavedByObjectVersion
1070
     0
  0
ACAD_PROXY_OBJECT
  5
2E
102
{ACAD_REACTORS
330
2A
102
}
330
2A
100
AcDbProxyObject
 90
      499
 91
      501
 93
      500
310
4411DBDD5C985D5915DA5D1A115919D95CD0340902404333333333333E3BF0000000000000F9010740901411070040501600405405064090741402480A1B50
1001
ACAD
1000
AcDbSavedByObjectVersion
1070
     0
  0
ACAD_PROXY_OBJECT
  5
38
102
{ACAD_REACTORS
330
2A
102
}
330
2A
100
AcDbProxyObject
 90
      499
 91
      501
 93
      444
310
42D31A5B995C185D1D195C9B90E409028333333333333E3BF0000000000000FB010790141107004050750841D405064090741402483A0350
1001
ACAD
1000
AcDbSavedByObjectVersion
1070
     0
  0
ACAD_PROXY_OBJECT
  5
33
102
{ACAD_REACTORS
330
2A
102
}
330
2A
100
AcDbProxyObject
 90
      499
 91
      501
 93
      420
310
425499585B1A5CDD1A58D08409028333333333333E3BF0000000000000FB01079019070040501508421405064090741402480A1B40
1001
ACAD
1000
AcDbSavedByObjectVersion
1070
     0
  0
ACAD_PROXY_OBJECT
  5
37
102
{ACAD_REACTORS
330
2A
102
}
330
2A
100
AcDbProxyObject
 90
      499
 91
      501
 93
      412
310
41D51A1A58DAD95B90D409028333333333333E3BF0000000000000FB010790141107004050150C41D405064090741402480A0350
1001
ACAD
1000
AcDbSavedByObjectVersion
1070
     0
  0
XRECORD
  5
231
102
{ACAD_REACTORS
330
228
102
}
330
228
100
AcDbXrecord
 90
        0
  0
XRECORD
  5
247
102
{ACAD_REACTORS
330
228
102
}
330
228
100
AcDbXrecord
1000
DSTYLE
1002
{
1070
    41
 40
0.06
1070
   340
340
11
1070
   140
 40
0.0482483533954122
1002
}
  0
XRECORD
  5
232
102
{ACAD_REACTORS
330
228
102
}
330
228
100
AcDbXrecord
  1
{AB3E4ED1-37E7-4D0E-AABE-25AD4D23F11E}
  0
XRECORD
  5
22B
102
{ACAD_REACTORS
330
228
102
}
330
228
100
AcDbXrecord
  1

  0
XRECORD
  5
230
102
{ACAD_REACTORS
330
228
102
}
330
228
100
AcDbXrecord
 90
        1
  0
XRECORD
  5
22D
102
{ACAD_REACTORS
330
228
102
}
330
228
100
AcDbXrecord
340
1A
  0
XRECORD
  5
22F
102
{ACAD_REACTORS
330
228
102
}
330
228
100
AcDbXrecord
 90
    10781
  0
XRECORD
  5
22E
102
{ACAD_REACTORS
330
228
102
}
330
228
100
AcDbXrecord
340
19
  0
XRECORD
  5
234
102
{ACAD_REACTORS
330
228
102
}
330
228
100
AcDbXrecord
 40
0.0
  0
XRECORD
  5
237
102
{ACAD_REACTORS
330
228
102
}
330
228
100
AcDbXrecord
340
0
  0
XRECORD
  5
23D
102
{ACAD_REACTORS
330
228
102
}
330
228
100
AcDbXrecord
 10
0.0
 20
0.0
 30
0.0
  0
XRECORD
  5
239
102
{ACAD_REACTORS
330
228
102
}
330
228
100
AcDbXrecord
 10
0.0
 20
0.0
 30
0.0
  0
XRECORD
  5
23C
102
{ACAD_REACTORS
330
228
102
}
330
228
100
AcDbXrecord
 10
0.0
 20
0.0
 30
0.0
  0
XRECORD
  5
23A
102
{ACAD_REACTORS
330
228
102
}
330
228
100
AcDbXrecord
 10
0.0
 20
0.0
 30
0.0
  0
XRECORD
  5
23B
102
{ACAD_REACTORS
330
228
102
}
330
228
100
AcDbXrecord
 10
0.0
 20
0.0
 30
0.0
  0
XRECORD
  5
238
102
{ACAD_REACTORS
330
228
102
}
330
228
100
AcDbXrecord
 10
0.0
 20
0.0
 30
0.0
  0
XRECORD
  5
235
102
{ACAD_REACTORS
330
228
102
}
330
228
100
AcDbXrecord
340
0
  0
XRECORD
  5
236
102
{ACAD_REACTORS
330
228
102
}
330
228
100
AcDbXrecord
 70
     0
  0
XRECORD
  5
22C
102
{ACAD_REACTORS
330
228
102
}
330
228
100
AcDbXrecord
  1

  0
XRECORD
  5
229
102
{ACAD_REACTORS
330
228
102
}
330
228
100
AcDbXrecord
 90
        1
  0
XRECORD
  5
22A
102
{ACAD_REACTORS
330
228
102
}
330
228
100
AcDbXrecord
 90
       70
  0
XRECORD
  5
240
102
{ACAD_REACTORS
330
228
102
}
330
228
100
AcDbXrecord
340
0
  0
XRECORD
  5
246
102
{ACAD_REACTORS
330
228
102
}
330
228
100
AcDbXrecord
 10
0.0
 20
0.0
 30
0.0
  0
XRECORD
  5
242
102
{ACAD_REACTORS
330
228
102
}
330
228
100
AcDbXrecord
 10
0.0
 20
0.0
 30
0.0
  0
XRECORD
  5
245
102
{ACAD_REACTORS
330
228
102
}
330
228
100
AcDbXrecord
 10
0.0
 20
0.0
 30
0.0
  0
XRECORD
  5
243
102
{ACAD_REACTORS
330
228
102
}
330
228
100
AcDbXrecord
 10
0.0
 20
0.0
 30
0.0
  0
XRECORD
  5
244
102
{ACAD_REACTORS
330
228
102
}
330
228
100
AcDbXrecord
 10
0.0
 20
0.0
 30
0.0
  0
XRECORD
  5
241
102
{ACAD_REACTORS
330
228
102
}
330
228
100
AcDbXrecord
 10
0.0
 20
0.0
 30
0.0
  0
XRECORD
  5
23E
102
{ACAD_REACTORS
330
228
102
}
330
228
100
AcDbXrecord
340
0
  0
XRECORD
  5
23F
102
{ACAD_REACTORS
330
228
102
}
330
228
100
AcDbXrecord
 70
     0
  0
XRECORD
  5
233
102
{ACAD_REACTORS
330
228
102
}
330
228
100
AcDbXrecord
  1
{FAEB1C32-E019-11D5-929B-00C0DF256EC4}
  0
DICTIONARYVAR
  5
24B
102
{ACAD_REACTORS
330
248
102
}
330
248
100
DictionaryVariables
280
     0
  1
2
  0
DICTIONARYVAR
  5
24C
102
{ACAD_REACTORS
330
248
102
}
330
248
100
DictionaryVariables
280
     0
  1
1
  0
DICTIONARY
  5
24F
330
3D
100
AcDbDictionary
280
     1
  3
ACAD_XREC_ROUNDTRIP
360
250
  0
DICTIONARY
  5
24D
330
3C
100
AcDbDictionary
280
     1
  3
ACAD_XREC_ROUNDTRIP
360
24E
  0
DICTIONARY
  5
251
330
3E
100
AcDbDictionary
280
     1
  3
ACAD_XREC_ROUNDTRIP
360
252
  0
XRECORD
  5
250
102
{ACAD_REACTORS
330
24F
102
}
330
24F
100
AcDbXrecord
102
MATERIAL
148
0.0
149
0.0
149
0.0
 93
        0
 94
      127
282
     0
 72
     1
 77
     1
171
     1
175
     1
179
     1
273
     0
  0
XRECORD
  5
24E
102
{ACAD_REACTORS
330
24D
102
}
330
24D
100
AcDbXrecord
102
MATERIAL
148
0.0
149
0.0
149
0.0
 93
        0
 94
      127
282
     0
 72
     1
 77
     1
171
     1
175
     1
179
     1
273
     0
  0
XRECORD
  5
252
102
{ACAD_REACTORS
330
251
102
}
330
251
100
AcDbXrecord
102
MATERIAL
148
0.0
149
0.0
149
0.0
 93
        0
 94
      127
282
     0
 72
     1
 77
     1
171
     1
175
     1
179
     1
273
     0
  0
ENDSEC
  0
EOF
